%TF.GenerationSoftware,KiCad,Pcbnew,8.0.7*%
%TF.CreationDate,2025-01-12T22:15:46+01:00*%
%TF.ProjectId,butns,6275746e-732e-46b6-9963-61645f706362,rev?*%
%TF.SameCoordinates,Original*%
%TF.FileFunction,Legend,Top*%
%TF.FilePolarity,Positive*%
%FSLAX46Y46*%
G04 Gerber Fmt 4.6, Leading zero omitted, Abs format (unit mm)*
G04 Created by KiCad (PCBNEW 8.0.7) date 2025-01-12 22:15:46*
%MOMM*%
%LPD*%
G01*
G04 APERTURE LIST*
G04 Aperture macros list*
%AMRoundRect*
0 Rectangle with rounded corners*
0 $1 Rounding radius*
0 $2 $3 $4 $5 $6 $7 $8 $9 X,Y pos of 4 corners*
0 Add a 4 corners polygon primitive as box body*
4,1,4,$2,$3,$4,$5,$6,$7,$8,$9,$2,$3,0*
0 Add four circle primitives for the rounded corners*
1,1,$1+$1,$2,$3*
1,1,$1+$1,$4,$5*
1,1,$1+$1,$6,$7*
1,1,$1+$1,$8,$9*
0 Add four rect primitives between the rounded corners*
20,1,$1+$1,$2,$3,$4,$5,0*
20,1,$1+$1,$4,$5,$6,$7,0*
20,1,$1+$1,$6,$7,$8,$9,0*
20,1,$1+$1,$8,$9,$2,$3,0*%
G04 Aperture macros list end*
%ADD10C,0.150000*%
%ADD11C,0.120000*%
%ADD12C,0.100000*%
%ADD13RoundRect,0.162500X0.162500X-0.617500X0.162500X0.617500X-0.162500X0.617500X-0.162500X-0.617500X0*%
%ADD14RoundRect,0.225000X0.250000X-0.225000X0.250000X0.225000X-0.250000X0.225000X-0.250000X-0.225000X0*%
%ADD15O,1.800000X1.800000*%
%ADD16O,1.500000X1.500000*%
%ADD17R,0.700000X0.800000*%
%ADD18R,0.750000X1.000000*%
%ADD19C,2.700000*%
%ADD20RoundRect,0.112500X0.112500X-0.187500X0.112500X0.187500X-0.112500X0.187500X-0.112500X-0.187500X0*%
%ADD21RoundRect,0.225000X0.225000X0.250000X-0.225000X0.250000X-0.225000X-0.250000X0.225000X-0.250000X0*%
G04 APERTURE END LIST*
D10*
X146333333Y-50789580D02*
X146285714Y-50837200D01*
X146285714Y-50837200D02*
X146142857Y-50884819D01*
X146142857Y-50884819D02*
X146047619Y-50884819D01*
X146047619Y-50884819D02*
X145904762Y-50837200D01*
X145904762Y-50837200D02*
X145809524Y-50741961D01*
X145809524Y-50741961D02*
X145761905Y-50646723D01*
X145761905Y-50646723D02*
X145714286Y-50456247D01*
X145714286Y-50456247D02*
X145714286Y-50313390D01*
X145714286Y-50313390D02*
X145761905Y-50122914D01*
X145761905Y-50122914D02*
X145809524Y-50027676D01*
X145809524Y-50027676D02*
X145904762Y-49932438D01*
X145904762Y-49932438D02*
X146047619Y-49884819D01*
X146047619Y-49884819D02*
X146142857Y-49884819D01*
X146142857Y-49884819D02*
X146285714Y-49932438D01*
X146285714Y-49932438D02*
X146333333Y-49980057D01*
X147285714Y-50884819D02*
X146714286Y-50884819D01*
X147000000Y-50884819D02*
X147000000Y-49884819D01*
X147000000Y-49884819D02*
X146904762Y-50027676D01*
X146904762Y-50027676D02*
X146809524Y-50122914D01*
X146809524Y-50122914D02*
X146714286Y-50170533D01*
D11*
%TO.C,U2*%
X134142000Y-57668000D02*
X133812000Y-57908000D01*
X133812000Y-57428000D01*
X134142000Y-57668000D01*
G36*
X134142000Y-57668000D02*
G01*
X133812000Y-57908000D01*
X133812000Y-57428000D01*
X134142000Y-57668000D01*
G37*
X134092000Y-56368000D02*
X134092000Y-55568000D01*
X134092000Y-56368000D02*
X134092000Y-57168000D01*
X137312000Y-57368000D02*
X137312000Y-55568000D01*
%TO.C,C65*%
X134110000Y-52718580D02*
X134110000Y-52437420D01*
X135130000Y-52718580D02*
X135130000Y-52437420D01*
%TO.C,D128*%
D12*
X225160000Y-132100000D02*
X227360000Y-132100000D01*
X227360000Y-129700000D01*
X225160000Y-129700000D01*
X225160000Y-132100000D01*
X225010000Y-129550000D02*
X225360000Y-129550000D01*
X225010000Y-129900000D02*
X225010000Y-129550000D01*
X226110000Y-130425000D02*
X226110000Y-130075000D01*
%TO.C,D120*%
X225160000Y-120700000D02*
X227360000Y-120700000D01*
X227360000Y-118300000D01*
X225160000Y-118300000D01*
X225160000Y-120700000D01*
X225010000Y-118150000D02*
X225360000Y-118150000D01*
X225010000Y-118500000D02*
X225010000Y-118150000D01*
X226110000Y-119025000D02*
X226110000Y-118675000D01*
%TO.C,D112*%
X225160000Y-109300000D02*
X227360000Y-109300000D01*
X227360000Y-106900000D01*
X225160000Y-106900000D01*
X225160000Y-109300000D01*
X225010000Y-106750000D02*
X225360000Y-106750000D01*
X225010000Y-107100000D02*
X225010000Y-106750000D01*
X226110000Y-107625000D02*
X226110000Y-107275000D01*
%TO.C,D104*%
X225160000Y-97900000D02*
X227360000Y-97900000D01*
X227360000Y-95500000D01*
X225160000Y-95500000D01*
X225160000Y-97900000D01*
X225010000Y-95350000D02*
X225360000Y-95350000D01*
X225010000Y-95700000D02*
X225010000Y-95350000D01*
X226110000Y-96225000D02*
X226110000Y-95875000D01*
%TO.C,D127*%
X213730000Y-132100000D02*
X215930000Y-132100000D01*
X215930000Y-129700000D01*
X213730000Y-129700000D01*
X213730000Y-132100000D01*
X213580000Y-129550000D02*
X213930000Y-129550000D01*
X213580000Y-129900000D02*
X213580000Y-129550000D01*
X214680000Y-130425000D02*
X214680000Y-130075000D01*
%TO.C,D119*%
X213730000Y-120700000D02*
X215930000Y-120700000D01*
X215930000Y-118300000D01*
X213730000Y-118300000D01*
X213730000Y-120700000D01*
X213580000Y-118150000D02*
X213930000Y-118150000D01*
X213580000Y-118500000D02*
X213580000Y-118150000D01*
X214680000Y-119025000D02*
X214680000Y-118675000D01*
%TO.C,D111*%
X213730000Y-109300000D02*
X215930000Y-109300000D01*
X215930000Y-106900000D01*
X213730000Y-106900000D01*
X213730000Y-109300000D01*
X213580000Y-106750000D02*
X213930000Y-106750000D01*
X213580000Y-107100000D02*
X213580000Y-106750000D01*
X214680000Y-107625000D02*
X214680000Y-107275000D01*
%TO.C,D103*%
X213730000Y-97900000D02*
X215930000Y-97900000D01*
X215930000Y-95500000D01*
X213730000Y-95500000D01*
X213730000Y-97900000D01*
X213580000Y-95350000D02*
X213930000Y-95350000D01*
X213580000Y-95700000D02*
X213580000Y-95350000D01*
X214680000Y-96225000D02*
X214680000Y-95875000D01*
%TO.C,D126*%
X202300000Y-132100000D02*
X204500000Y-132100000D01*
X204500000Y-129700000D01*
X202300000Y-129700000D01*
X202300000Y-132100000D01*
X202150000Y-129550000D02*
X202500000Y-129550000D01*
X202150000Y-129900000D02*
X202150000Y-129550000D01*
X203250000Y-130425000D02*
X203250000Y-130075000D01*
%TO.C,D118*%
X202300000Y-120700000D02*
X204500000Y-120700000D01*
X204500000Y-118300000D01*
X202300000Y-118300000D01*
X202300000Y-120700000D01*
X202150000Y-118150000D02*
X202500000Y-118150000D01*
X202150000Y-118500000D02*
X202150000Y-118150000D01*
X203250000Y-119025000D02*
X203250000Y-118675000D01*
%TO.C,D110*%
X202300000Y-109300000D02*
X204500000Y-109300000D01*
X204500000Y-106900000D01*
X202300000Y-106900000D01*
X202300000Y-109300000D01*
X202150000Y-106750000D02*
X202500000Y-106750000D01*
X202150000Y-107100000D02*
X202150000Y-106750000D01*
X203250000Y-107625000D02*
X203250000Y-107275000D01*
%TO.C,D102*%
X202300000Y-97900000D02*
X204500000Y-97900000D01*
X204500000Y-95500000D01*
X202300000Y-95500000D01*
X202300000Y-97900000D01*
X202150000Y-95350000D02*
X202500000Y-95350000D01*
X202150000Y-95700000D02*
X202150000Y-95350000D01*
X203250000Y-96225000D02*
X203250000Y-95875000D01*
%TO.C,D125*%
X190870000Y-132100000D02*
X193070000Y-132100000D01*
X193070000Y-129700000D01*
X190870000Y-129700000D01*
X190870000Y-132100000D01*
X190720000Y-129550000D02*
X191070000Y-129550000D01*
X190720000Y-129900000D02*
X190720000Y-129550000D01*
X191820000Y-130425000D02*
X191820000Y-130075000D01*
%TO.C,D117*%
X190870000Y-120700000D02*
X193070000Y-120700000D01*
X193070000Y-118300000D01*
X190870000Y-118300000D01*
X190870000Y-120700000D01*
X190720000Y-118150000D02*
X191070000Y-118150000D01*
X190720000Y-118500000D02*
X190720000Y-118150000D01*
X191820000Y-119025000D02*
X191820000Y-118675000D01*
%TO.C,D109*%
X190870000Y-109300000D02*
X193070000Y-109300000D01*
X193070000Y-106900000D01*
X190870000Y-106900000D01*
X190870000Y-109300000D01*
X190720000Y-106750000D02*
X191070000Y-106750000D01*
X190720000Y-107100000D02*
X190720000Y-106750000D01*
X191820000Y-107625000D02*
X191820000Y-107275000D01*
%TO.C,D101*%
X190870000Y-97900000D02*
X193070000Y-97900000D01*
X193070000Y-95500000D01*
X190870000Y-95500000D01*
X190870000Y-97900000D01*
X190720000Y-95350000D02*
X191070000Y-95350000D01*
X190720000Y-95700000D02*
X190720000Y-95350000D01*
X191820000Y-96225000D02*
X191820000Y-95875000D01*
%TO.C,D124*%
X179440000Y-132100000D02*
X181640000Y-132100000D01*
X181640000Y-129700000D01*
X179440000Y-129700000D01*
X179440000Y-132100000D01*
X179290000Y-129550000D02*
X179640000Y-129550000D01*
X179290000Y-129900000D02*
X179290000Y-129550000D01*
X180390000Y-130425000D02*
X180390000Y-130075000D01*
%TO.C,D116*%
X179440000Y-120700000D02*
X181640000Y-120700000D01*
X181640000Y-118300000D01*
X179440000Y-118300000D01*
X179440000Y-120700000D01*
X179290000Y-118150000D02*
X179640000Y-118150000D01*
X179290000Y-118500000D02*
X179290000Y-118150000D01*
X180390000Y-119025000D02*
X180390000Y-118675000D01*
%TO.C,D108*%
X179440000Y-109300000D02*
X181640000Y-109300000D01*
X181640000Y-106900000D01*
X179440000Y-106900000D01*
X179440000Y-109300000D01*
X179290000Y-106750000D02*
X179640000Y-106750000D01*
X179290000Y-107100000D02*
X179290000Y-106750000D01*
X180390000Y-107625000D02*
X180390000Y-107275000D01*
%TO.C,D100*%
X179440000Y-97900000D02*
X181640000Y-97900000D01*
X181640000Y-95500000D01*
X179440000Y-95500000D01*
X179440000Y-97900000D01*
X179290000Y-95350000D02*
X179640000Y-95350000D01*
X179290000Y-95700000D02*
X179290000Y-95350000D01*
X180390000Y-96225000D02*
X180390000Y-95875000D01*
%TO.C,D123*%
X168010000Y-132100000D02*
X170210000Y-132100000D01*
X170210000Y-129700000D01*
X168010000Y-129700000D01*
X168010000Y-132100000D01*
X167860000Y-129550000D02*
X168210000Y-129550000D01*
X167860000Y-129900000D02*
X167860000Y-129550000D01*
X168960000Y-130425000D02*
X168960000Y-130075000D01*
%TO.C,D115*%
X168010000Y-120700000D02*
X170210000Y-120700000D01*
X170210000Y-118300000D01*
X168010000Y-118300000D01*
X168010000Y-120700000D01*
X167860000Y-118150000D02*
X168210000Y-118150000D01*
X167860000Y-118500000D02*
X167860000Y-118150000D01*
X168960000Y-119025000D02*
X168960000Y-118675000D01*
%TO.C,D107*%
X168010000Y-109300000D02*
X170210000Y-109300000D01*
X170210000Y-106900000D01*
X168010000Y-106900000D01*
X168010000Y-109300000D01*
X167860000Y-106750000D02*
X168210000Y-106750000D01*
X167860000Y-107100000D02*
X167860000Y-106750000D01*
X168960000Y-107625000D02*
X168960000Y-107275000D01*
%TO.C,D99*%
X168010000Y-97900000D02*
X170210000Y-97900000D01*
X170210000Y-95500000D01*
X168010000Y-95500000D01*
X168010000Y-97900000D01*
X167860000Y-95350000D02*
X168210000Y-95350000D01*
X167860000Y-95700000D02*
X167860000Y-95350000D01*
X168960000Y-96225000D02*
X168960000Y-95875000D01*
%TO.C,D122*%
X156580000Y-132100000D02*
X158780000Y-132100000D01*
X158780000Y-129700000D01*
X156580000Y-129700000D01*
X156580000Y-132100000D01*
X156430000Y-129550000D02*
X156780000Y-129550000D01*
X156430000Y-129900000D02*
X156430000Y-129550000D01*
X157530000Y-130425000D02*
X157530000Y-130075000D01*
%TO.C,D114*%
X156580000Y-120700000D02*
X158780000Y-120700000D01*
X158780000Y-118300000D01*
X156580000Y-118300000D01*
X156580000Y-120700000D01*
X156430000Y-118150000D02*
X156780000Y-118150000D01*
X156430000Y-118500000D02*
X156430000Y-118150000D01*
X157530000Y-119025000D02*
X157530000Y-118675000D01*
%TO.C,D106*%
X156580000Y-109300000D02*
X158780000Y-109300000D01*
X158780000Y-106900000D01*
X156580000Y-106900000D01*
X156580000Y-109300000D01*
X156430000Y-106750000D02*
X156780000Y-106750000D01*
X156430000Y-107100000D02*
X156430000Y-106750000D01*
X157530000Y-107625000D02*
X157530000Y-107275000D01*
%TO.C,D98*%
X156580000Y-97900000D02*
X158780000Y-97900000D01*
X158780000Y-95500000D01*
X156580000Y-95500000D01*
X156580000Y-97900000D01*
X156430000Y-95350000D02*
X156780000Y-95350000D01*
X156430000Y-95700000D02*
X156430000Y-95350000D01*
X157530000Y-96225000D02*
X157530000Y-95875000D01*
%TO.C,D121*%
X145150000Y-132100000D02*
X147350000Y-132100000D01*
X147350000Y-129700000D01*
X145150000Y-129700000D01*
X145150000Y-132100000D01*
X145000000Y-129550000D02*
X145350000Y-129550000D01*
X145000000Y-129900000D02*
X145000000Y-129550000D01*
X146100000Y-130425000D02*
X146100000Y-130075000D01*
%TO.C,D113*%
X145150000Y-120700000D02*
X147350000Y-120700000D01*
X147350000Y-118300000D01*
X145150000Y-118300000D01*
X145150000Y-120700000D01*
X145000000Y-118150000D02*
X145350000Y-118150000D01*
X145000000Y-118500000D02*
X145000000Y-118150000D01*
X146100000Y-119025000D02*
X146100000Y-118675000D01*
%TO.C,D105*%
X145150000Y-109300000D02*
X147350000Y-109300000D01*
X147350000Y-106900000D01*
X145150000Y-106900000D01*
X145150000Y-109300000D01*
X145000000Y-106750000D02*
X145350000Y-106750000D01*
X145000000Y-107100000D02*
X145000000Y-106750000D01*
X146100000Y-107625000D02*
X146100000Y-107275000D01*
%TO.C,D97*%
X145150000Y-97900000D02*
X147350000Y-97900000D01*
X147350000Y-95500000D01*
X145150000Y-95500000D01*
X145150000Y-97900000D01*
X145000000Y-95350000D02*
X145350000Y-95350000D01*
X145000000Y-95700000D02*
X145000000Y-95350000D01*
X146100000Y-96225000D02*
X146100000Y-95875000D01*
%TO.C,D96*%
X225160000Y-86500000D02*
X227360000Y-86500000D01*
X227360000Y-84100000D01*
X225160000Y-84100000D01*
X225160000Y-86500000D01*
X225010000Y-83950000D02*
X225360000Y-83950000D01*
X225010000Y-84300000D02*
X225010000Y-83950000D01*
X226110000Y-84825000D02*
X226110000Y-84475000D01*
%TO.C,D95*%
X213730000Y-86500000D02*
X215930000Y-86500000D01*
X215930000Y-84100000D01*
X213730000Y-84100000D01*
X213730000Y-86500000D01*
X213580000Y-83950000D02*
X213930000Y-83950000D01*
X213580000Y-84300000D02*
X213580000Y-83950000D01*
X214680000Y-84825000D02*
X214680000Y-84475000D01*
%TO.C,D94*%
X202300000Y-86500000D02*
X204500000Y-86500000D01*
X204500000Y-84100000D01*
X202300000Y-84100000D01*
X202300000Y-86500000D01*
X202150000Y-83950000D02*
X202500000Y-83950000D01*
X202150000Y-84300000D02*
X202150000Y-83950000D01*
X203250000Y-84825000D02*
X203250000Y-84475000D01*
%TO.C,D93*%
X190870000Y-86500000D02*
X193070000Y-86500000D01*
X193070000Y-84100000D01*
X190870000Y-84100000D01*
X190870000Y-86500000D01*
X190720000Y-83950000D02*
X191070000Y-83950000D01*
X190720000Y-84300000D02*
X190720000Y-83950000D01*
X191820000Y-84825000D02*
X191820000Y-84475000D01*
%TO.C,D92*%
X179440000Y-86500000D02*
X181640000Y-86500000D01*
X181640000Y-84100000D01*
X179440000Y-84100000D01*
X179440000Y-86500000D01*
X179290000Y-83950000D02*
X179640000Y-83950000D01*
X179290000Y-84300000D02*
X179290000Y-83950000D01*
X180390000Y-84825000D02*
X180390000Y-84475000D01*
%TO.C,D91*%
X168010000Y-86500000D02*
X170210000Y-86500000D01*
X170210000Y-84100000D01*
X168010000Y-84100000D01*
X168010000Y-86500000D01*
X167860000Y-83950000D02*
X168210000Y-83950000D01*
X167860000Y-84300000D02*
X167860000Y-83950000D01*
X168960000Y-84825000D02*
X168960000Y-84475000D01*
%TO.C,D90*%
X156580000Y-86500000D02*
X158780000Y-86500000D01*
X158780000Y-84100000D01*
X156580000Y-84100000D01*
X156580000Y-86500000D01*
X156430000Y-83950000D02*
X156780000Y-83950000D01*
X156430000Y-84300000D02*
X156430000Y-83950000D01*
X157530000Y-84825000D02*
X157530000Y-84475000D01*
%TO.C,D89*%
X145150000Y-86500000D02*
X147350000Y-86500000D01*
X147350000Y-84100000D01*
X145150000Y-84100000D01*
X145150000Y-86500000D01*
X145000000Y-83950000D02*
X145350000Y-83950000D01*
X145000000Y-84300000D02*
X145000000Y-83950000D01*
X146100000Y-84825000D02*
X146100000Y-84475000D01*
%TO.C,D88*%
X225160000Y-75100000D02*
X227360000Y-75100000D01*
X227360000Y-72700000D01*
X225160000Y-72700000D01*
X225160000Y-75100000D01*
X225010000Y-72550000D02*
X225360000Y-72550000D01*
X225010000Y-72900000D02*
X225010000Y-72550000D01*
X226110000Y-73425000D02*
X226110000Y-73075000D01*
%TO.C,D87*%
X213730000Y-75100000D02*
X215930000Y-75100000D01*
X215930000Y-72700000D01*
X213730000Y-72700000D01*
X213730000Y-75100000D01*
X213580000Y-72550000D02*
X213930000Y-72550000D01*
X213580000Y-72900000D02*
X213580000Y-72550000D01*
X214680000Y-73425000D02*
X214680000Y-73075000D01*
%TO.C,D86*%
X202300000Y-75100000D02*
X204500000Y-75100000D01*
X204500000Y-72700000D01*
X202300000Y-72700000D01*
X202300000Y-75100000D01*
X202150000Y-72550000D02*
X202500000Y-72550000D01*
X202150000Y-72900000D02*
X202150000Y-72550000D01*
X203250000Y-73425000D02*
X203250000Y-73075000D01*
%TO.C,D85*%
X190870000Y-75100000D02*
X193070000Y-75100000D01*
X193070000Y-72700000D01*
X190870000Y-72700000D01*
X190870000Y-75100000D01*
X190720000Y-72550000D02*
X191070000Y-72550000D01*
X190720000Y-72900000D02*
X190720000Y-72550000D01*
X191820000Y-73425000D02*
X191820000Y-73075000D01*
%TO.C,D84*%
X179440000Y-75100000D02*
X181640000Y-75100000D01*
X181640000Y-72700000D01*
X179440000Y-72700000D01*
X179440000Y-75100000D01*
X179290000Y-72550000D02*
X179640000Y-72550000D01*
X179290000Y-72900000D02*
X179290000Y-72550000D01*
X180390000Y-73425000D02*
X180390000Y-73075000D01*
%TO.C,D83*%
X168010000Y-75100000D02*
X170210000Y-75100000D01*
X170210000Y-72700000D01*
X168010000Y-72700000D01*
X168010000Y-75100000D01*
X167860000Y-72550000D02*
X168210000Y-72550000D01*
X167860000Y-72900000D02*
X167860000Y-72550000D01*
X168960000Y-73425000D02*
X168960000Y-73075000D01*
%TO.C,D82*%
X156580000Y-75100000D02*
X158780000Y-75100000D01*
X158780000Y-72700000D01*
X156580000Y-72700000D01*
X156580000Y-75100000D01*
X156430000Y-72550000D02*
X156780000Y-72550000D01*
X156430000Y-72900000D02*
X156430000Y-72550000D01*
X157530000Y-73425000D02*
X157530000Y-73075000D01*
%TO.C,D81*%
X145150000Y-75100000D02*
X147350000Y-75100000D01*
X147350000Y-72700000D01*
X145150000Y-72700000D01*
X145150000Y-75100000D01*
X145000000Y-72550000D02*
X145350000Y-72550000D01*
X145000000Y-72900000D02*
X145000000Y-72550000D01*
X146100000Y-73425000D02*
X146100000Y-73075000D01*
%TO.C,D80*%
X226110000Y-62025000D02*
X226110000Y-61675000D01*
X225010000Y-61500000D02*
X225010000Y-61150000D01*
X225010000Y-61150000D02*
X225360000Y-61150000D01*
X225160000Y-63700000D02*
X227360000Y-63700000D01*
X227360000Y-61300000D01*
X225160000Y-61300000D01*
X225160000Y-63700000D01*
%TO.C,D79*%
X214680000Y-62025000D02*
X214680000Y-61675000D01*
X213580000Y-61500000D02*
X213580000Y-61150000D01*
X213580000Y-61150000D02*
X213930000Y-61150000D01*
X213730000Y-63700000D02*
X215930000Y-63700000D01*
X215930000Y-61300000D01*
X213730000Y-61300000D01*
X213730000Y-63700000D01*
%TO.C,D78*%
X203250000Y-62025000D02*
X203250000Y-61675000D01*
X202150000Y-61500000D02*
X202150000Y-61150000D01*
X202150000Y-61150000D02*
X202500000Y-61150000D01*
X202300000Y-63700000D02*
X204500000Y-63700000D01*
X204500000Y-61300000D01*
X202300000Y-61300000D01*
X202300000Y-63700000D01*
%TO.C,D77*%
X191820000Y-62025000D02*
X191820000Y-61675000D01*
X190720000Y-61500000D02*
X190720000Y-61150000D01*
X190720000Y-61150000D02*
X191070000Y-61150000D01*
X190870000Y-63700000D02*
X193070000Y-63700000D01*
X193070000Y-61300000D01*
X190870000Y-61300000D01*
X190870000Y-63700000D01*
%TO.C,D76*%
X180390000Y-62025000D02*
X180390000Y-61675000D01*
X179290000Y-61500000D02*
X179290000Y-61150000D01*
X179290000Y-61150000D02*
X179640000Y-61150000D01*
X179440000Y-63700000D02*
X181640000Y-63700000D01*
X181640000Y-61300000D01*
X179440000Y-61300000D01*
X179440000Y-63700000D01*
%TO.C,D75*%
X168960000Y-62025000D02*
X168960000Y-61675000D01*
X167860000Y-61500000D02*
X167860000Y-61150000D01*
X167860000Y-61150000D02*
X168210000Y-61150000D01*
X168010000Y-63700000D02*
X170210000Y-63700000D01*
X170210000Y-61300000D01*
X168010000Y-61300000D01*
X168010000Y-63700000D01*
%TO.C,D74*%
X157530000Y-62025000D02*
X157530000Y-61675000D01*
X156430000Y-61500000D02*
X156430000Y-61150000D01*
X156430000Y-61150000D02*
X156780000Y-61150000D01*
X156580000Y-63700000D02*
X158780000Y-63700000D01*
X158780000Y-61300000D01*
X156580000Y-61300000D01*
X156580000Y-63700000D01*
%TO.C,D73*%
X146100000Y-62025000D02*
X146100000Y-61675000D01*
X145000000Y-61500000D02*
X145000000Y-61150000D01*
X145000000Y-61150000D02*
X145350000Y-61150000D01*
X145150000Y-63700000D02*
X147350000Y-63700000D01*
X147350000Y-61300000D01*
X145150000Y-61300000D01*
X145150000Y-63700000D01*
%TO.C,D72*%
X225160000Y-52300000D02*
X227360000Y-52300000D01*
X227360000Y-49900000D01*
X225160000Y-49900000D01*
X225160000Y-52300000D01*
X225010000Y-49750000D02*
X225360000Y-49750000D01*
X225010000Y-50100000D02*
X225010000Y-49750000D01*
X226110000Y-50625000D02*
X226110000Y-50275000D01*
%TO.C,D71*%
X213730000Y-52300000D02*
X215930000Y-52300000D01*
X215930000Y-49900000D01*
X213730000Y-49900000D01*
X213730000Y-52300000D01*
X213580000Y-49750000D02*
X213930000Y-49750000D01*
X213580000Y-50100000D02*
X213580000Y-49750000D01*
X214680000Y-50625000D02*
X214680000Y-50275000D01*
%TO.C,D70*%
X202300000Y-52300000D02*
X204500000Y-52300000D01*
X204500000Y-49900000D01*
X202300000Y-49900000D01*
X202300000Y-52300000D01*
X202150000Y-49750000D02*
X202500000Y-49750000D01*
X202150000Y-50100000D02*
X202150000Y-49750000D01*
X203250000Y-50625000D02*
X203250000Y-50275000D01*
%TO.C,D69*%
X190870000Y-52300000D02*
X193070000Y-52300000D01*
X193070000Y-49900000D01*
X190870000Y-49900000D01*
X190870000Y-52300000D01*
X190720000Y-49750000D02*
X191070000Y-49750000D01*
X190720000Y-50100000D02*
X190720000Y-49750000D01*
X191820000Y-50625000D02*
X191820000Y-50275000D01*
%TO.C,D68*%
X179440000Y-52300000D02*
X181640000Y-52300000D01*
X181640000Y-49900000D01*
X179440000Y-49900000D01*
X179440000Y-52300000D01*
X179290000Y-49750000D02*
X179640000Y-49750000D01*
X179290000Y-50100000D02*
X179290000Y-49750000D01*
X180390000Y-50625000D02*
X180390000Y-50275000D01*
%TO.C,D67*%
X168010000Y-52300000D02*
X170210000Y-52300000D01*
X170210000Y-49900000D01*
X168010000Y-49900000D01*
X168010000Y-52300000D01*
X167860000Y-49750000D02*
X168210000Y-49750000D01*
X167860000Y-50100000D02*
X167860000Y-49750000D01*
X168960000Y-50625000D02*
X168960000Y-50275000D01*
%TO.C,D66*%
X156580000Y-52300000D02*
X158780000Y-52300000D01*
X158780000Y-49900000D01*
X156580000Y-49900000D01*
X156580000Y-52300000D01*
X156430000Y-49750000D02*
X156780000Y-49750000D01*
X156430000Y-50100000D02*
X156430000Y-49750000D01*
X157530000Y-50625000D02*
X157530000Y-50275000D01*
%TO.C,D1*%
X145150000Y-52300000D02*
X147350000Y-52300000D01*
X147350000Y-49900000D01*
X145150000Y-49900000D01*
X145150000Y-52300000D01*
X145000000Y-49750000D02*
X145350000Y-49750000D01*
X145000000Y-50100000D02*
X145000000Y-49750000D01*
X146100000Y-50625000D02*
X146100000Y-50275000D01*
D11*
%TO.C,SW64*%
X221095991Y-128345996D02*
X223095991Y-128345996D01*
X224395991Y-129345996D02*
X224845991Y-129795996D01*
X219795991Y-129345996D02*
X219345991Y-129795996D01*
X224845991Y-132395996D02*
X224845991Y-129795996D01*
X219345991Y-132395996D02*
X219345991Y-129795996D01*
X224395991Y-132845996D02*
X224845991Y-132395996D01*
X219795991Y-132845996D02*
X219345991Y-132395996D01*
X221095991Y-133845996D02*
X223095991Y-133845996D01*
%TO.C,SW63*%
X209665991Y-128345996D02*
X211665991Y-128345996D01*
X212965991Y-129345996D02*
X213415991Y-129795996D01*
X208365991Y-129345996D02*
X207915991Y-129795996D01*
X213415991Y-132395996D02*
X213415991Y-129795996D01*
X207915991Y-132395996D02*
X207915991Y-129795996D01*
X212965991Y-132845996D02*
X213415991Y-132395996D01*
X208365991Y-132845996D02*
X207915991Y-132395996D01*
X209665991Y-133845996D02*
X211665991Y-133845996D01*
%TO.C,SW62*%
X198235991Y-128345996D02*
X200235991Y-128345996D01*
X201535991Y-129345996D02*
X201985991Y-129795996D01*
X196935991Y-129345996D02*
X196485991Y-129795996D01*
X201985991Y-132395996D02*
X201985991Y-129795996D01*
X196485991Y-132395996D02*
X196485991Y-129795996D01*
X201535991Y-132845996D02*
X201985991Y-132395996D01*
X196935991Y-132845996D02*
X196485991Y-132395996D01*
X198235991Y-133845996D02*
X200235991Y-133845996D01*
%TO.C,SW61*%
X186805991Y-128345996D02*
X188805991Y-128345996D01*
X190105991Y-129345996D02*
X190555991Y-129795996D01*
X185505991Y-129345996D02*
X185055991Y-129795996D01*
X190555991Y-132395996D02*
X190555991Y-129795996D01*
X185055991Y-132395996D02*
X185055991Y-129795996D01*
X190105991Y-132845996D02*
X190555991Y-132395996D01*
X185505991Y-132845996D02*
X185055991Y-132395996D01*
X186805991Y-133845996D02*
X188805991Y-133845996D01*
%TO.C,SW60*%
X175375991Y-128345996D02*
X177375991Y-128345996D01*
X178675991Y-129345996D02*
X179125991Y-129795996D01*
X174075991Y-129345996D02*
X173625991Y-129795996D01*
X179125991Y-132395996D02*
X179125991Y-129795996D01*
X173625991Y-132395996D02*
X173625991Y-129795996D01*
X178675991Y-132845996D02*
X179125991Y-132395996D01*
X174075991Y-132845996D02*
X173625991Y-132395996D01*
X175375991Y-133845996D02*
X177375991Y-133845996D01*
%TO.C,SW59*%
X163945991Y-128345996D02*
X165945991Y-128345996D01*
X167245991Y-129345996D02*
X167695991Y-129795996D01*
X162645991Y-129345996D02*
X162195991Y-129795996D01*
X167695991Y-132395996D02*
X167695991Y-129795996D01*
X162195991Y-132395996D02*
X162195991Y-129795996D01*
X167245991Y-132845996D02*
X167695991Y-132395996D01*
X162645991Y-132845996D02*
X162195991Y-132395996D01*
X163945991Y-133845996D02*
X165945991Y-133845996D01*
%TO.C,SW58*%
X152515991Y-128345996D02*
X154515991Y-128345996D01*
X155815991Y-129345996D02*
X156265991Y-129795996D01*
X151215991Y-129345996D02*
X150765991Y-129795996D01*
X156265991Y-132395996D02*
X156265991Y-129795996D01*
X150765991Y-132395996D02*
X150765991Y-129795996D01*
X155815991Y-132845996D02*
X156265991Y-132395996D01*
X151215991Y-132845996D02*
X150765991Y-132395996D01*
X152515991Y-133845996D02*
X154515991Y-133845996D01*
%TO.C,SW57*%
X141085991Y-128345996D02*
X143085991Y-128345996D01*
X144385991Y-129345996D02*
X144835991Y-129795996D01*
X139785991Y-129345996D02*
X139335991Y-129795996D01*
X144835991Y-132395996D02*
X144835991Y-129795996D01*
X139335991Y-132395996D02*
X139335991Y-129795996D01*
X144385991Y-132845996D02*
X144835991Y-132395996D01*
X139785991Y-132845996D02*
X139335991Y-132395996D01*
X141085991Y-133845996D02*
X143085991Y-133845996D01*
%TO.C,SW56*%
X221095991Y-116915996D02*
X223095991Y-116915996D01*
X224395991Y-117915996D02*
X224845991Y-118365996D01*
X219795991Y-117915996D02*
X219345991Y-118365996D01*
X224845991Y-120965996D02*
X224845991Y-118365996D01*
X219345991Y-120965996D02*
X219345991Y-118365996D01*
X224395991Y-121415996D02*
X224845991Y-120965996D01*
X219795991Y-121415996D02*
X219345991Y-120965996D01*
X221095991Y-122415996D02*
X223095991Y-122415996D01*
%TO.C,SW55*%
X209665991Y-116915996D02*
X211665991Y-116915996D01*
X212965991Y-117915996D02*
X213415991Y-118365996D01*
X208365991Y-117915996D02*
X207915991Y-118365996D01*
X213415991Y-120965996D02*
X213415991Y-118365996D01*
X207915991Y-120965996D02*
X207915991Y-118365996D01*
X212965991Y-121415996D02*
X213415991Y-120965996D01*
X208365991Y-121415996D02*
X207915991Y-120965996D01*
X209665991Y-122415996D02*
X211665991Y-122415996D01*
%TO.C,SW54*%
X198235991Y-116915996D02*
X200235991Y-116915996D01*
X201535991Y-117915996D02*
X201985991Y-118365996D01*
X196935991Y-117915996D02*
X196485991Y-118365996D01*
X201985991Y-120965996D02*
X201985991Y-118365996D01*
X196485991Y-120965996D02*
X196485991Y-118365996D01*
X201535991Y-121415996D02*
X201985991Y-120965996D01*
X196935991Y-121415996D02*
X196485991Y-120965996D01*
X198235991Y-122415996D02*
X200235991Y-122415996D01*
%TO.C,SW53*%
X186805991Y-116915996D02*
X188805991Y-116915996D01*
X190105991Y-117915996D02*
X190555991Y-118365996D01*
X185505991Y-117915996D02*
X185055991Y-118365996D01*
X190555991Y-120965996D02*
X190555991Y-118365996D01*
X185055991Y-120965996D02*
X185055991Y-118365996D01*
X190105991Y-121415996D02*
X190555991Y-120965996D01*
X185505991Y-121415996D02*
X185055991Y-120965996D01*
X186805991Y-122415996D02*
X188805991Y-122415996D01*
%TO.C,SW52*%
X175375991Y-116915996D02*
X177375991Y-116915996D01*
X178675991Y-117915996D02*
X179125991Y-118365996D01*
X174075991Y-117915996D02*
X173625991Y-118365996D01*
X179125991Y-120965996D02*
X179125991Y-118365996D01*
X173625991Y-120965996D02*
X173625991Y-118365996D01*
X178675991Y-121415996D02*
X179125991Y-120965996D01*
X174075991Y-121415996D02*
X173625991Y-120965996D01*
X175375991Y-122415996D02*
X177375991Y-122415996D01*
%TO.C,SW51*%
X163945991Y-116915996D02*
X165945991Y-116915996D01*
X167245991Y-117915996D02*
X167695991Y-118365996D01*
X162645991Y-117915996D02*
X162195991Y-118365996D01*
X167695991Y-120965996D02*
X167695991Y-118365996D01*
X162195991Y-120965996D02*
X162195991Y-118365996D01*
X167245991Y-121415996D02*
X167695991Y-120965996D01*
X162645991Y-121415996D02*
X162195991Y-120965996D01*
X163945991Y-122415996D02*
X165945991Y-122415996D01*
%TO.C,SW50*%
X152515991Y-116915996D02*
X154515991Y-116915996D01*
X155815991Y-117915996D02*
X156265991Y-118365996D01*
X151215991Y-117915996D02*
X150765991Y-118365996D01*
X156265991Y-120965996D02*
X156265991Y-118365996D01*
X150765991Y-120965996D02*
X150765991Y-118365996D01*
X155815991Y-121415996D02*
X156265991Y-120965996D01*
X151215991Y-121415996D02*
X150765991Y-120965996D01*
X152515991Y-122415996D02*
X154515991Y-122415996D01*
%TO.C,SW49*%
X141085991Y-116915996D02*
X143085991Y-116915996D01*
X144385991Y-117915996D02*
X144835991Y-118365996D01*
X139785991Y-117915996D02*
X139335991Y-118365996D01*
X144835991Y-120965996D02*
X144835991Y-118365996D01*
X139335991Y-120965996D02*
X139335991Y-118365996D01*
X144385991Y-121415996D02*
X144835991Y-120965996D01*
X139785991Y-121415996D02*
X139335991Y-120965996D01*
X141085991Y-122415996D02*
X143085991Y-122415996D01*
%TO.C,SW48*%
X221095991Y-105485996D02*
X223095991Y-105485996D01*
X224395991Y-106485996D02*
X224845991Y-106935996D01*
X219795991Y-106485996D02*
X219345991Y-106935996D01*
X224845991Y-109535996D02*
X224845991Y-106935996D01*
X219345991Y-109535996D02*
X219345991Y-106935996D01*
X224395991Y-109985996D02*
X224845991Y-109535996D01*
X219795991Y-109985996D02*
X219345991Y-109535996D01*
X221095991Y-110985996D02*
X223095991Y-110985996D01*
%TO.C,SW47*%
X209665991Y-105485996D02*
X211665991Y-105485996D01*
X212965991Y-106485996D02*
X213415991Y-106935996D01*
X208365991Y-106485996D02*
X207915991Y-106935996D01*
X213415991Y-109535996D02*
X213415991Y-106935996D01*
X207915991Y-109535996D02*
X207915991Y-106935996D01*
X212965991Y-109985996D02*
X213415991Y-109535996D01*
X208365991Y-109985996D02*
X207915991Y-109535996D01*
X209665991Y-110985996D02*
X211665991Y-110985996D01*
%TO.C,SW46*%
X198235991Y-105485996D02*
X200235991Y-105485996D01*
X201535991Y-106485996D02*
X201985991Y-106935996D01*
X196935991Y-106485996D02*
X196485991Y-106935996D01*
X201985991Y-109535996D02*
X201985991Y-106935996D01*
X196485991Y-109535996D02*
X196485991Y-106935996D01*
X201535991Y-109985996D02*
X201985991Y-109535996D01*
X196935991Y-109985996D02*
X196485991Y-109535996D01*
X198235991Y-110985996D02*
X200235991Y-110985996D01*
%TO.C,SW45*%
X186805991Y-105485996D02*
X188805991Y-105485996D01*
X190105991Y-106485996D02*
X190555991Y-106935996D01*
X185505991Y-106485996D02*
X185055991Y-106935996D01*
X190555991Y-109535996D02*
X190555991Y-106935996D01*
X185055991Y-109535996D02*
X185055991Y-106935996D01*
X190105991Y-109985996D02*
X190555991Y-109535996D01*
X185505991Y-109985996D02*
X185055991Y-109535996D01*
X186805991Y-110985996D02*
X188805991Y-110985996D01*
%TO.C,SW44*%
X175375991Y-105485996D02*
X177375991Y-105485996D01*
X178675991Y-106485996D02*
X179125991Y-106935996D01*
X174075991Y-106485996D02*
X173625991Y-106935996D01*
X179125991Y-109535996D02*
X179125991Y-106935996D01*
X173625991Y-109535996D02*
X173625991Y-106935996D01*
X178675991Y-109985996D02*
X179125991Y-109535996D01*
X174075991Y-109985996D02*
X173625991Y-109535996D01*
X175375991Y-110985996D02*
X177375991Y-110985996D01*
%TO.C,SW43*%
X163945991Y-105485996D02*
X165945991Y-105485996D01*
X167245991Y-106485996D02*
X167695991Y-106935996D01*
X162645991Y-106485996D02*
X162195991Y-106935996D01*
X167695991Y-109535996D02*
X167695991Y-106935996D01*
X162195991Y-109535996D02*
X162195991Y-106935996D01*
X167245991Y-109985996D02*
X167695991Y-109535996D01*
X162645991Y-109985996D02*
X162195991Y-109535996D01*
X163945991Y-110985996D02*
X165945991Y-110985996D01*
%TO.C,SW42*%
X152515991Y-105485996D02*
X154515991Y-105485996D01*
X155815991Y-106485996D02*
X156265991Y-106935996D01*
X151215991Y-106485996D02*
X150765991Y-106935996D01*
X156265991Y-109535996D02*
X156265991Y-106935996D01*
X150765991Y-109535996D02*
X150765991Y-106935996D01*
X155815991Y-109985996D02*
X156265991Y-109535996D01*
X151215991Y-109985996D02*
X150765991Y-109535996D01*
X152515991Y-110985996D02*
X154515991Y-110985996D01*
%TO.C,SW41*%
X141085991Y-105485996D02*
X143085991Y-105485996D01*
X144385991Y-106485996D02*
X144835991Y-106935996D01*
X139785991Y-106485996D02*
X139335991Y-106935996D01*
X144835991Y-109535996D02*
X144835991Y-106935996D01*
X139335991Y-109535996D02*
X139335991Y-106935996D01*
X144385991Y-109985996D02*
X144835991Y-109535996D01*
X139785991Y-109985996D02*
X139335991Y-109535996D01*
X141085991Y-110985996D02*
X143085991Y-110985996D01*
%TO.C,SW40*%
X221095991Y-94055996D02*
X223095991Y-94055996D01*
X224395991Y-95055996D02*
X224845991Y-95505996D01*
X219795991Y-95055996D02*
X219345991Y-95505996D01*
X224845991Y-98105996D02*
X224845991Y-95505996D01*
X219345991Y-98105996D02*
X219345991Y-95505996D01*
X224395991Y-98555996D02*
X224845991Y-98105996D01*
X219795991Y-98555996D02*
X219345991Y-98105996D01*
X221095991Y-99555996D02*
X223095991Y-99555996D01*
%TO.C,SW39*%
X209665991Y-94055996D02*
X211665991Y-94055996D01*
X212965991Y-95055996D02*
X213415991Y-95505996D01*
X208365991Y-95055996D02*
X207915991Y-95505996D01*
X213415991Y-98105996D02*
X213415991Y-95505996D01*
X207915991Y-98105996D02*
X207915991Y-95505996D01*
X212965991Y-98555996D02*
X213415991Y-98105996D01*
X208365991Y-98555996D02*
X207915991Y-98105996D01*
X209665991Y-99555996D02*
X211665991Y-99555996D01*
%TO.C,SW38*%
X198235991Y-94055996D02*
X200235991Y-94055996D01*
X201535991Y-95055996D02*
X201985991Y-95505996D01*
X196935991Y-95055996D02*
X196485991Y-95505996D01*
X201985991Y-98105996D02*
X201985991Y-95505996D01*
X196485991Y-98105996D02*
X196485991Y-95505996D01*
X201535991Y-98555996D02*
X201985991Y-98105996D01*
X196935991Y-98555996D02*
X196485991Y-98105996D01*
X198235991Y-99555996D02*
X200235991Y-99555996D01*
%TO.C,SW37*%
X186805991Y-94055996D02*
X188805991Y-94055996D01*
X190105991Y-95055996D02*
X190555991Y-95505996D01*
X185505991Y-95055996D02*
X185055991Y-95505996D01*
X190555991Y-98105996D02*
X190555991Y-95505996D01*
X185055991Y-98105996D02*
X185055991Y-95505996D01*
X190105991Y-98555996D02*
X190555991Y-98105996D01*
X185505991Y-98555996D02*
X185055991Y-98105996D01*
X186805991Y-99555996D02*
X188805991Y-99555996D01*
%TO.C,SW36*%
X175375991Y-94055996D02*
X177375991Y-94055996D01*
X178675991Y-95055996D02*
X179125991Y-95505996D01*
X174075991Y-95055996D02*
X173625991Y-95505996D01*
X179125991Y-98105996D02*
X179125991Y-95505996D01*
X173625991Y-98105996D02*
X173625991Y-95505996D01*
X178675991Y-98555996D02*
X179125991Y-98105996D01*
X174075991Y-98555996D02*
X173625991Y-98105996D01*
X175375991Y-99555996D02*
X177375991Y-99555996D01*
%TO.C,SW35*%
X163945991Y-94055996D02*
X165945991Y-94055996D01*
X167245991Y-95055996D02*
X167695991Y-95505996D01*
X162645991Y-95055996D02*
X162195991Y-95505996D01*
X167695991Y-98105996D02*
X167695991Y-95505996D01*
X162195991Y-98105996D02*
X162195991Y-95505996D01*
X167245991Y-98555996D02*
X167695991Y-98105996D01*
X162645991Y-98555996D02*
X162195991Y-98105996D01*
X163945991Y-99555996D02*
X165945991Y-99555996D01*
%TO.C,SW34*%
X152515991Y-94055996D02*
X154515991Y-94055996D01*
X155815991Y-95055996D02*
X156265991Y-95505996D01*
X151215991Y-95055996D02*
X150765991Y-95505996D01*
X156265991Y-98105996D02*
X156265991Y-95505996D01*
X150765991Y-98105996D02*
X150765991Y-95505996D01*
X155815991Y-98555996D02*
X156265991Y-98105996D01*
X151215991Y-98555996D02*
X150765991Y-98105996D01*
X152515991Y-99555996D02*
X154515991Y-99555996D01*
%TO.C,SW33*%
X141085991Y-94055996D02*
X143085991Y-94055996D01*
X144385991Y-95055996D02*
X144835991Y-95505996D01*
X139785991Y-95055996D02*
X139335991Y-95505996D01*
X144835991Y-98105996D02*
X144835991Y-95505996D01*
X139335991Y-98105996D02*
X139335991Y-95505996D01*
X144385991Y-98555996D02*
X144835991Y-98105996D01*
X139785991Y-98555996D02*
X139335991Y-98105996D01*
X141085991Y-99555996D02*
X143085991Y-99555996D01*
%TO.C,SW32*%
X221095991Y-82600000D02*
X223095991Y-82600000D01*
X224395991Y-83600000D02*
X224845991Y-84050000D01*
X219795991Y-83600000D02*
X219345991Y-84050000D01*
X224845991Y-86650000D02*
X224845991Y-84050000D01*
X219345991Y-86650000D02*
X219345991Y-84050000D01*
X224395991Y-87100000D02*
X224845991Y-86650000D01*
X219795991Y-87100000D02*
X219345991Y-86650000D01*
X221095991Y-88100000D02*
X223095991Y-88100000D01*
%TO.C,SW31*%
X209665991Y-88100000D02*
X211665991Y-88100000D01*
X208365991Y-87100000D02*
X207915991Y-86650000D01*
X212965991Y-87100000D02*
X213415991Y-86650000D01*
X207915991Y-86650000D02*
X207915991Y-84050000D01*
X213415991Y-86650000D02*
X213415991Y-84050000D01*
X208365991Y-83600000D02*
X207915991Y-84050000D01*
X212965991Y-83600000D02*
X213415991Y-84050000D01*
X209665991Y-82600000D02*
X211665991Y-82600000D01*
%TO.C,SW30*%
X198235991Y-82625997D02*
X200235991Y-82625997D01*
X201535991Y-83625997D02*
X201985991Y-84075997D01*
X196935991Y-83625997D02*
X196485991Y-84075997D01*
X201985991Y-86675997D02*
X201985991Y-84075997D01*
X196485991Y-86675997D02*
X196485991Y-84075997D01*
X201535991Y-87125997D02*
X201985991Y-86675997D01*
X196935991Y-87125997D02*
X196485991Y-86675997D01*
X198235991Y-88125997D02*
X200235991Y-88125997D01*
%TO.C,SW29*%
X186805991Y-82625997D02*
X188805991Y-82625997D01*
X190105991Y-83625997D02*
X190555991Y-84075997D01*
X185505991Y-83625997D02*
X185055991Y-84075997D01*
X190555991Y-86675997D02*
X190555991Y-84075997D01*
X185055991Y-86675997D02*
X185055991Y-84075997D01*
X190105991Y-87125997D02*
X190555991Y-86675997D01*
X185505991Y-87125997D02*
X185055991Y-86675997D01*
X186805991Y-88125997D02*
X188805991Y-88125997D01*
%TO.C,SW28*%
X175375991Y-82625997D02*
X177375991Y-82625997D01*
X178675991Y-83625997D02*
X179125991Y-84075997D01*
X174075991Y-83625997D02*
X173625991Y-84075997D01*
X179125991Y-86675997D02*
X179125991Y-84075997D01*
X173625991Y-86675997D02*
X173625991Y-84075997D01*
X178675991Y-87125997D02*
X179125991Y-86675997D01*
X174075991Y-87125997D02*
X173625991Y-86675997D01*
X175375991Y-88125997D02*
X177375991Y-88125997D01*
%TO.C,SW27*%
X163945991Y-82625997D02*
X165945991Y-82625997D01*
X167245991Y-83625997D02*
X167695991Y-84075997D01*
X162645991Y-83625997D02*
X162195991Y-84075997D01*
X167695991Y-86675997D02*
X167695991Y-84075997D01*
X162195991Y-86675997D02*
X162195991Y-84075997D01*
X167245991Y-87125997D02*
X167695991Y-86675997D01*
X162645991Y-87125997D02*
X162195991Y-86675997D01*
X163945991Y-88125997D02*
X165945991Y-88125997D01*
%TO.C,SW26*%
X152515991Y-82625997D02*
X154515991Y-82625997D01*
X155815991Y-83625997D02*
X156265991Y-84075997D01*
X151215991Y-83625997D02*
X150765991Y-84075997D01*
X156265991Y-86675997D02*
X156265991Y-84075997D01*
X150765991Y-86675997D02*
X150765991Y-84075997D01*
X155815991Y-87125997D02*
X156265991Y-86675997D01*
X151215991Y-87125997D02*
X150765991Y-86675997D01*
X152515991Y-88125997D02*
X154515991Y-88125997D01*
%TO.C,SW25*%
X141085991Y-82625997D02*
X143085991Y-82625997D01*
X144385991Y-83625997D02*
X144835991Y-84075997D01*
X139785991Y-83625997D02*
X139335991Y-84075997D01*
X144835991Y-86675997D02*
X144835991Y-84075997D01*
X139335991Y-86675997D02*
X139335991Y-84075997D01*
X144385991Y-87125997D02*
X144835991Y-86675997D01*
X139785991Y-87125997D02*
X139335991Y-86675997D01*
X141085991Y-88125997D02*
X143085991Y-88125997D01*
%TO.C,SW24*%
X221095991Y-71200000D02*
X223095991Y-71200000D01*
X224395991Y-72200000D02*
X224845991Y-72650000D01*
X219795991Y-72200000D02*
X219345991Y-72650000D01*
X224845991Y-75250000D02*
X224845991Y-72650000D01*
X219345991Y-75250000D02*
X219345991Y-72650000D01*
X224395991Y-75700000D02*
X224845991Y-75250000D01*
X219795991Y-75700000D02*
X219345991Y-75250000D01*
X221095991Y-76700000D02*
X223095991Y-76700000D01*
%TO.C,SW23*%
X209665991Y-71200000D02*
X211665991Y-71200000D01*
X212965991Y-72200000D02*
X213415991Y-72650000D01*
X208365991Y-72200000D02*
X207915991Y-72650000D01*
X213415991Y-75250000D02*
X213415991Y-72650000D01*
X207915991Y-75250000D02*
X207915991Y-72650000D01*
X212965991Y-75700000D02*
X213415991Y-75250000D01*
X208365991Y-75700000D02*
X207915991Y-75250000D01*
X209665991Y-76700000D02*
X211665991Y-76700000D01*
%TO.C,SW22*%
X198235991Y-71200000D02*
X200235991Y-71200000D01*
X201535991Y-72200000D02*
X201985991Y-72650000D01*
X196935991Y-72200000D02*
X196485991Y-72650000D01*
X201985991Y-75250000D02*
X201985991Y-72650000D01*
X196485991Y-75250000D02*
X196485991Y-72650000D01*
X201535991Y-75700000D02*
X201985991Y-75250000D01*
X196935991Y-75700000D02*
X196485991Y-75250000D01*
X198235991Y-76700000D02*
X200235991Y-76700000D01*
%TO.C,SW21*%
X186805991Y-76700000D02*
X188805991Y-76700000D01*
X185505991Y-75700000D02*
X185055991Y-75250000D01*
X190105991Y-75700000D02*
X190555991Y-75250000D01*
X185055991Y-75250000D02*
X185055991Y-72650000D01*
X190555991Y-75250000D02*
X190555991Y-72650000D01*
X185505991Y-72200000D02*
X185055991Y-72650000D01*
X190105991Y-72200000D02*
X190555991Y-72650000D01*
X186805991Y-71200000D02*
X188805991Y-71200000D01*
%TO.C,SW20*%
X175375991Y-71200000D02*
X177375991Y-71200000D01*
X178675991Y-72200000D02*
X179125991Y-72650000D01*
X174075991Y-72200000D02*
X173625991Y-72650000D01*
X179125991Y-75250000D02*
X179125991Y-72650000D01*
X173625991Y-75250000D02*
X173625991Y-72650000D01*
X178675991Y-75700000D02*
X179125991Y-75250000D01*
X174075991Y-75700000D02*
X173625991Y-75250000D01*
X175375991Y-76700000D02*
X177375991Y-76700000D01*
%TO.C,SW19*%
X163945991Y-71200000D02*
X165945991Y-71200000D01*
X167245991Y-72200000D02*
X167695991Y-72650000D01*
X162645991Y-72200000D02*
X162195991Y-72650000D01*
X167695991Y-75250000D02*
X167695991Y-72650000D01*
X162195991Y-75250000D02*
X162195991Y-72650000D01*
X167245991Y-75700000D02*
X167695991Y-75250000D01*
X162645991Y-75700000D02*
X162195991Y-75250000D01*
X163945991Y-76700000D02*
X165945991Y-76700000D01*
%TO.C,SW18*%
X152515991Y-71200000D02*
X154515991Y-71200000D01*
X155815991Y-72200000D02*
X156265991Y-72650000D01*
X151215991Y-72200000D02*
X150765991Y-72650000D01*
X156265991Y-75250000D02*
X156265991Y-72650000D01*
X150765991Y-75250000D02*
X150765991Y-72650000D01*
X155815991Y-75700000D02*
X156265991Y-75250000D01*
X151215991Y-75700000D02*
X150765991Y-75250000D01*
X152515991Y-76700000D02*
X154515991Y-76700000D01*
%TO.C,SW17*%
X141085991Y-71200000D02*
X143085991Y-71200000D01*
X144385991Y-72200000D02*
X144835991Y-72650000D01*
X139785991Y-72200000D02*
X139335991Y-72650000D01*
X144835991Y-75250000D02*
X144835991Y-72650000D01*
X139335991Y-75250000D02*
X139335991Y-72650000D01*
X144385991Y-75700000D02*
X144835991Y-75250000D01*
X139785991Y-75700000D02*
X139335991Y-75250000D01*
X141085991Y-76700000D02*
X143085991Y-76700000D01*
%TO.C,SW16*%
X221095991Y-59750000D02*
X223095991Y-59750000D01*
X224395991Y-60750000D02*
X224845991Y-61200000D01*
X219795991Y-60750000D02*
X219345991Y-61200000D01*
X224845991Y-63800000D02*
X224845991Y-61200000D01*
X219345991Y-63800000D02*
X219345991Y-61200000D01*
X224395991Y-64250000D02*
X224845991Y-63800000D01*
X219795991Y-64250000D02*
X219345991Y-63800000D01*
X221095991Y-65250000D02*
X223095991Y-65250000D01*
%TO.C,SW15*%
X209665991Y-59750000D02*
X211665991Y-59750000D01*
X212965991Y-60750000D02*
X213415991Y-61200000D01*
X208365991Y-60750000D02*
X207915991Y-61200000D01*
X213415991Y-63800000D02*
X213415991Y-61200000D01*
X207915991Y-63800000D02*
X207915991Y-61200000D01*
X212965991Y-64250000D02*
X213415991Y-63800000D01*
X208365991Y-64250000D02*
X207915991Y-63800000D01*
X209665991Y-65250000D02*
X211665991Y-65250000D01*
%TO.C,SW14*%
X198235991Y-59750000D02*
X200235991Y-59750000D01*
X201535991Y-60750000D02*
X201985991Y-61200000D01*
X196935991Y-60750000D02*
X196485991Y-61200000D01*
X201985991Y-63800000D02*
X201985991Y-61200000D01*
X196485991Y-63800000D02*
X196485991Y-61200000D01*
X201535991Y-64250000D02*
X201985991Y-63800000D01*
X196935991Y-64250000D02*
X196485991Y-63800000D01*
X198235991Y-65250000D02*
X200235991Y-65250000D01*
%TO.C,SW13*%
X186805991Y-59750000D02*
X188805991Y-59750000D01*
X190105991Y-60750000D02*
X190555991Y-61200000D01*
X185505991Y-60750000D02*
X185055991Y-61200000D01*
X190555991Y-63800000D02*
X190555991Y-61200000D01*
X185055991Y-63800000D02*
X185055991Y-61200000D01*
X190105991Y-64250000D02*
X190555991Y-63800000D01*
X185505991Y-64250000D02*
X185055991Y-63800000D01*
X186805991Y-65250000D02*
X188805991Y-65250000D01*
%TO.C,SW12*%
X175375991Y-59750000D02*
X177375991Y-59750000D01*
X178675991Y-60750000D02*
X179125991Y-61200000D01*
X174075991Y-60750000D02*
X173625991Y-61200000D01*
X179125991Y-63800000D02*
X179125991Y-61200000D01*
X173625991Y-63800000D02*
X173625991Y-61200000D01*
X178675991Y-64250000D02*
X179125991Y-63800000D01*
X174075991Y-64250000D02*
X173625991Y-63800000D01*
X175375991Y-65250000D02*
X177375991Y-65250000D01*
%TO.C,SW11*%
X163945991Y-59750000D02*
X165945991Y-59750000D01*
X167245991Y-60750000D02*
X167695991Y-61200000D01*
X162645991Y-60750000D02*
X162195991Y-61200000D01*
X167695991Y-63800000D02*
X167695991Y-61200000D01*
X162195991Y-63800000D02*
X162195991Y-61200000D01*
X167245991Y-64250000D02*
X167695991Y-63800000D01*
X162645991Y-64250000D02*
X162195991Y-63800000D01*
X163945991Y-65250000D02*
X165945991Y-65250000D01*
%TO.C,SW10*%
X152515991Y-59750000D02*
X154515991Y-59750000D01*
X155815991Y-60750000D02*
X156265991Y-61200000D01*
X151215991Y-60750000D02*
X150765991Y-61200000D01*
X156265991Y-63800000D02*
X156265991Y-61200000D01*
X150765991Y-63800000D02*
X150765991Y-61200000D01*
X155815991Y-64250000D02*
X156265991Y-63800000D01*
X151215991Y-64250000D02*
X150765991Y-63800000D01*
X152515991Y-65250000D02*
X154515991Y-65250000D01*
%TO.C,SW9*%
X141085991Y-59750000D02*
X143085991Y-59750000D01*
X144385991Y-60750000D02*
X144835991Y-61200000D01*
X139785991Y-60750000D02*
X139335991Y-61200000D01*
X144835991Y-63800000D02*
X144835991Y-61200000D01*
X139335991Y-63800000D02*
X139335991Y-61200000D01*
X144385991Y-64250000D02*
X144835991Y-63800000D01*
X139785991Y-64250000D02*
X139335991Y-63800000D01*
X141085991Y-65250000D02*
X143085991Y-65250000D01*
%TO.C,SW8*%
X221095991Y-48350000D02*
X223095991Y-48350000D01*
X224395991Y-49350000D02*
X224845991Y-49800000D01*
X219795991Y-49350000D02*
X219345991Y-49800000D01*
X224845991Y-52400000D02*
X224845991Y-49800000D01*
X219345991Y-52400000D02*
X219345991Y-49800000D01*
X224395991Y-52850000D02*
X224845991Y-52400000D01*
X219795991Y-52850000D02*
X219345991Y-52400000D01*
X221095991Y-53850000D02*
X223095991Y-53850000D01*
%TO.C,SW7*%
X209665991Y-48350000D02*
X211665991Y-48350000D01*
X212965991Y-49350000D02*
X213415991Y-49800000D01*
X208365991Y-49350000D02*
X207915991Y-49800000D01*
X213415991Y-52400000D02*
X213415991Y-49800000D01*
X207915991Y-52400000D02*
X207915991Y-49800000D01*
X212965991Y-52850000D02*
X213415991Y-52400000D01*
X208365991Y-52850000D02*
X207915991Y-52400000D01*
X209665991Y-53850000D02*
X211665991Y-53850000D01*
%TO.C,SW6*%
X198235991Y-48350000D02*
X200235991Y-48350000D01*
X201535991Y-49350000D02*
X201985991Y-49800000D01*
X196935991Y-49350000D02*
X196485991Y-49800000D01*
X201985991Y-52400000D02*
X201985991Y-49800000D01*
X196485991Y-52400000D02*
X196485991Y-49800000D01*
X201535991Y-52850000D02*
X201985991Y-52400000D01*
X196935991Y-52850000D02*
X196485991Y-52400000D01*
X198235991Y-53850000D02*
X200235991Y-53850000D01*
%TO.C,SW5*%
X186805991Y-48350000D02*
X188805991Y-48350000D01*
X190105991Y-49350000D02*
X190555991Y-49800000D01*
X185505991Y-49350000D02*
X185055991Y-49800000D01*
X190555991Y-52400000D02*
X190555991Y-49800000D01*
X185055991Y-52400000D02*
X185055991Y-49800000D01*
X190105991Y-52850000D02*
X190555991Y-52400000D01*
X185505991Y-52850000D02*
X185055991Y-52400000D01*
X186805991Y-53850000D02*
X188805991Y-53850000D01*
%TO.C,SW4*%
X175375991Y-48350000D02*
X177375991Y-48350000D01*
X178675991Y-49350000D02*
X179125991Y-49800000D01*
X174075991Y-49350000D02*
X173625991Y-49800000D01*
X179125991Y-52400000D02*
X179125991Y-49800000D01*
X173625991Y-52400000D02*
X173625991Y-49800000D01*
X178675991Y-52850000D02*
X179125991Y-52400000D01*
X174075991Y-52850000D02*
X173625991Y-52400000D01*
X175375991Y-53850000D02*
X177375991Y-53850000D01*
%TO.C,SW3*%
X163945991Y-48350000D02*
X165945991Y-48350000D01*
X167245991Y-49350000D02*
X167695991Y-49800000D01*
X162645991Y-49350000D02*
X162195991Y-49800000D01*
X167695991Y-52400000D02*
X167695991Y-49800000D01*
X162195991Y-52400000D02*
X162195991Y-49800000D01*
X167245991Y-52850000D02*
X167695991Y-52400000D01*
X162645991Y-52850000D02*
X162195991Y-52400000D01*
X163945991Y-53850000D02*
X165945991Y-53850000D01*
%TO.C,SW2*%
X152515991Y-48350000D02*
X154515991Y-48350000D01*
X155815991Y-49350000D02*
X156265991Y-49800000D01*
X151215991Y-49350000D02*
X150765991Y-49800000D01*
X156265991Y-52400000D02*
X156265991Y-49800000D01*
X150765991Y-52400000D02*
X150765991Y-49800000D01*
X155815991Y-52850000D02*
X156265991Y-52400000D01*
X151215991Y-52850000D02*
X150765991Y-52400000D01*
X152515991Y-53850000D02*
X154515991Y-53850000D01*
%TO.C,D65*%
X219110000Y-132510000D02*
X219110000Y-129850000D01*
X217410000Y-132510000D02*
X217410000Y-129850000D01*
X217410000Y-132510000D02*
X219110000Y-132510000D01*
%TO.C,D64*%
X207680000Y-132510000D02*
X207680000Y-129850000D01*
X205980000Y-132510000D02*
X205980000Y-129850000D01*
X205980000Y-132510000D02*
X207680000Y-132510000D01*
%TO.C,D63*%
X196250000Y-132510000D02*
X196250000Y-129850000D01*
X194550000Y-132510000D02*
X194550000Y-129850000D01*
X194550000Y-132510000D02*
X196250000Y-132510000D01*
%TO.C,D62*%
X184820000Y-132510000D02*
X184820000Y-129850000D01*
X183120000Y-132510000D02*
X183120000Y-129850000D01*
X183120000Y-132510000D02*
X184820000Y-132510000D01*
%TO.C,D61*%
X173390000Y-132510000D02*
X173390000Y-129850000D01*
X171690000Y-132510000D02*
X171690000Y-129850000D01*
X171690000Y-132510000D02*
X173390000Y-132510000D01*
%TO.C,D60*%
X161960000Y-132510000D02*
X161960000Y-129850000D01*
X160260000Y-132510000D02*
X160260000Y-129850000D01*
X160260000Y-132510000D02*
X161960000Y-132510000D01*
%TO.C,D59*%
X150530000Y-132510000D02*
X150530000Y-129850000D01*
X148830000Y-132510000D02*
X148830000Y-129850000D01*
X148830000Y-132510000D02*
X150530000Y-132510000D01*
%TO.C,D58*%
X139100000Y-132510000D02*
X139100000Y-129850000D01*
X137400000Y-132510000D02*
X137400000Y-129850000D01*
X137400000Y-132510000D02*
X139100000Y-132510000D01*
%TO.C,D57*%
X219110000Y-121110000D02*
X219110000Y-118450000D01*
X217410000Y-121110000D02*
X217410000Y-118450000D01*
X217410000Y-121110000D02*
X219110000Y-121110000D01*
%TO.C,D56*%
X207680000Y-121110000D02*
X207680000Y-118450000D01*
X205980000Y-121110000D02*
X205980000Y-118450000D01*
X205980000Y-121110000D02*
X207680000Y-121110000D01*
%TO.C,D55*%
X196250000Y-121110000D02*
X196250000Y-118450000D01*
X194550000Y-121110000D02*
X194550000Y-118450000D01*
X194550000Y-121110000D02*
X196250000Y-121110000D01*
%TO.C,D54*%
X184820000Y-121110000D02*
X184820000Y-118450000D01*
X183120000Y-121110000D02*
X183120000Y-118450000D01*
X183120000Y-121110000D02*
X184820000Y-121110000D01*
%TO.C,D53*%
X173390000Y-121110000D02*
X173390000Y-118450000D01*
X171690000Y-121110000D02*
X171690000Y-118450000D01*
X171690000Y-121110000D02*
X173390000Y-121110000D01*
%TO.C,D52*%
X161960000Y-121110000D02*
X161960000Y-118450000D01*
X160260000Y-121110000D02*
X160260000Y-118450000D01*
X160260000Y-121110000D02*
X161960000Y-121110000D01*
%TO.C,D51*%
X150530000Y-121110000D02*
X150530000Y-118450000D01*
X148830000Y-121110000D02*
X148830000Y-118450000D01*
X148830000Y-121110000D02*
X150530000Y-121110000D01*
%TO.C,D50*%
X139100000Y-121110000D02*
X139100000Y-118450000D01*
X137400000Y-121110000D02*
X137400000Y-118450000D01*
X137400000Y-121110000D02*
X139100000Y-121110000D01*
%TO.C,D49*%
X219110000Y-109710000D02*
X219110000Y-107050000D01*
X217410000Y-109710000D02*
X217410000Y-107050000D01*
X217410000Y-109710000D02*
X219110000Y-109710000D01*
%TO.C,D48*%
X207680000Y-109710000D02*
X207680000Y-107050000D01*
X205980000Y-109710000D02*
X205980000Y-107050000D01*
X205980000Y-109710000D02*
X207680000Y-109710000D01*
%TO.C,D47*%
X196250000Y-109710000D02*
X196250000Y-107050000D01*
X194550000Y-109710000D02*
X194550000Y-107050000D01*
X194550000Y-109710000D02*
X196250000Y-109710000D01*
%TO.C,D46*%
X184820000Y-109710000D02*
X184820000Y-107050000D01*
X183120000Y-109710000D02*
X183120000Y-107050000D01*
X183120000Y-109710000D02*
X184820000Y-109710000D01*
%TO.C,D45*%
X173390000Y-109710000D02*
X173390000Y-107050000D01*
X171690000Y-109710000D02*
X171690000Y-107050000D01*
X171690000Y-109710000D02*
X173390000Y-109710000D01*
%TO.C,D44*%
X161960000Y-109710000D02*
X161960000Y-107050000D01*
X160260000Y-109710000D02*
X160260000Y-107050000D01*
X160260000Y-109710000D02*
X161960000Y-109710000D01*
%TO.C,D43*%
X150530000Y-109710000D02*
X150530000Y-107050000D01*
X148830000Y-109710000D02*
X148830000Y-107050000D01*
X148830000Y-109710000D02*
X150530000Y-109710000D01*
%TO.C,D42*%
X139100000Y-109710000D02*
X139100000Y-107050000D01*
X137400000Y-109710000D02*
X137400000Y-107050000D01*
X137400000Y-109710000D02*
X139100000Y-109710000D01*
%TO.C,D41*%
X219110000Y-98310000D02*
X219110000Y-95650000D01*
X217410000Y-98310000D02*
X217410000Y-95650000D01*
X217410000Y-98310000D02*
X219110000Y-98310000D01*
%TO.C,D40*%
X207680000Y-98310000D02*
X207680000Y-95650000D01*
X205980000Y-98310000D02*
X205980000Y-95650000D01*
X205980000Y-98310000D02*
X207680000Y-98310000D01*
%TO.C,D39*%
X196250000Y-98310000D02*
X196250000Y-95650000D01*
X194550000Y-98310000D02*
X194550000Y-95650000D01*
X194550000Y-98310000D02*
X196250000Y-98310000D01*
%TO.C,D38*%
X184820000Y-98310000D02*
X184820000Y-95650000D01*
X183120000Y-98310000D02*
X183120000Y-95650000D01*
X183120000Y-98310000D02*
X184820000Y-98310000D01*
%TO.C,D37*%
X173390000Y-98310000D02*
X173390000Y-95650000D01*
X171690000Y-98310000D02*
X171690000Y-95650000D01*
X171690000Y-98310000D02*
X173390000Y-98310000D01*
%TO.C,D36*%
X161960000Y-98310000D02*
X161960000Y-95650000D01*
X160260000Y-98310000D02*
X160260000Y-95650000D01*
X160260000Y-98310000D02*
X161960000Y-98310000D01*
%TO.C,D35*%
X150530000Y-98310000D02*
X150530000Y-95650000D01*
X148830000Y-98310000D02*
X148830000Y-95650000D01*
X148830000Y-98310000D02*
X150530000Y-98310000D01*
%TO.C,D34*%
X139100000Y-98310000D02*
X139100000Y-95650000D01*
X137400000Y-98310000D02*
X137400000Y-95650000D01*
X137400000Y-98310000D02*
X139100000Y-98310000D01*
%TO.C,D33*%
X219110000Y-86910000D02*
X219110000Y-84250000D01*
X217410000Y-86910000D02*
X217410000Y-84250000D01*
X217410000Y-86910000D02*
X219110000Y-86910000D01*
%TO.C,D31*%
X196250000Y-86910000D02*
X196250000Y-84250000D01*
X194550000Y-86910000D02*
X194550000Y-84250000D01*
X194550000Y-86910000D02*
X196250000Y-86910000D01*
%TO.C,D30*%
X184820000Y-86910000D02*
X184820000Y-84250000D01*
X183120000Y-86910000D02*
X183120000Y-84250000D01*
X183120000Y-86910000D02*
X184820000Y-86910000D01*
%TO.C,D29*%
X173390000Y-86910000D02*
X173390000Y-84250000D01*
X171690000Y-86910000D02*
X171690000Y-84250000D01*
X171690000Y-86910000D02*
X173390000Y-86910000D01*
%TO.C,D28*%
X161960000Y-86910000D02*
X161960000Y-84250000D01*
X160260000Y-86910000D02*
X160260000Y-84250000D01*
X160260000Y-86910000D02*
X161960000Y-86910000D01*
%TO.C,D27*%
X150530000Y-86910000D02*
X150530000Y-84250000D01*
X148830000Y-86910000D02*
X148830000Y-84250000D01*
X148830000Y-86910000D02*
X150530000Y-86910000D01*
%TO.C,D26*%
X139100000Y-86910000D02*
X139100000Y-84250000D01*
X137400000Y-86910000D02*
X137400000Y-84250000D01*
X137400000Y-86910000D02*
X139100000Y-86910000D01*
%TO.C,D25*%
X219110000Y-75510000D02*
X219110000Y-72850000D01*
X217410000Y-75510000D02*
X217410000Y-72850000D01*
X217410000Y-75510000D02*
X219110000Y-75510000D01*
%TO.C,D24*%
X207680000Y-75510000D02*
X207680000Y-72850000D01*
X205980000Y-75510000D02*
X205980000Y-72850000D01*
X205980000Y-75510000D02*
X207680000Y-75510000D01*
%TO.C,D23*%
X196250000Y-75510000D02*
X196250000Y-72850000D01*
X194550000Y-75510000D02*
X194550000Y-72850000D01*
X194550000Y-75510000D02*
X196250000Y-75510000D01*
%TO.C,D22*%
X184820000Y-75510000D02*
X184820000Y-72850000D01*
X183120000Y-75510000D02*
X183120000Y-72850000D01*
X183120000Y-75510000D02*
X184820000Y-75510000D01*
%TO.C,D21*%
X173390000Y-75510000D02*
X173390000Y-72850000D01*
X171690000Y-75510000D02*
X171690000Y-72850000D01*
X171690000Y-75510000D02*
X173390000Y-75510000D01*
%TO.C,D20*%
X161960000Y-75510000D02*
X161960000Y-72850000D01*
X160260000Y-75510000D02*
X160260000Y-72850000D01*
X160260000Y-75510000D02*
X161960000Y-75510000D01*
%TO.C,D19*%
X150530000Y-75510000D02*
X150530000Y-72850000D01*
X148830000Y-75510000D02*
X148830000Y-72850000D01*
X148830000Y-75510000D02*
X150530000Y-75510000D01*
%TO.C,D18*%
X139100000Y-75510000D02*
X139100000Y-72850000D01*
X137400000Y-75510000D02*
X137400000Y-72850000D01*
X137400000Y-75510000D02*
X139100000Y-75510000D01*
%TO.C,D17*%
X219110000Y-64110000D02*
X219110000Y-61450000D01*
X217410000Y-64110000D02*
X217410000Y-61450000D01*
X217410000Y-64110000D02*
X219110000Y-64110000D01*
%TO.C,D16*%
X207680000Y-64110000D02*
X207680000Y-61450000D01*
X205980000Y-64110000D02*
X205980000Y-61450000D01*
X205980000Y-64110000D02*
X207680000Y-64110000D01*
%TO.C,D15*%
X196250000Y-64110000D02*
X196250000Y-61450000D01*
X194550000Y-64110000D02*
X194550000Y-61450000D01*
X194550000Y-64110000D02*
X196250000Y-64110000D01*
%TO.C,D14*%
X184820000Y-64110000D02*
X184820000Y-61450000D01*
X183120000Y-64110000D02*
X183120000Y-61450000D01*
X183120000Y-64110000D02*
X184820000Y-64110000D01*
%TO.C,D13*%
X173390000Y-64110000D02*
X173390000Y-61450000D01*
X171690000Y-64110000D02*
X171690000Y-61450000D01*
X171690000Y-64110000D02*
X173390000Y-64110000D01*
%TO.C,D12*%
X161960000Y-64110000D02*
X161960000Y-61450000D01*
X160260000Y-64110000D02*
X160260000Y-61450000D01*
X160260000Y-64110000D02*
X161960000Y-64110000D01*
%TO.C,D11*%
X150530000Y-64110000D02*
X150530000Y-61450000D01*
X148830000Y-64110000D02*
X148830000Y-61450000D01*
X148830000Y-64110000D02*
X150530000Y-64110000D01*
%TO.C,D10*%
X139100000Y-64110000D02*
X139100000Y-61450000D01*
X137400000Y-64110000D02*
X137400000Y-61450000D01*
X137400000Y-64110000D02*
X139100000Y-64110000D01*
%TO.C,D9*%
X219110000Y-52710000D02*
X219110000Y-50050000D01*
X217410000Y-52710000D02*
X217410000Y-50050000D01*
X217410000Y-52710000D02*
X219110000Y-52710000D01*
%TO.C,D8*%
X207680000Y-52710000D02*
X207680000Y-50050000D01*
X205980000Y-52710000D02*
X205980000Y-50050000D01*
X205980000Y-52710000D02*
X207680000Y-52710000D01*
%TO.C,D7*%
X196250000Y-52710000D02*
X196250000Y-50050000D01*
X194550000Y-52710000D02*
X194550000Y-50050000D01*
X194550000Y-52710000D02*
X196250000Y-52710000D01*
%TO.C,D6*%
X184820000Y-52710000D02*
X184820000Y-50050000D01*
X183120000Y-52710000D02*
X183120000Y-50050000D01*
X183120000Y-52710000D02*
X184820000Y-52710000D01*
%TO.C,D5*%
X171690000Y-52710000D02*
X173390000Y-52710000D01*
X171690000Y-52710000D02*
X171690000Y-50050000D01*
X173390000Y-52710000D02*
X173390000Y-50050000D01*
%TO.C,D2*%
X139100000Y-52710000D02*
X139100000Y-50050000D01*
X137400000Y-52710000D02*
X137400000Y-50050000D01*
X137400000Y-52710000D02*
X139100000Y-52710000D01*
%TO.C,D3*%
X150530000Y-52710000D02*
X150530000Y-50050000D01*
X148830000Y-52710000D02*
X148830000Y-50050000D01*
X148830000Y-52710000D02*
X150530000Y-52710000D01*
%TO.C,C64*%
X226650580Y-128290000D02*
X226369420Y-128290000D01*
X226650580Y-129310000D02*
X226369420Y-129310000D01*
%TO.C,C63*%
X215220580Y-128290000D02*
X214939420Y-128290000D01*
X215220580Y-129310000D02*
X214939420Y-129310000D01*
%TO.C,C62*%
X203790580Y-128290000D02*
X203509420Y-128290000D01*
X203790580Y-129310000D02*
X203509420Y-129310000D01*
%TO.C,C61*%
X192360580Y-128290000D02*
X192079420Y-128290000D01*
X192360580Y-129310000D02*
X192079420Y-129310000D01*
%TO.C,C60*%
X180930580Y-128290000D02*
X180649420Y-128290000D01*
X180930580Y-129310000D02*
X180649420Y-129310000D01*
%TO.C,C59*%
X169500580Y-128290000D02*
X169219420Y-128290000D01*
X169500580Y-129310000D02*
X169219420Y-129310000D01*
%TO.C,C58*%
X158070580Y-128290000D02*
X157789420Y-128290000D01*
X158070580Y-129310000D02*
X157789420Y-129310000D01*
%TO.C,C57*%
X146640580Y-128290000D02*
X146359420Y-128290000D01*
X146640580Y-129310000D02*
X146359420Y-129310000D01*
%TO.C,C56*%
X226650580Y-116890000D02*
X226369420Y-116890000D01*
X226650580Y-117910000D02*
X226369420Y-117910000D01*
%TO.C,C55*%
X215220580Y-116890000D02*
X214939420Y-116890000D01*
X215220580Y-117910000D02*
X214939420Y-117910000D01*
%TO.C,C54*%
X203790580Y-116890000D02*
X203509420Y-116890000D01*
X203790580Y-117910000D02*
X203509420Y-117910000D01*
%TO.C,C53*%
X192360580Y-116890000D02*
X192079420Y-116890000D01*
X192360580Y-117910000D02*
X192079420Y-117910000D01*
%TO.C,C52*%
X180930580Y-116890000D02*
X180649420Y-116890000D01*
X180930580Y-117910000D02*
X180649420Y-117910000D01*
%TO.C,C51*%
X169500580Y-116890000D02*
X169219420Y-116890000D01*
X169500580Y-117910000D02*
X169219420Y-117910000D01*
%TO.C,C50*%
X158070580Y-116890000D02*
X157789420Y-116890000D01*
X158070580Y-117910000D02*
X157789420Y-117910000D01*
%TO.C,C49*%
X146640580Y-116890000D02*
X146359420Y-116890000D01*
X146640580Y-117910000D02*
X146359420Y-117910000D01*
%TO.C,C48*%
X226650580Y-105490000D02*
X226369420Y-105490000D01*
X226650580Y-106510000D02*
X226369420Y-106510000D01*
%TO.C,C47*%
X215220580Y-105490000D02*
X214939420Y-105490000D01*
X215220580Y-106510000D02*
X214939420Y-106510000D01*
%TO.C,C46*%
X203790580Y-105490000D02*
X203509420Y-105490000D01*
X203790580Y-106510000D02*
X203509420Y-106510000D01*
%TO.C,C45*%
X192360580Y-105490000D02*
X192079420Y-105490000D01*
X192360580Y-106510000D02*
X192079420Y-106510000D01*
%TO.C,C44*%
X180930580Y-105490000D02*
X180649420Y-105490000D01*
X180930580Y-106510000D02*
X180649420Y-106510000D01*
%TO.C,C43*%
X169500580Y-105490000D02*
X169219420Y-105490000D01*
X169500580Y-106510000D02*
X169219420Y-106510000D01*
%TO.C,C42*%
X158070580Y-105490000D02*
X157789420Y-105490000D01*
X158070580Y-106510000D02*
X157789420Y-106510000D01*
%TO.C,C41*%
X146640580Y-105490000D02*
X146359420Y-105490000D01*
X146640580Y-106510000D02*
X146359420Y-106510000D01*
%TO.C,C40*%
X226650580Y-94090000D02*
X226369420Y-94090000D01*
X226650580Y-95110000D02*
X226369420Y-95110000D01*
%TO.C,C39*%
X215220580Y-94090000D02*
X214939420Y-94090000D01*
X215220580Y-95110000D02*
X214939420Y-95110000D01*
%TO.C,C38*%
X203790580Y-94090000D02*
X203509420Y-94090000D01*
X203790580Y-95110000D02*
X203509420Y-95110000D01*
%TO.C,C37*%
X192360580Y-94090000D02*
X192079420Y-94090000D01*
X192360580Y-95110000D02*
X192079420Y-95110000D01*
%TO.C,C36*%
X180930580Y-94090000D02*
X180649420Y-94090000D01*
X180930580Y-95110000D02*
X180649420Y-95110000D01*
%TO.C,C35*%
X169500580Y-94090000D02*
X169219420Y-94090000D01*
X169500580Y-95110000D02*
X169219420Y-95110000D01*
%TO.C,C34*%
X158070580Y-94090000D02*
X157789420Y-94090000D01*
X158070580Y-95110000D02*
X157789420Y-95110000D01*
%TO.C,C33*%
X146640580Y-94090000D02*
X146359420Y-94090000D01*
X146640580Y-95110000D02*
X146359420Y-95110000D01*
%TO.C,C32*%
X226650580Y-82690000D02*
X226369420Y-82690000D01*
X226650580Y-83710000D02*
X226369420Y-83710000D01*
%TO.C,C31*%
X215220580Y-82690000D02*
X214939420Y-82690000D01*
X215220580Y-83710000D02*
X214939420Y-83710000D01*
%TO.C,C30*%
X203790580Y-82690000D02*
X203509420Y-82690000D01*
X203790580Y-83710000D02*
X203509420Y-83710000D01*
%TO.C,C29*%
X192360580Y-82690000D02*
X192079420Y-82690000D01*
X192360580Y-83710000D02*
X192079420Y-83710000D01*
%TO.C,C28*%
X180930580Y-82690000D02*
X180649420Y-82690000D01*
X180930580Y-83710000D02*
X180649420Y-83710000D01*
%TO.C,C27*%
X169500580Y-82690000D02*
X169219420Y-82690000D01*
X169500580Y-83710000D02*
X169219420Y-83710000D01*
%TO.C,C26*%
X158070580Y-82690000D02*
X157789420Y-82690000D01*
X158070580Y-83710000D02*
X157789420Y-83710000D01*
%TO.C,C25*%
X146640580Y-82690000D02*
X146359420Y-82690000D01*
X146640580Y-83710000D02*
X146359420Y-83710000D01*
%TO.C,C24*%
X226650580Y-71290000D02*
X226369420Y-71290000D01*
X226650580Y-72310000D02*
X226369420Y-72310000D01*
%TO.C,C23*%
X215220580Y-71290000D02*
X214939420Y-71290000D01*
X215220580Y-72310000D02*
X214939420Y-72310000D01*
%TO.C,C22*%
X203790580Y-71290000D02*
X203509420Y-71290000D01*
X203790580Y-72310000D02*
X203509420Y-72310000D01*
%TO.C,C21*%
X192360580Y-71290000D02*
X192079420Y-71290000D01*
X192360580Y-72310000D02*
X192079420Y-72310000D01*
%TO.C,C20*%
X180930580Y-71290000D02*
X180649420Y-71290000D01*
X180930580Y-72310000D02*
X180649420Y-72310000D01*
%TO.C,C19*%
X169500580Y-71290000D02*
X169219420Y-71290000D01*
X169500580Y-72310000D02*
X169219420Y-72310000D01*
%TO.C,C18*%
X158070580Y-71290000D02*
X157789420Y-71290000D01*
X158070580Y-72310000D02*
X157789420Y-72310000D01*
%TO.C,C17*%
X146640580Y-71290000D02*
X146359420Y-71290000D01*
X146640580Y-72310000D02*
X146359420Y-72310000D01*
%TO.C,C16*%
X226650580Y-59890000D02*
X226369420Y-59890000D01*
X226650580Y-60910000D02*
X226369420Y-60910000D01*
%TO.C,C15*%
X215220580Y-59890000D02*
X214939420Y-59890000D01*
X215220580Y-60910000D02*
X214939420Y-60910000D01*
%TO.C,C14*%
X203790580Y-59890000D02*
X203509420Y-59890000D01*
X203790580Y-60910000D02*
X203509420Y-60910000D01*
%TO.C,C13*%
X192360580Y-59890000D02*
X192079420Y-59890000D01*
X192360580Y-60910000D02*
X192079420Y-60910000D01*
%TO.C,C12*%
X180930580Y-59890000D02*
X180649420Y-59890000D01*
X180930580Y-60910000D02*
X180649420Y-60910000D01*
%TO.C,C11*%
X169500580Y-59890000D02*
X169219420Y-59890000D01*
X169500580Y-60910000D02*
X169219420Y-60910000D01*
%TO.C,C10*%
X158070580Y-59890000D02*
X157789420Y-59890000D01*
X158070580Y-60910000D02*
X157789420Y-60910000D01*
%TO.C,C9*%
X146640580Y-59890000D02*
X146359420Y-59890000D01*
X146640580Y-60910000D02*
X146359420Y-60910000D01*
%TO.C,C8*%
X226650580Y-48490000D02*
X226369420Y-48490000D01*
X226650580Y-49510000D02*
X226369420Y-49510000D01*
%TO.C,C7*%
X215220580Y-48490000D02*
X214939420Y-48490000D01*
X215220580Y-49510000D02*
X214939420Y-49510000D01*
%TO.C,C6*%
X203790580Y-48490000D02*
X203509420Y-48490000D01*
X203790580Y-49510000D02*
X203509420Y-49510000D01*
%TO.C,C5*%
X192360580Y-48490000D02*
X192079420Y-48490000D01*
X192360580Y-49510000D02*
X192079420Y-49510000D01*
%TO.C,C4*%
X180930580Y-48490000D02*
X180649420Y-48490000D01*
X180930580Y-49510000D02*
X180649420Y-49510000D01*
%TO.C,C3*%
X169500580Y-48490000D02*
X169219420Y-48490000D01*
X169500580Y-49510000D02*
X169219420Y-49510000D01*
%TO.C,C2*%
X158070580Y-48490000D02*
X157789420Y-48490000D01*
X158070580Y-49510000D02*
X157789420Y-49510000D01*
%TO.C,C1*%
X146640580Y-48490000D02*
X146359420Y-48490000D01*
X146640580Y-49510000D02*
X146359420Y-49510000D01*
%TO.C,SW1*%
X141085991Y-48350000D02*
X143085991Y-48350000D01*
X144385991Y-49350000D02*
X144835991Y-49800000D01*
X139785991Y-49350000D02*
X139335991Y-49800000D01*
X144835991Y-52400000D02*
X144835991Y-49800000D01*
X139335991Y-52400000D02*
X139335991Y-49800000D01*
X144385991Y-52850000D02*
X144835991Y-52400000D01*
X139785991Y-52850000D02*
X139335991Y-52400000D01*
X141085991Y-53850000D02*
X143085991Y-53850000D01*
%TO.C,D4*%
X161960000Y-52710000D02*
X161960000Y-50050000D01*
X160260000Y-52710000D02*
X160260000Y-50050000D01*
X160260000Y-52710000D02*
X161960000Y-52710000D01*
%TO.C,D32*%
X207680000Y-86910000D02*
X207680000Y-84250000D01*
X205980000Y-86910000D02*
X205980000Y-84250000D01*
X205980000Y-86910000D02*
X207680000Y-86910000D01*
%TD*%
%LPC*%
D13*
%TO.C,U2*%
X134752000Y-55118000D03*
X136652000Y-55118000D03*
X136652000Y-57818000D03*
X135702000Y-57818000D03*
X134752000Y-57818000D03*
%TD*%
D14*
%TO.C,C65*%
X134620000Y-53353000D03*
X134620000Y-51803000D03*
%TD*%
D15*
%TO.C,U1*%
X134350000Y-65575000D03*
D16*
X137380000Y-65875000D03*
X137380000Y-70725000D03*
D15*
X134350000Y-71025000D03*
%TD*%
D17*
%TO.C,D128*%
X226860000Y-131550000D03*
X225660000Y-131550000D03*
X225660000Y-130250000D03*
X226860000Y-130250000D03*
%TD*%
%TO.C,D120*%
X226860000Y-120150000D03*
X225660000Y-120150000D03*
X225660000Y-118850000D03*
X226860000Y-118850000D03*
%TD*%
%TO.C,D112*%
X226860000Y-108750000D03*
X225660000Y-108750000D03*
X225660000Y-107450000D03*
X226860000Y-107450000D03*
%TD*%
%TO.C,D104*%
X226860000Y-97350000D03*
X225660000Y-97350000D03*
X225660000Y-96050000D03*
X226860000Y-96050000D03*
%TD*%
%TO.C,D127*%
X215430000Y-131550000D03*
X214230000Y-131550000D03*
X214230000Y-130250000D03*
X215430000Y-130250000D03*
%TD*%
%TO.C,D119*%
X215430000Y-120150000D03*
X214230000Y-120150000D03*
X214230000Y-118850000D03*
X215430000Y-118850000D03*
%TD*%
%TO.C,D111*%
X215430000Y-108750000D03*
X214230000Y-108750000D03*
X214230000Y-107450000D03*
X215430000Y-107450000D03*
%TD*%
%TO.C,D103*%
X215430000Y-97350000D03*
X214230000Y-97350000D03*
X214230000Y-96050000D03*
X215430000Y-96050000D03*
%TD*%
%TO.C,D126*%
X204000000Y-131550000D03*
X202800000Y-131550000D03*
X202800000Y-130250000D03*
X204000000Y-130250000D03*
%TD*%
%TO.C,D118*%
X204000000Y-120150000D03*
X202800000Y-120150000D03*
X202800000Y-118850000D03*
X204000000Y-118850000D03*
%TD*%
%TO.C,D110*%
X204000000Y-108750000D03*
X202800000Y-108750000D03*
X202800000Y-107450000D03*
X204000000Y-107450000D03*
%TD*%
%TO.C,D102*%
X204000000Y-97350000D03*
X202800000Y-97350000D03*
X202800000Y-96050000D03*
X204000000Y-96050000D03*
%TD*%
%TO.C,D125*%
X192570000Y-131550000D03*
X191370000Y-131550000D03*
X191370000Y-130250000D03*
X192570000Y-130250000D03*
%TD*%
%TO.C,D117*%
X192570000Y-120150000D03*
X191370000Y-120150000D03*
X191370000Y-118850000D03*
X192570000Y-118850000D03*
%TD*%
%TO.C,D109*%
X192570000Y-108750000D03*
X191370000Y-108750000D03*
X191370000Y-107450000D03*
X192570000Y-107450000D03*
%TD*%
%TO.C,D101*%
X192570000Y-97350000D03*
X191370000Y-97350000D03*
X191370000Y-96050000D03*
X192570000Y-96050000D03*
%TD*%
%TO.C,D124*%
X181140000Y-131550000D03*
X179940000Y-131550000D03*
X179940000Y-130250000D03*
X181140000Y-130250000D03*
%TD*%
%TO.C,D116*%
X181140000Y-120150000D03*
X179940000Y-120150000D03*
X179940000Y-118850000D03*
X181140000Y-118850000D03*
%TD*%
%TO.C,D108*%
X181140000Y-108750000D03*
X179940000Y-108750000D03*
X179940000Y-107450000D03*
X181140000Y-107450000D03*
%TD*%
%TO.C,D100*%
X181140000Y-97350000D03*
X179940000Y-97350000D03*
X179940000Y-96050000D03*
X181140000Y-96050000D03*
%TD*%
%TO.C,D123*%
X169710000Y-131550000D03*
X168510000Y-131550000D03*
X168510000Y-130250000D03*
X169710000Y-130250000D03*
%TD*%
%TO.C,D115*%
X169710000Y-120150000D03*
X168510000Y-120150000D03*
X168510000Y-118850000D03*
X169710000Y-118850000D03*
%TD*%
%TO.C,D107*%
X169710000Y-108750000D03*
X168510000Y-108750000D03*
X168510000Y-107450000D03*
X169710000Y-107450000D03*
%TD*%
%TO.C,D99*%
X169710000Y-97350000D03*
X168510000Y-97350000D03*
X168510000Y-96050000D03*
X169710000Y-96050000D03*
%TD*%
%TO.C,D122*%
X158280000Y-131550000D03*
X157080000Y-131550000D03*
X157080000Y-130250000D03*
X158280000Y-130250000D03*
%TD*%
%TO.C,D114*%
X158280000Y-120150000D03*
X157080000Y-120150000D03*
X157080000Y-118850000D03*
X158280000Y-118850000D03*
%TD*%
%TO.C,D106*%
X158280000Y-108750000D03*
X157080000Y-108750000D03*
X157080000Y-107450000D03*
X158280000Y-107450000D03*
%TD*%
%TO.C,D98*%
X158280000Y-97350000D03*
X157080000Y-97350000D03*
X157080000Y-96050000D03*
X158280000Y-96050000D03*
%TD*%
%TO.C,D121*%
X146850000Y-131550000D03*
X145650000Y-131550000D03*
X145650000Y-130250000D03*
X146850000Y-130250000D03*
%TD*%
%TO.C,D113*%
X146850000Y-120150000D03*
X145650000Y-120150000D03*
X145650000Y-118850000D03*
X146850000Y-118850000D03*
%TD*%
%TO.C,D105*%
X146850000Y-108750000D03*
X145650000Y-108750000D03*
X145650000Y-107450000D03*
X146850000Y-107450000D03*
%TD*%
%TO.C,D97*%
X146850000Y-97350000D03*
X145650000Y-97350000D03*
X145650000Y-96050000D03*
X146850000Y-96050000D03*
%TD*%
%TO.C,D96*%
X226860000Y-85950000D03*
X225660000Y-85950000D03*
X225660000Y-84650000D03*
X226860000Y-84650000D03*
%TD*%
%TO.C,D95*%
X215430000Y-85950000D03*
X214230000Y-85950000D03*
X214230000Y-84650000D03*
X215430000Y-84650000D03*
%TD*%
%TO.C,D94*%
X204000000Y-85950000D03*
X202800000Y-85950000D03*
X202800000Y-84650000D03*
X204000000Y-84650000D03*
%TD*%
%TO.C,D93*%
X192570000Y-85950000D03*
X191370000Y-85950000D03*
X191370000Y-84650000D03*
X192570000Y-84650000D03*
%TD*%
%TO.C,D92*%
X181140000Y-85950000D03*
X179940000Y-85950000D03*
X179940000Y-84650000D03*
X181140000Y-84650000D03*
%TD*%
%TO.C,D91*%
X169710000Y-85950000D03*
X168510000Y-85950000D03*
X168510000Y-84650000D03*
X169710000Y-84650000D03*
%TD*%
%TO.C,D90*%
X158280000Y-85950000D03*
X157080000Y-85950000D03*
X157080000Y-84650000D03*
X158280000Y-84650000D03*
%TD*%
%TO.C,D89*%
X146850000Y-85950000D03*
X145650000Y-85950000D03*
X145650000Y-84650000D03*
X146850000Y-84650000D03*
%TD*%
%TO.C,D88*%
X226860000Y-74550000D03*
X225660000Y-74550000D03*
X225660000Y-73250000D03*
X226860000Y-73250000D03*
%TD*%
%TO.C,D87*%
X215430000Y-74550000D03*
X214230000Y-74550000D03*
X214230000Y-73250000D03*
X215430000Y-73250000D03*
%TD*%
%TO.C,D86*%
X204000000Y-74550000D03*
X202800000Y-74550000D03*
X202800000Y-73250000D03*
X204000000Y-73250000D03*
%TD*%
%TO.C,D85*%
X192570000Y-74550000D03*
X191370000Y-74550000D03*
X191370000Y-73250000D03*
X192570000Y-73250000D03*
%TD*%
%TO.C,D84*%
X181140000Y-74550000D03*
X179940000Y-74550000D03*
X179940000Y-73250000D03*
X181140000Y-73250000D03*
%TD*%
%TO.C,D83*%
X169710000Y-74550000D03*
X168510000Y-74550000D03*
X168510000Y-73250000D03*
X169710000Y-73250000D03*
%TD*%
%TO.C,D82*%
X158280000Y-74550000D03*
X157080000Y-74550000D03*
X157080000Y-73250000D03*
X158280000Y-73250000D03*
%TD*%
%TO.C,D81*%
X146850000Y-74550000D03*
X145650000Y-74550000D03*
X145650000Y-73250000D03*
X146850000Y-73250000D03*
%TD*%
%TO.C,D80*%
X226860000Y-61850000D03*
X225660000Y-61850000D03*
X225660000Y-63150000D03*
X226860000Y-63150000D03*
%TD*%
%TO.C,D79*%
X215430000Y-61850000D03*
X214230000Y-61850000D03*
X214230000Y-63150000D03*
X215430000Y-63150000D03*
%TD*%
%TO.C,D78*%
X204000000Y-61850000D03*
X202800000Y-61850000D03*
X202800000Y-63150000D03*
X204000000Y-63150000D03*
%TD*%
%TO.C,D77*%
X192570000Y-61850000D03*
X191370000Y-61850000D03*
X191370000Y-63150000D03*
X192570000Y-63150000D03*
%TD*%
%TO.C,D76*%
X181140000Y-61850000D03*
X179940000Y-61850000D03*
X179940000Y-63150000D03*
X181140000Y-63150000D03*
%TD*%
%TO.C,D75*%
X169710000Y-61850000D03*
X168510000Y-61850000D03*
X168510000Y-63150000D03*
X169710000Y-63150000D03*
%TD*%
%TO.C,D74*%
X158280000Y-61850000D03*
X157080000Y-61850000D03*
X157080000Y-63150000D03*
X158280000Y-63150000D03*
%TD*%
%TO.C,D73*%
X146850000Y-61850000D03*
X145650000Y-61850000D03*
X145650000Y-63150000D03*
X146850000Y-63150000D03*
%TD*%
%TO.C,D72*%
X226860000Y-51750000D03*
X225660000Y-51750000D03*
X225660000Y-50450000D03*
X226860000Y-50450000D03*
%TD*%
%TO.C,D71*%
X215430000Y-51750000D03*
X214230000Y-51750000D03*
X214230000Y-50450000D03*
X215430000Y-50450000D03*
%TD*%
%TO.C,D70*%
X204000000Y-51750000D03*
X202800000Y-51750000D03*
X202800000Y-50450000D03*
X204000000Y-50450000D03*
%TD*%
%TO.C,D69*%
X192570000Y-51750000D03*
X191370000Y-51750000D03*
X191370000Y-50450000D03*
X192570000Y-50450000D03*
%TD*%
%TO.C,D68*%
X181140000Y-51750000D03*
X179940000Y-51750000D03*
X179940000Y-50450000D03*
X181140000Y-50450000D03*
%TD*%
%TO.C,D67*%
X169710000Y-51750000D03*
X168510000Y-51750000D03*
X168510000Y-50450000D03*
X169710000Y-50450000D03*
%TD*%
%TO.C,D66*%
X158280000Y-51750000D03*
X157080000Y-51750000D03*
X157080000Y-50450000D03*
X158280000Y-50450000D03*
%TD*%
%TO.C,D1*%
X146850000Y-51750000D03*
X145650000Y-51750000D03*
X145650000Y-50450000D03*
X146850000Y-50450000D03*
%TD*%
D18*
%TO.C,SW64*%
X223970991Y-128095996D03*
X223970991Y-134095996D03*
X220220991Y-128095996D03*
X220220991Y-134095996D03*
%TD*%
%TO.C,SW63*%
X212540991Y-128095996D03*
X212540991Y-134095996D03*
X208790991Y-128095996D03*
X208790991Y-134095996D03*
%TD*%
%TO.C,SW62*%
X201110991Y-128095996D03*
X201110991Y-134095996D03*
X197360991Y-128095996D03*
X197360991Y-134095996D03*
%TD*%
%TO.C,SW61*%
X189680991Y-128095996D03*
X189680991Y-134095996D03*
X185930991Y-128095996D03*
X185930991Y-134095996D03*
%TD*%
%TO.C,SW60*%
X178250991Y-128095996D03*
X178250991Y-134095996D03*
X174500991Y-128095996D03*
X174500991Y-134095996D03*
%TD*%
%TO.C,SW59*%
X166820991Y-128095996D03*
X166820991Y-134095996D03*
X163070991Y-128095996D03*
X163070991Y-134095996D03*
%TD*%
%TO.C,SW58*%
X155390991Y-128095996D03*
X155390991Y-134095996D03*
X151640991Y-128095996D03*
X151640991Y-134095996D03*
%TD*%
%TO.C,SW57*%
X143960991Y-128095996D03*
X143960991Y-134095996D03*
X140210991Y-128095996D03*
X140210991Y-134095996D03*
%TD*%
%TO.C,SW56*%
X223970991Y-116665996D03*
X223970991Y-122665996D03*
X220220991Y-116665996D03*
X220220991Y-122665996D03*
%TD*%
%TO.C,SW55*%
X212540991Y-116665996D03*
X212540991Y-122665996D03*
X208790991Y-116665996D03*
X208790991Y-122665996D03*
%TD*%
%TO.C,SW54*%
X201110991Y-116665996D03*
X201110991Y-122665996D03*
X197360991Y-116665996D03*
X197360991Y-122665996D03*
%TD*%
%TO.C,SW53*%
X189680991Y-116665996D03*
X189680991Y-122665996D03*
X185930991Y-116665996D03*
X185930991Y-122665996D03*
%TD*%
%TO.C,SW52*%
X178250991Y-116665996D03*
X178250991Y-122665996D03*
X174500991Y-116665996D03*
X174500991Y-122665996D03*
%TD*%
%TO.C,SW51*%
X166820991Y-116665996D03*
X166820991Y-122665996D03*
X163070991Y-116665996D03*
X163070991Y-122665996D03*
%TD*%
%TO.C,SW50*%
X155390991Y-116665996D03*
X155390991Y-122665996D03*
X151640991Y-116665996D03*
X151640991Y-122665996D03*
%TD*%
%TO.C,SW49*%
X143960991Y-116665996D03*
X143960991Y-122665996D03*
X140210991Y-116665996D03*
X140210991Y-122665996D03*
%TD*%
%TO.C,SW48*%
X223970991Y-105235996D03*
X223970991Y-111235996D03*
X220220991Y-105235996D03*
X220220991Y-111235996D03*
%TD*%
%TO.C,SW47*%
X212540991Y-105235996D03*
X212540991Y-111235996D03*
X208790991Y-105235996D03*
X208790991Y-111235996D03*
%TD*%
%TO.C,SW46*%
X201110991Y-105235996D03*
X201110991Y-111235996D03*
X197360991Y-105235996D03*
X197360991Y-111235996D03*
%TD*%
%TO.C,SW45*%
X189680991Y-105235996D03*
X189680991Y-111235996D03*
X185930991Y-105235996D03*
X185930991Y-111235996D03*
%TD*%
%TO.C,SW44*%
X178250991Y-105235996D03*
X178250991Y-111235996D03*
X174500991Y-105235996D03*
X174500991Y-111235996D03*
%TD*%
%TO.C,SW43*%
X166820991Y-105235996D03*
X166820991Y-111235996D03*
X163070991Y-105235996D03*
X163070991Y-111235996D03*
%TD*%
%TO.C,SW42*%
X155390991Y-105235996D03*
X155390991Y-111235996D03*
X151640991Y-105235996D03*
X151640991Y-111235996D03*
%TD*%
%TO.C,SW41*%
X143960991Y-105235996D03*
X143960991Y-111235996D03*
X140210991Y-105235996D03*
X140210991Y-111235996D03*
%TD*%
%TO.C,SW40*%
X223970991Y-93805996D03*
X223970991Y-99805996D03*
X220220991Y-93805996D03*
X220220991Y-99805996D03*
%TD*%
%TO.C,SW39*%
X212540991Y-93805996D03*
X212540991Y-99805996D03*
X208790991Y-93805996D03*
X208790991Y-99805996D03*
%TD*%
%TO.C,SW38*%
X201110991Y-93805996D03*
X201110991Y-99805996D03*
X197360991Y-93805996D03*
X197360991Y-99805996D03*
%TD*%
%TO.C,SW37*%
X189680991Y-93805996D03*
X189680991Y-99805996D03*
X185930991Y-93805996D03*
X185930991Y-99805996D03*
%TD*%
%TO.C,SW36*%
X178250991Y-93805996D03*
X178250991Y-99805996D03*
X174500991Y-93805996D03*
X174500991Y-99805996D03*
%TD*%
%TO.C,SW35*%
X166820991Y-93805996D03*
X166820991Y-99805996D03*
X163070991Y-93805996D03*
X163070991Y-99805996D03*
%TD*%
%TO.C,SW34*%
X155390991Y-93805996D03*
X155390991Y-99805996D03*
X151640991Y-93805996D03*
X151640991Y-99805996D03*
%TD*%
%TO.C,SW33*%
X143960991Y-93805996D03*
X143960991Y-99805996D03*
X140210991Y-93805996D03*
X140210991Y-99805996D03*
%TD*%
%TO.C,SW32*%
X223970991Y-82350000D03*
X223970991Y-88350000D03*
X220220991Y-82350000D03*
X220220991Y-88350000D03*
%TD*%
%TO.C,SW31*%
X208790991Y-88350000D03*
X208790991Y-82350000D03*
X212540991Y-88350000D03*
X212540991Y-82350000D03*
%TD*%
%TO.C,SW30*%
X201110991Y-82375997D03*
X201110991Y-88375997D03*
X197360991Y-82375997D03*
X197360991Y-88375997D03*
%TD*%
%TO.C,SW29*%
X189680991Y-82375997D03*
X189680991Y-88375997D03*
X185930991Y-82375997D03*
X185930991Y-88375997D03*
%TD*%
%TO.C,SW28*%
X178250991Y-82375997D03*
X178250991Y-88375997D03*
X174500991Y-82375997D03*
X174500991Y-88375997D03*
%TD*%
%TO.C,SW27*%
X166820991Y-82375997D03*
X166820991Y-88375997D03*
X163070991Y-82375997D03*
X163070991Y-88375997D03*
%TD*%
%TO.C,SW26*%
X155390991Y-82375997D03*
X155390991Y-88375997D03*
X151640991Y-82375997D03*
X151640991Y-88375997D03*
%TD*%
%TO.C,SW25*%
X143960991Y-82375997D03*
X143960991Y-88375997D03*
X140210991Y-82375997D03*
X140210991Y-88375997D03*
%TD*%
%TO.C,SW24*%
X223970991Y-70950000D03*
X223970991Y-76950000D03*
X220220991Y-70950000D03*
X220220991Y-76950000D03*
%TD*%
%TO.C,SW23*%
X212540991Y-70950000D03*
X212540991Y-76950000D03*
X208790991Y-70950000D03*
X208790991Y-76950000D03*
%TD*%
%TO.C,SW22*%
X201110991Y-70950000D03*
X201110991Y-76950000D03*
X197360991Y-70950000D03*
X197360991Y-76950000D03*
%TD*%
%TO.C,SW21*%
X185930991Y-76950000D03*
X185930991Y-70950000D03*
X189680991Y-76950000D03*
X189680991Y-70950000D03*
%TD*%
%TO.C,SW20*%
X178250991Y-70950000D03*
X178250991Y-76950000D03*
X174500991Y-70950000D03*
X174500991Y-76950000D03*
%TD*%
%TO.C,SW19*%
X166820991Y-70950000D03*
X166820991Y-76950000D03*
X163070991Y-70950000D03*
X163070991Y-76950000D03*
%TD*%
%TO.C,SW18*%
X155390991Y-70950000D03*
X155390991Y-76950000D03*
X151640991Y-70950000D03*
X151640991Y-76950000D03*
%TD*%
%TO.C,SW17*%
X143960991Y-70950000D03*
X143960991Y-76950000D03*
X140210991Y-70950000D03*
X140210991Y-76950000D03*
%TD*%
%TO.C,SW16*%
X223970991Y-59500000D03*
X223970991Y-65500000D03*
X220220991Y-59500000D03*
X220220991Y-65500000D03*
%TD*%
%TO.C,SW15*%
X212540991Y-59500000D03*
X212540991Y-65500000D03*
X208790991Y-59500000D03*
X208790991Y-65500000D03*
%TD*%
%TO.C,SW14*%
X201110991Y-59500000D03*
X201110991Y-65500000D03*
X197360991Y-59500000D03*
X197360991Y-65500000D03*
%TD*%
%TO.C,SW13*%
X189680991Y-59500000D03*
X189680991Y-65500000D03*
X185930991Y-59500000D03*
X185930991Y-65500000D03*
%TD*%
%TO.C,SW12*%
X178250991Y-59500000D03*
X178250991Y-65500000D03*
X174500991Y-59500000D03*
X174500991Y-65500000D03*
%TD*%
%TO.C,SW11*%
X166820991Y-59500000D03*
X166820991Y-65500000D03*
X163070991Y-59500000D03*
X163070991Y-65500000D03*
%TD*%
%TO.C,SW10*%
X155390991Y-59500000D03*
X155390991Y-65500000D03*
X151640991Y-59500000D03*
X151640991Y-65500000D03*
%TD*%
%TO.C,SW9*%
X143960991Y-59500000D03*
X143960991Y-65500000D03*
X140210991Y-59500000D03*
X140210991Y-65500000D03*
%TD*%
%TO.C,SW8*%
X223970991Y-48100000D03*
X223970991Y-54100000D03*
X220220991Y-48100000D03*
X220220991Y-54100000D03*
%TD*%
%TO.C,SW7*%
X212540991Y-48100000D03*
X212540991Y-54100000D03*
X208790991Y-48100000D03*
X208790991Y-54100000D03*
%TD*%
%TO.C,SW6*%
X201110991Y-48100000D03*
X201110991Y-54100000D03*
X197360991Y-48100000D03*
X197360991Y-54100000D03*
%TD*%
%TO.C,SW5*%
X189680991Y-48100000D03*
X189680991Y-54100000D03*
X185930991Y-48100000D03*
X185930991Y-54100000D03*
%TD*%
%TO.C,SW4*%
X178250991Y-48100000D03*
X178250991Y-54100000D03*
X174500991Y-48100000D03*
X174500991Y-54100000D03*
%TD*%
%TO.C,SW3*%
X166820991Y-48100000D03*
X166820991Y-54100000D03*
X163070991Y-48100000D03*
X163070991Y-54100000D03*
%TD*%
%TO.C,SW2*%
X155390991Y-48100000D03*
X155390991Y-54100000D03*
X151640991Y-48100000D03*
X151640991Y-54100000D03*
%TD*%
D19*
%TO.C,H5*%
X182090991Y-91090997D03*
%TD*%
%TO.C,H4*%
X227590991Y-45590997D03*
%TD*%
%TO.C,H3*%
X227590991Y-136590997D03*
%TD*%
%TO.C,H2*%
X136590991Y-136590997D03*
%TD*%
%TO.C,H1*%
X136590991Y-45590997D03*
%TD*%
D20*
%TO.C,D65*%
X218260000Y-129850000D03*
X218260000Y-131950000D03*
%TD*%
%TO.C,D64*%
X206830000Y-129850000D03*
X206830000Y-131950000D03*
%TD*%
%TO.C,D63*%
X195400000Y-129850000D03*
X195400000Y-131950000D03*
%TD*%
%TO.C,D62*%
X183970000Y-129850000D03*
X183970000Y-131950000D03*
%TD*%
%TO.C,D61*%
X172540000Y-129850000D03*
X172540000Y-131950000D03*
%TD*%
%TO.C,D60*%
X161110000Y-129850000D03*
X161110000Y-131950000D03*
%TD*%
%TO.C,D59*%
X149680000Y-129850000D03*
X149680000Y-131950000D03*
%TD*%
%TO.C,D58*%
X138250000Y-129850000D03*
X138250000Y-131950000D03*
%TD*%
%TO.C,D57*%
X218260000Y-118450000D03*
X218260000Y-120550000D03*
%TD*%
%TO.C,D56*%
X206830000Y-118450000D03*
X206830000Y-120550000D03*
%TD*%
%TO.C,D55*%
X195400000Y-118450000D03*
X195400000Y-120550000D03*
%TD*%
%TO.C,D54*%
X183970000Y-118450000D03*
X183970000Y-120550000D03*
%TD*%
%TO.C,D53*%
X172540000Y-118450000D03*
X172540000Y-120550000D03*
%TD*%
%TO.C,D52*%
X161110000Y-118450000D03*
X161110000Y-120550000D03*
%TD*%
%TO.C,D51*%
X149680000Y-118450000D03*
X149680000Y-120550000D03*
%TD*%
%TO.C,D50*%
X138250000Y-118450000D03*
X138250000Y-120550000D03*
%TD*%
%TO.C,D49*%
X218260000Y-107050000D03*
X218260000Y-109150000D03*
%TD*%
%TO.C,D48*%
X206830000Y-107050000D03*
X206830000Y-109150000D03*
%TD*%
%TO.C,D47*%
X195400000Y-107050000D03*
X195400000Y-109150000D03*
%TD*%
%TO.C,D46*%
X183970000Y-107050000D03*
X183970000Y-109150000D03*
%TD*%
%TO.C,D45*%
X172540000Y-107050000D03*
X172540000Y-109150000D03*
%TD*%
%TO.C,D44*%
X161110000Y-107050000D03*
X161110000Y-109150000D03*
%TD*%
%TO.C,D43*%
X149680000Y-107050000D03*
X149680000Y-109150000D03*
%TD*%
%TO.C,D42*%
X138250000Y-107050000D03*
X138250000Y-109150000D03*
%TD*%
%TO.C,D41*%
X218260000Y-95650000D03*
X218260000Y-97750000D03*
%TD*%
%TO.C,D40*%
X206830000Y-95650000D03*
X206830000Y-97750000D03*
%TD*%
%TO.C,D39*%
X195400000Y-95650000D03*
X195400000Y-97750000D03*
%TD*%
%TO.C,D38*%
X183970000Y-95650000D03*
X183970000Y-97750000D03*
%TD*%
%TO.C,D37*%
X172540000Y-95650000D03*
X172540000Y-97750000D03*
%TD*%
%TO.C,D36*%
X161110000Y-95650000D03*
X161110000Y-97750000D03*
%TD*%
%TO.C,D35*%
X149680000Y-95650000D03*
X149680000Y-97750000D03*
%TD*%
%TO.C,D34*%
X138250000Y-95650000D03*
X138250000Y-97750000D03*
%TD*%
%TO.C,D33*%
X218260000Y-84250000D03*
X218260000Y-86350000D03*
%TD*%
%TO.C,D31*%
X195400000Y-84250000D03*
X195400000Y-86350000D03*
%TD*%
%TO.C,D30*%
X183970000Y-84250000D03*
X183970000Y-86350000D03*
%TD*%
%TO.C,D29*%
X172540000Y-84250000D03*
X172540000Y-86350000D03*
%TD*%
%TO.C,D28*%
X161110000Y-84250000D03*
X161110000Y-86350000D03*
%TD*%
%TO.C,D27*%
X149680000Y-84250000D03*
X149680000Y-86350000D03*
%TD*%
%TO.C,D26*%
X138250000Y-84250000D03*
X138250000Y-86350000D03*
%TD*%
%TO.C,D25*%
X218260000Y-72850000D03*
X218260000Y-74950000D03*
%TD*%
%TO.C,D24*%
X206830000Y-72850000D03*
X206830000Y-74950000D03*
%TD*%
%TO.C,D23*%
X195400000Y-72850000D03*
X195400000Y-74950000D03*
%TD*%
%TO.C,D22*%
X183970000Y-72850000D03*
X183970000Y-74950000D03*
%TD*%
%TO.C,D21*%
X172540000Y-72850000D03*
X172540000Y-74950000D03*
%TD*%
%TO.C,D20*%
X161110000Y-72850000D03*
X161110000Y-74950000D03*
%TD*%
%TO.C,D19*%
X149680000Y-72850000D03*
X149680000Y-74950000D03*
%TD*%
%TO.C,D18*%
X138250000Y-72850000D03*
X138250000Y-74950000D03*
%TD*%
%TO.C,D17*%
X218260000Y-61450000D03*
X218260000Y-63550000D03*
%TD*%
%TO.C,D16*%
X206830000Y-61450000D03*
X206830000Y-63550000D03*
%TD*%
%TO.C,D15*%
X195400000Y-61450000D03*
X195400000Y-63550000D03*
%TD*%
%TO.C,D14*%
X183970000Y-61450000D03*
X183970000Y-63550000D03*
%TD*%
%TO.C,D13*%
X172540000Y-61450000D03*
X172540000Y-63550000D03*
%TD*%
%TO.C,D12*%
X161110000Y-61450000D03*
X161110000Y-63550000D03*
%TD*%
%TO.C,D11*%
X149680000Y-61450000D03*
X149680000Y-63550000D03*
%TD*%
%TO.C,D10*%
X138250000Y-61450000D03*
X138250000Y-63550000D03*
%TD*%
%TO.C,D9*%
X218260000Y-50050000D03*
X218260000Y-52150000D03*
%TD*%
%TO.C,D8*%
X206830000Y-50050000D03*
X206830000Y-52150000D03*
%TD*%
%TO.C,D7*%
X195400000Y-50050000D03*
X195400000Y-52150000D03*
%TD*%
%TO.C,D6*%
X183970000Y-50050000D03*
X183970000Y-52150000D03*
%TD*%
%TO.C,D5*%
X172540000Y-52150000D03*
X172540000Y-50050000D03*
%TD*%
%TO.C,D2*%
X138250000Y-50050000D03*
X138250000Y-52150000D03*
%TD*%
%TO.C,D3*%
X149680000Y-50050000D03*
X149680000Y-52150000D03*
%TD*%
D21*
%TO.C,C64*%
X225735000Y-128800000D03*
X227285000Y-128800000D03*
%TD*%
%TO.C,C63*%
X214305000Y-128800000D03*
X215855000Y-128800000D03*
%TD*%
%TO.C,C62*%
X202875000Y-128800000D03*
X204425000Y-128800000D03*
%TD*%
%TO.C,C61*%
X191445000Y-128800000D03*
X192995000Y-128800000D03*
%TD*%
%TO.C,C60*%
X180015000Y-128800000D03*
X181565000Y-128800000D03*
%TD*%
%TO.C,C59*%
X168585000Y-128800000D03*
X170135000Y-128800000D03*
%TD*%
%TO.C,C58*%
X157155000Y-128800000D03*
X158705000Y-128800000D03*
%TD*%
%TO.C,C57*%
X145725000Y-128800000D03*
X147275000Y-128800000D03*
%TD*%
%TO.C,C56*%
X225735000Y-117400000D03*
X227285000Y-117400000D03*
%TD*%
%TO.C,C55*%
X214305000Y-117400000D03*
X215855000Y-117400000D03*
%TD*%
%TO.C,C54*%
X202875000Y-117400000D03*
X204425000Y-117400000D03*
%TD*%
%TO.C,C53*%
X191445000Y-117400000D03*
X192995000Y-117400000D03*
%TD*%
%TO.C,C52*%
X180015000Y-117400000D03*
X181565000Y-117400000D03*
%TD*%
%TO.C,C51*%
X168585000Y-117400000D03*
X170135000Y-117400000D03*
%TD*%
%TO.C,C50*%
X157155000Y-117400000D03*
X158705000Y-117400000D03*
%TD*%
%TO.C,C49*%
X145725000Y-117400000D03*
X147275000Y-117400000D03*
%TD*%
%TO.C,C48*%
X225735000Y-106000000D03*
X227285000Y-106000000D03*
%TD*%
%TO.C,C47*%
X214305000Y-106000000D03*
X215855000Y-106000000D03*
%TD*%
%TO.C,C46*%
X202875000Y-106000000D03*
X204425000Y-106000000D03*
%TD*%
%TO.C,C45*%
X191445000Y-106000000D03*
X192995000Y-106000000D03*
%TD*%
%TO.C,C44*%
X180015000Y-106000000D03*
X181565000Y-106000000D03*
%TD*%
%TO.C,C43*%
X168585000Y-106000000D03*
X170135000Y-106000000D03*
%TD*%
%TO.C,C42*%
X157155000Y-106000000D03*
X158705000Y-106000000D03*
%TD*%
%TO.C,C41*%
X145725000Y-106000000D03*
X147275000Y-106000000D03*
%TD*%
%TO.C,C40*%
X225735000Y-94600000D03*
X227285000Y-94600000D03*
%TD*%
%TO.C,C39*%
X214305000Y-94600000D03*
X215855000Y-94600000D03*
%TD*%
%TO.C,C38*%
X202875000Y-94600000D03*
X204425000Y-94600000D03*
%TD*%
%TO.C,C37*%
X191445000Y-94600000D03*
X192995000Y-94600000D03*
%TD*%
%TO.C,C36*%
X180015000Y-94600000D03*
X181565000Y-94600000D03*
%TD*%
%TO.C,C35*%
X168585000Y-94600000D03*
X170135000Y-94600000D03*
%TD*%
%TO.C,C34*%
X157155000Y-94600000D03*
X158705000Y-94600000D03*
%TD*%
%TO.C,C33*%
X145725000Y-94600000D03*
X147275000Y-94600000D03*
%TD*%
%TO.C,C32*%
X225735000Y-83200000D03*
X227285000Y-83200000D03*
%TD*%
%TO.C,C31*%
X214305000Y-83200000D03*
X215855000Y-83200000D03*
%TD*%
%TO.C,C30*%
X202875000Y-83200000D03*
X204425000Y-83200000D03*
%TD*%
%TO.C,C29*%
X191445000Y-83200000D03*
X192995000Y-83200000D03*
%TD*%
%TO.C,C28*%
X180015000Y-83200000D03*
X181565000Y-83200000D03*
%TD*%
%TO.C,C27*%
X168585000Y-83200000D03*
X170135000Y-83200000D03*
%TD*%
%TO.C,C26*%
X157155000Y-83200000D03*
X158705000Y-83200000D03*
%TD*%
%TO.C,C25*%
X145725000Y-83200000D03*
X147275000Y-83200000D03*
%TD*%
%TO.C,C24*%
X225735000Y-71800000D03*
X227285000Y-71800000D03*
%TD*%
%TO.C,C23*%
X214305000Y-71800000D03*
X215855000Y-71800000D03*
%TD*%
%TO.C,C22*%
X202875000Y-71800000D03*
X204425000Y-71800000D03*
%TD*%
%TO.C,C21*%
X191445000Y-71800000D03*
X192995000Y-71800000D03*
%TD*%
%TO.C,C20*%
X180015000Y-71800000D03*
X181565000Y-71800000D03*
%TD*%
%TO.C,C19*%
X168585000Y-71800000D03*
X170135000Y-71800000D03*
%TD*%
%TO.C,C18*%
X157155000Y-71800000D03*
X158705000Y-71800000D03*
%TD*%
%TO.C,C17*%
X145725000Y-71800000D03*
X147275000Y-71800000D03*
%TD*%
%TO.C,C16*%
X225735000Y-60400000D03*
X227285000Y-60400000D03*
%TD*%
%TO.C,C15*%
X214305000Y-60400000D03*
X215855000Y-60400000D03*
%TD*%
%TO.C,C14*%
X202875000Y-60400000D03*
X204425000Y-60400000D03*
%TD*%
%TO.C,C13*%
X191445000Y-60400000D03*
X192995000Y-60400000D03*
%TD*%
%TO.C,C12*%
X180015000Y-60400000D03*
X181565000Y-60400000D03*
%TD*%
%TO.C,C11*%
X168585000Y-60400000D03*
X170135000Y-60400000D03*
%TD*%
%TO.C,C10*%
X157155000Y-60400000D03*
X158705000Y-60400000D03*
%TD*%
%TO.C,C9*%
X145725000Y-60400000D03*
X147275000Y-60400000D03*
%TD*%
%TO.C,C8*%
X225735000Y-49000000D03*
X227285000Y-49000000D03*
%TD*%
%TO.C,C7*%
X214305000Y-49000000D03*
X215855000Y-49000000D03*
%TD*%
%TO.C,C6*%
X202875000Y-49000000D03*
X204425000Y-49000000D03*
%TD*%
%TO.C,C5*%
X191445000Y-49000000D03*
X192995000Y-49000000D03*
%TD*%
%TO.C,C4*%
X180015000Y-49000000D03*
X181565000Y-49000000D03*
%TD*%
%TO.C,C3*%
X168585000Y-49000000D03*
X170135000Y-49000000D03*
%TD*%
%TO.C,C2*%
X157155000Y-49000000D03*
X158705000Y-49000000D03*
%TD*%
%TO.C,C1*%
X145725000Y-49000000D03*
X147275000Y-49000000D03*
%TD*%
D18*
%TO.C,SW1*%
X143960991Y-48100000D03*
X143960991Y-54100000D03*
X140210991Y-48100000D03*
X140210991Y-54100000D03*
%TD*%
D20*
%TO.C,D4*%
X161110000Y-50050000D03*
X161110000Y-52150000D03*
%TD*%
%TO.C,D32*%
X206830000Y-84250000D03*
X206830000Y-86350000D03*
%TD*%
%LPD*%
M02*
