%TF.GenerationSoftware,KiCad,Pcbnew,8.0.7*%
%TF.CreationDate,2025-01-12T22:15:46+01:00*%
%TF.ProjectId,butns,6275746e-732e-46b6-9963-61645f706362,rev?*%
%TF.SameCoordinates,Original*%
%TF.FileFunction,Soldermask,Top*%
%TF.FilePolarity,Negative*%
%FSLAX46Y46*%
G04 Gerber Fmt 4.6, Leading zero omitted, Abs format (unit mm)*
G04 Created by KiCad (PCBNEW 8.0.7) date 2025-01-12 22:15:46*
%MOMM*%
%LPD*%
G01*
G04 APERTURE LIST*
G04 Aperture macros list*
%AMRoundRect*
0 Rectangle with rounded corners*
0 $1 Rounding radius*
0 $2 $3 $4 $5 $6 $7 $8 $9 X,Y pos of 4 corners*
0 Add a 4 corners polygon primitive as box body*
4,1,4,$2,$3,$4,$5,$6,$7,$8,$9,$2,$3,0*
0 Add four circle primitives for the rounded corners*
1,1,$1+$1,$2,$3*
1,1,$1+$1,$4,$5*
1,1,$1+$1,$6,$7*
1,1,$1+$1,$8,$9*
0 Add four rect primitives between the rounded corners*
20,1,$1+$1,$2,$3,$4,$5,0*
20,1,$1+$1,$4,$5,$6,$7,0*
20,1,$1+$1,$6,$7,$8,$9,0*
20,1,$1+$1,$8,$9,$2,$3,0*%
G04 Aperture macros list end*
%ADD10RoundRect,0.162500X0.162500X-0.617500X0.162500X0.617500X-0.162500X0.617500X-0.162500X-0.617500X0*%
%ADD11RoundRect,0.225000X0.250000X-0.225000X0.250000X0.225000X-0.250000X0.225000X-0.250000X-0.225000X0*%
%ADD12O,1.800000X1.800000*%
%ADD13O,1.500000X1.500000*%
%ADD14R,0.700000X0.800000*%
%ADD15R,0.750000X1.000000*%
%ADD16C,2.700000*%
%ADD17RoundRect,0.112500X0.112500X-0.187500X0.112500X0.187500X-0.112500X0.187500X-0.112500X-0.187500X0*%
%ADD18RoundRect,0.225000X0.225000X0.250000X-0.225000X0.250000X-0.225000X-0.250000X0.225000X-0.250000X0*%
G04 APERTURE END LIST*
D10*
%TO.C,U2*%
X134752000Y-55118000D03*
X136652000Y-55118000D03*
X136652000Y-57818000D03*
X135702000Y-57818000D03*
X134752000Y-57818000D03*
%TD*%
D11*
%TO.C,C65*%
X134620000Y-53353000D03*
X134620000Y-51803000D03*
%TD*%
D12*
%TO.C,U1*%
X134350000Y-65575000D03*
D13*
X137380000Y-65875000D03*
X137380000Y-70725000D03*
D12*
X134350000Y-71025000D03*
%TD*%
D14*
%TO.C,D128*%
X226860000Y-131550000D03*
X225660000Y-131550000D03*
X225660000Y-130250000D03*
X226860000Y-130250000D03*
%TD*%
%TO.C,D120*%
X226860000Y-120150000D03*
X225660000Y-120150000D03*
X225660000Y-118850000D03*
X226860000Y-118850000D03*
%TD*%
%TO.C,D112*%
X226860000Y-108750000D03*
X225660000Y-108750000D03*
X225660000Y-107450000D03*
X226860000Y-107450000D03*
%TD*%
%TO.C,D104*%
X226860000Y-97350000D03*
X225660000Y-97350000D03*
X225660000Y-96050000D03*
X226860000Y-96050000D03*
%TD*%
%TO.C,D127*%
X215430000Y-131550000D03*
X214230000Y-131550000D03*
X214230000Y-130250000D03*
X215430000Y-130250000D03*
%TD*%
%TO.C,D119*%
X215430000Y-120150000D03*
X214230000Y-120150000D03*
X214230000Y-118850000D03*
X215430000Y-118850000D03*
%TD*%
%TO.C,D111*%
X215430000Y-108750000D03*
X214230000Y-108750000D03*
X214230000Y-107450000D03*
X215430000Y-107450000D03*
%TD*%
%TO.C,D103*%
X215430000Y-97350000D03*
X214230000Y-97350000D03*
X214230000Y-96050000D03*
X215430000Y-96050000D03*
%TD*%
%TO.C,D126*%
X204000000Y-131550000D03*
X202800000Y-131550000D03*
X202800000Y-130250000D03*
X204000000Y-130250000D03*
%TD*%
%TO.C,D118*%
X204000000Y-120150000D03*
X202800000Y-120150000D03*
X202800000Y-118850000D03*
X204000000Y-118850000D03*
%TD*%
%TO.C,D110*%
X204000000Y-108750000D03*
X202800000Y-108750000D03*
X202800000Y-107450000D03*
X204000000Y-107450000D03*
%TD*%
%TO.C,D102*%
X204000000Y-97350000D03*
X202800000Y-97350000D03*
X202800000Y-96050000D03*
X204000000Y-96050000D03*
%TD*%
%TO.C,D125*%
X192570000Y-131550000D03*
X191370000Y-131550000D03*
X191370000Y-130250000D03*
X192570000Y-130250000D03*
%TD*%
%TO.C,D117*%
X192570000Y-120150000D03*
X191370000Y-120150000D03*
X191370000Y-118850000D03*
X192570000Y-118850000D03*
%TD*%
%TO.C,D109*%
X192570000Y-108750000D03*
X191370000Y-108750000D03*
X191370000Y-107450000D03*
X192570000Y-107450000D03*
%TD*%
%TO.C,D101*%
X192570000Y-97350000D03*
X191370000Y-97350000D03*
X191370000Y-96050000D03*
X192570000Y-96050000D03*
%TD*%
%TO.C,D124*%
X181140000Y-131550000D03*
X179940000Y-131550000D03*
X179940000Y-130250000D03*
X181140000Y-130250000D03*
%TD*%
%TO.C,D116*%
X181140000Y-120150000D03*
X179940000Y-120150000D03*
X179940000Y-118850000D03*
X181140000Y-118850000D03*
%TD*%
%TO.C,D108*%
X181140000Y-108750000D03*
X179940000Y-108750000D03*
X179940000Y-107450000D03*
X181140000Y-107450000D03*
%TD*%
%TO.C,D100*%
X181140000Y-97350000D03*
X179940000Y-97350000D03*
X179940000Y-96050000D03*
X181140000Y-96050000D03*
%TD*%
%TO.C,D123*%
X169710000Y-131550000D03*
X168510000Y-131550000D03*
X168510000Y-130250000D03*
X169710000Y-130250000D03*
%TD*%
%TO.C,D115*%
X169710000Y-120150000D03*
X168510000Y-120150000D03*
X168510000Y-118850000D03*
X169710000Y-118850000D03*
%TD*%
%TO.C,D107*%
X169710000Y-108750000D03*
X168510000Y-108750000D03*
X168510000Y-107450000D03*
X169710000Y-107450000D03*
%TD*%
%TO.C,D99*%
X169710000Y-97350000D03*
X168510000Y-97350000D03*
X168510000Y-96050000D03*
X169710000Y-96050000D03*
%TD*%
%TO.C,D122*%
X158280000Y-131550000D03*
X157080000Y-131550000D03*
X157080000Y-130250000D03*
X158280000Y-130250000D03*
%TD*%
%TO.C,D114*%
X158280000Y-120150000D03*
X157080000Y-120150000D03*
X157080000Y-118850000D03*
X158280000Y-118850000D03*
%TD*%
%TO.C,D106*%
X158280000Y-108750000D03*
X157080000Y-108750000D03*
X157080000Y-107450000D03*
X158280000Y-107450000D03*
%TD*%
%TO.C,D98*%
X158280000Y-97350000D03*
X157080000Y-97350000D03*
X157080000Y-96050000D03*
X158280000Y-96050000D03*
%TD*%
%TO.C,D121*%
X146850000Y-131550000D03*
X145650000Y-131550000D03*
X145650000Y-130250000D03*
X146850000Y-130250000D03*
%TD*%
%TO.C,D113*%
X146850000Y-120150000D03*
X145650000Y-120150000D03*
X145650000Y-118850000D03*
X146850000Y-118850000D03*
%TD*%
%TO.C,D105*%
X146850000Y-108750000D03*
X145650000Y-108750000D03*
X145650000Y-107450000D03*
X146850000Y-107450000D03*
%TD*%
%TO.C,D97*%
X146850000Y-97350000D03*
X145650000Y-97350000D03*
X145650000Y-96050000D03*
X146850000Y-96050000D03*
%TD*%
%TO.C,D96*%
X226860000Y-85950000D03*
X225660000Y-85950000D03*
X225660000Y-84650000D03*
X226860000Y-84650000D03*
%TD*%
%TO.C,D95*%
X215430000Y-85950000D03*
X214230000Y-85950000D03*
X214230000Y-84650000D03*
X215430000Y-84650000D03*
%TD*%
%TO.C,D94*%
X204000000Y-85950000D03*
X202800000Y-85950000D03*
X202800000Y-84650000D03*
X204000000Y-84650000D03*
%TD*%
%TO.C,D93*%
X192570000Y-85950000D03*
X191370000Y-85950000D03*
X191370000Y-84650000D03*
X192570000Y-84650000D03*
%TD*%
%TO.C,D92*%
X181140000Y-85950000D03*
X179940000Y-85950000D03*
X179940000Y-84650000D03*
X181140000Y-84650000D03*
%TD*%
%TO.C,D91*%
X169710000Y-85950000D03*
X168510000Y-85950000D03*
X168510000Y-84650000D03*
X169710000Y-84650000D03*
%TD*%
%TO.C,D90*%
X158280000Y-85950000D03*
X157080000Y-85950000D03*
X157080000Y-84650000D03*
X158280000Y-84650000D03*
%TD*%
%TO.C,D89*%
X146850000Y-85950000D03*
X145650000Y-85950000D03*
X145650000Y-84650000D03*
X146850000Y-84650000D03*
%TD*%
%TO.C,D88*%
X226860000Y-74550000D03*
X225660000Y-74550000D03*
X225660000Y-73250000D03*
X226860000Y-73250000D03*
%TD*%
%TO.C,D87*%
X215430000Y-74550000D03*
X214230000Y-74550000D03*
X214230000Y-73250000D03*
X215430000Y-73250000D03*
%TD*%
%TO.C,D86*%
X204000000Y-74550000D03*
X202800000Y-74550000D03*
X202800000Y-73250000D03*
X204000000Y-73250000D03*
%TD*%
%TO.C,D85*%
X192570000Y-74550000D03*
X191370000Y-74550000D03*
X191370000Y-73250000D03*
X192570000Y-73250000D03*
%TD*%
%TO.C,D84*%
X181140000Y-74550000D03*
X179940000Y-74550000D03*
X179940000Y-73250000D03*
X181140000Y-73250000D03*
%TD*%
%TO.C,D83*%
X169710000Y-74550000D03*
X168510000Y-74550000D03*
X168510000Y-73250000D03*
X169710000Y-73250000D03*
%TD*%
%TO.C,D82*%
X158280000Y-74550000D03*
X157080000Y-74550000D03*
X157080000Y-73250000D03*
X158280000Y-73250000D03*
%TD*%
%TO.C,D81*%
X146850000Y-74550000D03*
X145650000Y-74550000D03*
X145650000Y-73250000D03*
X146850000Y-73250000D03*
%TD*%
%TO.C,D80*%
X226860000Y-61850000D03*
X225660000Y-61850000D03*
X225660000Y-63150000D03*
X226860000Y-63150000D03*
%TD*%
%TO.C,D79*%
X215430000Y-61850000D03*
X214230000Y-61850000D03*
X214230000Y-63150000D03*
X215430000Y-63150000D03*
%TD*%
%TO.C,D78*%
X204000000Y-61850000D03*
X202800000Y-61850000D03*
X202800000Y-63150000D03*
X204000000Y-63150000D03*
%TD*%
%TO.C,D77*%
X192570000Y-61850000D03*
X191370000Y-61850000D03*
X191370000Y-63150000D03*
X192570000Y-63150000D03*
%TD*%
%TO.C,D76*%
X181140000Y-61850000D03*
X179940000Y-61850000D03*
X179940000Y-63150000D03*
X181140000Y-63150000D03*
%TD*%
%TO.C,D75*%
X169710000Y-61850000D03*
X168510000Y-61850000D03*
X168510000Y-63150000D03*
X169710000Y-63150000D03*
%TD*%
%TO.C,D74*%
X158280000Y-61850000D03*
X157080000Y-61850000D03*
X157080000Y-63150000D03*
X158280000Y-63150000D03*
%TD*%
%TO.C,D73*%
X146850000Y-61850000D03*
X145650000Y-61850000D03*
X145650000Y-63150000D03*
X146850000Y-63150000D03*
%TD*%
%TO.C,D72*%
X226860000Y-51750000D03*
X225660000Y-51750000D03*
X225660000Y-50450000D03*
X226860000Y-50450000D03*
%TD*%
%TO.C,D71*%
X215430000Y-51750000D03*
X214230000Y-51750000D03*
X214230000Y-50450000D03*
X215430000Y-50450000D03*
%TD*%
%TO.C,D70*%
X204000000Y-51750000D03*
X202800000Y-51750000D03*
X202800000Y-50450000D03*
X204000000Y-50450000D03*
%TD*%
%TO.C,D69*%
X192570000Y-51750000D03*
X191370000Y-51750000D03*
X191370000Y-50450000D03*
X192570000Y-50450000D03*
%TD*%
%TO.C,D68*%
X181140000Y-51750000D03*
X179940000Y-51750000D03*
X179940000Y-50450000D03*
X181140000Y-50450000D03*
%TD*%
%TO.C,D67*%
X169710000Y-51750000D03*
X168510000Y-51750000D03*
X168510000Y-50450000D03*
X169710000Y-50450000D03*
%TD*%
%TO.C,D66*%
X158280000Y-51750000D03*
X157080000Y-51750000D03*
X157080000Y-50450000D03*
X158280000Y-50450000D03*
%TD*%
%TO.C,D1*%
X146850000Y-51750000D03*
X145650000Y-51750000D03*
X145650000Y-50450000D03*
X146850000Y-50450000D03*
%TD*%
D15*
%TO.C,SW64*%
X223970991Y-128095996D03*
X223970991Y-134095996D03*
X220220991Y-128095996D03*
X220220991Y-134095996D03*
%TD*%
%TO.C,SW63*%
X212540991Y-128095996D03*
X212540991Y-134095996D03*
X208790991Y-128095996D03*
X208790991Y-134095996D03*
%TD*%
%TO.C,SW62*%
X201110991Y-128095996D03*
X201110991Y-134095996D03*
X197360991Y-128095996D03*
X197360991Y-134095996D03*
%TD*%
%TO.C,SW61*%
X189680991Y-128095996D03*
X189680991Y-134095996D03*
X185930991Y-128095996D03*
X185930991Y-134095996D03*
%TD*%
%TO.C,SW60*%
X178250991Y-128095996D03*
X178250991Y-134095996D03*
X174500991Y-128095996D03*
X174500991Y-134095996D03*
%TD*%
%TO.C,SW59*%
X166820991Y-128095996D03*
X166820991Y-134095996D03*
X163070991Y-128095996D03*
X163070991Y-134095996D03*
%TD*%
%TO.C,SW58*%
X155390991Y-128095996D03*
X155390991Y-134095996D03*
X151640991Y-128095996D03*
X151640991Y-134095996D03*
%TD*%
%TO.C,SW57*%
X143960991Y-128095996D03*
X143960991Y-134095996D03*
X140210991Y-128095996D03*
X140210991Y-134095996D03*
%TD*%
%TO.C,SW56*%
X223970991Y-116665996D03*
X223970991Y-122665996D03*
X220220991Y-116665996D03*
X220220991Y-122665996D03*
%TD*%
%TO.C,SW55*%
X212540991Y-116665996D03*
X212540991Y-122665996D03*
X208790991Y-116665996D03*
X208790991Y-122665996D03*
%TD*%
%TO.C,SW54*%
X201110991Y-116665996D03*
X201110991Y-122665996D03*
X197360991Y-116665996D03*
X197360991Y-122665996D03*
%TD*%
%TO.C,SW53*%
X189680991Y-116665996D03*
X189680991Y-122665996D03*
X185930991Y-116665996D03*
X185930991Y-122665996D03*
%TD*%
%TO.C,SW52*%
X178250991Y-116665996D03*
X178250991Y-122665996D03*
X174500991Y-116665996D03*
X174500991Y-122665996D03*
%TD*%
%TO.C,SW51*%
X166820991Y-116665996D03*
X166820991Y-122665996D03*
X163070991Y-116665996D03*
X163070991Y-122665996D03*
%TD*%
%TO.C,SW50*%
X155390991Y-116665996D03*
X155390991Y-122665996D03*
X151640991Y-116665996D03*
X151640991Y-122665996D03*
%TD*%
%TO.C,SW49*%
X143960991Y-116665996D03*
X143960991Y-122665996D03*
X140210991Y-116665996D03*
X140210991Y-122665996D03*
%TD*%
%TO.C,SW48*%
X223970991Y-105235996D03*
X223970991Y-111235996D03*
X220220991Y-105235996D03*
X220220991Y-111235996D03*
%TD*%
%TO.C,SW47*%
X212540991Y-105235996D03*
X212540991Y-111235996D03*
X208790991Y-105235996D03*
X208790991Y-111235996D03*
%TD*%
%TO.C,SW46*%
X201110991Y-105235996D03*
X201110991Y-111235996D03*
X197360991Y-105235996D03*
X197360991Y-111235996D03*
%TD*%
%TO.C,SW45*%
X189680991Y-105235996D03*
X189680991Y-111235996D03*
X185930991Y-105235996D03*
X185930991Y-111235996D03*
%TD*%
%TO.C,SW44*%
X178250991Y-105235996D03*
X178250991Y-111235996D03*
X174500991Y-105235996D03*
X174500991Y-111235996D03*
%TD*%
%TO.C,SW43*%
X166820991Y-105235996D03*
X166820991Y-111235996D03*
X163070991Y-105235996D03*
X163070991Y-111235996D03*
%TD*%
%TO.C,SW42*%
X155390991Y-105235996D03*
X155390991Y-111235996D03*
X151640991Y-105235996D03*
X151640991Y-111235996D03*
%TD*%
%TO.C,SW41*%
X143960991Y-105235996D03*
X143960991Y-111235996D03*
X140210991Y-105235996D03*
X140210991Y-111235996D03*
%TD*%
%TO.C,SW40*%
X223970991Y-93805996D03*
X223970991Y-99805996D03*
X220220991Y-93805996D03*
X220220991Y-99805996D03*
%TD*%
%TO.C,SW39*%
X212540991Y-93805996D03*
X212540991Y-99805996D03*
X208790991Y-93805996D03*
X208790991Y-99805996D03*
%TD*%
%TO.C,SW38*%
X201110991Y-93805996D03*
X201110991Y-99805996D03*
X197360991Y-93805996D03*
X197360991Y-99805996D03*
%TD*%
%TO.C,SW37*%
X189680991Y-93805996D03*
X189680991Y-99805996D03*
X185930991Y-93805996D03*
X185930991Y-99805996D03*
%TD*%
%TO.C,SW36*%
X178250991Y-93805996D03*
X178250991Y-99805996D03*
X174500991Y-93805996D03*
X174500991Y-99805996D03*
%TD*%
%TO.C,SW35*%
X166820991Y-93805996D03*
X166820991Y-99805996D03*
X163070991Y-93805996D03*
X163070991Y-99805996D03*
%TD*%
%TO.C,SW34*%
X155390991Y-93805996D03*
X155390991Y-99805996D03*
X151640991Y-93805996D03*
X151640991Y-99805996D03*
%TD*%
%TO.C,SW33*%
X143960991Y-93805996D03*
X143960991Y-99805996D03*
X140210991Y-93805996D03*
X140210991Y-99805996D03*
%TD*%
%TO.C,SW32*%
X223970991Y-82350000D03*
X223970991Y-88350000D03*
X220220991Y-82350000D03*
X220220991Y-88350000D03*
%TD*%
%TO.C,SW31*%
X208790991Y-88350000D03*
X208790991Y-82350000D03*
X212540991Y-88350000D03*
X212540991Y-82350000D03*
%TD*%
%TO.C,SW30*%
X201110991Y-82375997D03*
X201110991Y-88375997D03*
X197360991Y-82375997D03*
X197360991Y-88375997D03*
%TD*%
%TO.C,SW29*%
X189680991Y-82375997D03*
X189680991Y-88375997D03*
X185930991Y-82375997D03*
X185930991Y-88375997D03*
%TD*%
%TO.C,SW28*%
X178250991Y-82375997D03*
X178250991Y-88375997D03*
X174500991Y-82375997D03*
X174500991Y-88375997D03*
%TD*%
%TO.C,SW27*%
X166820991Y-82375997D03*
X166820991Y-88375997D03*
X163070991Y-82375997D03*
X163070991Y-88375997D03*
%TD*%
%TO.C,SW26*%
X155390991Y-82375997D03*
X155390991Y-88375997D03*
X151640991Y-82375997D03*
X151640991Y-88375997D03*
%TD*%
%TO.C,SW25*%
X143960991Y-82375997D03*
X143960991Y-88375997D03*
X140210991Y-82375997D03*
X140210991Y-88375997D03*
%TD*%
%TO.C,SW24*%
X223970991Y-70950000D03*
X223970991Y-76950000D03*
X220220991Y-70950000D03*
X220220991Y-76950000D03*
%TD*%
%TO.C,SW23*%
X212540991Y-70950000D03*
X212540991Y-76950000D03*
X208790991Y-70950000D03*
X208790991Y-76950000D03*
%TD*%
%TO.C,SW22*%
X201110991Y-70950000D03*
X201110991Y-76950000D03*
X197360991Y-70950000D03*
X197360991Y-76950000D03*
%TD*%
%TO.C,SW21*%
X185930991Y-76950000D03*
X185930991Y-70950000D03*
X189680991Y-76950000D03*
X189680991Y-70950000D03*
%TD*%
%TO.C,SW20*%
X178250991Y-70950000D03*
X178250991Y-76950000D03*
X174500991Y-70950000D03*
X174500991Y-76950000D03*
%TD*%
%TO.C,SW19*%
X166820991Y-70950000D03*
X166820991Y-76950000D03*
X163070991Y-70950000D03*
X163070991Y-76950000D03*
%TD*%
%TO.C,SW18*%
X155390991Y-70950000D03*
X155390991Y-76950000D03*
X151640991Y-70950000D03*
X151640991Y-76950000D03*
%TD*%
%TO.C,SW17*%
X143960991Y-70950000D03*
X143960991Y-76950000D03*
X140210991Y-70950000D03*
X140210991Y-76950000D03*
%TD*%
%TO.C,SW16*%
X223970991Y-59500000D03*
X223970991Y-65500000D03*
X220220991Y-59500000D03*
X220220991Y-65500000D03*
%TD*%
%TO.C,SW15*%
X212540991Y-59500000D03*
X212540991Y-65500000D03*
X208790991Y-59500000D03*
X208790991Y-65500000D03*
%TD*%
%TO.C,SW14*%
X201110991Y-59500000D03*
X201110991Y-65500000D03*
X197360991Y-59500000D03*
X197360991Y-65500000D03*
%TD*%
%TO.C,SW13*%
X189680991Y-59500000D03*
X189680991Y-65500000D03*
X185930991Y-59500000D03*
X185930991Y-65500000D03*
%TD*%
%TO.C,SW12*%
X178250991Y-59500000D03*
X178250991Y-65500000D03*
X174500991Y-59500000D03*
X174500991Y-65500000D03*
%TD*%
%TO.C,SW11*%
X166820991Y-59500000D03*
X166820991Y-65500000D03*
X163070991Y-59500000D03*
X163070991Y-65500000D03*
%TD*%
%TO.C,SW10*%
X155390991Y-59500000D03*
X155390991Y-65500000D03*
X151640991Y-59500000D03*
X151640991Y-65500000D03*
%TD*%
%TO.C,SW9*%
X143960991Y-59500000D03*
X143960991Y-65500000D03*
X140210991Y-59500000D03*
X140210991Y-65500000D03*
%TD*%
%TO.C,SW8*%
X223970991Y-48100000D03*
X223970991Y-54100000D03*
X220220991Y-48100000D03*
X220220991Y-54100000D03*
%TD*%
%TO.C,SW7*%
X212540991Y-48100000D03*
X212540991Y-54100000D03*
X208790991Y-48100000D03*
X208790991Y-54100000D03*
%TD*%
%TO.C,SW6*%
X201110991Y-48100000D03*
X201110991Y-54100000D03*
X197360991Y-48100000D03*
X197360991Y-54100000D03*
%TD*%
%TO.C,SW5*%
X189680991Y-48100000D03*
X189680991Y-54100000D03*
X185930991Y-48100000D03*
X185930991Y-54100000D03*
%TD*%
%TO.C,SW4*%
X178250991Y-48100000D03*
X178250991Y-54100000D03*
X174500991Y-48100000D03*
X174500991Y-54100000D03*
%TD*%
%TO.C,SW3*%
X166820991Y-48100000D03*
X166820991Y-54100000D03*
X163070991Y-48100000D03*
X163070991Y-54100000D03*
%TD*%
%TO.C,SW2*%
X155390991Y-48100000D03*
X155390991Y-54100000D03*
X151640991Y-48100000D03*
X151640991Y-54100000D03*
%TD*%
D16*
%TO.C,H5*%
X182090991Y-91090997D03*
%TD*%
%TO.C,H4*%
X227590991Y-45590997D03*
%TD*%
%TO.C,H3*%
X227590991Y-136590997D03*
%TD*%
%TO.C,H2*%
X136590991Y-136590997D03*
%TD*%
%TO.C,H1*%
X136590991Y-45590997D03*
%TD*%
D17*
%TO.C,D65*%
X218260000Y-129850000D03*
X218260000Y-131950000D03*
%TD*%
%TO.C,D64*%
X206830000Y-129850000D03*
X206830000Y-131950000D03*
%TD*%
%TO.C,D63*%
X195400000Y-129850000D03*
X195400000Y-131950000D03*
%TD*%
%TO.C,D62*%
X183970000Y-129850000D03*
X183970000Y-131950000D03*
%TD*%
%TO.C,D61*%
X172540000Y-129850000D03*
X172540000Y-131950000D03*
%TD*%
%TO.C,D60*%
X161110000Y-129850000D03*
X161110000Y-131950000D03*
%TD*%
%TO.C,D59*%
X149680000Y-129850000D03*
X149680000Y-131950000D03*
%TD*%
%TO.C,D58*%
X138250000Y-129850000D03*
X138250000Y-131950000D03*
%TD*%
%TO.C,D57*%
X218260000Y-118450000D03*
X218260000Y-120550000D03*
%TD*%
%TO.C,D56*%
X206830000Y-118450000D03*
X206830000Y-120550000D03*
%TD*%
%TO.C,D55*%
X195400000Y-118450000D03*
X195400000Y-120550000D03*
%TD*%
%TO.C,D54*%
X183970000Y-118450000D03*
X183970000Y-120550000D03*
%TD*%
%TO.C,D53*%
X172540000Y-118450000D03*
X172540000Y-120550000D03*
%TD*%
%TO.C,D52*%
X161110000Y-118450000D03*
X161110000Y-120550000D03*
%TD*%
%TO.C,D51*%
X149680000Y-118450000D03*
X149680000Y-120550000D03*
%TD*%
%TO.C,D50*%
X138250000Y-118450000D03*
X138250000Y-120550000D03*
%TD*%
%TO.C,D49*%
X218260000Y-107050000D03*
X218260000Y-109150000D03*
%TD*%
%TO.C,D48*%
X206830000Y-107050000D03*
X206830000Y-109150000D03*
%TD*%
%TO.C,D47*%
X195400000Y-107050000D03*
X195400000Y-109150000D03*
%TD*%
%TO.C,D46*%
X183970000Y-107050000D03*
X183970000Y-109150000D03*
%TD*%
%TO.C,D45*%
X172540000Y-107050000D03*
X172540000Y-109150000D03*
%TD*%
%TO.C,D44*%
X161110000Y-107050000D03*
X161110000Y-109150000D03*
%TD*%
%TO.C,D43*%
X149680000Y-107050000D03*
X149680000Y-109150000D03*
%TD*%
%TO.C,D42*%
X138250000Y-107050000D03*
X138250000Y-109150000D03*
%TD*%
%TO.C,D41*%
X218260000Y-95650000D03*
X218260000Y-97750000D03*
%TD*%
%TO.C,D40*%
X206830000Y-95650000D03*
X206830000Y-97750000D03*
%TD*%
%TO.C,D39*%
X195400000Y-95650000D03*
X195400000Y-97750000D03*
%TD*%
%TO.C,D38*%
X183970000Y-95650000D03*
X183970000Y-97750000D03*
%TD*%
%TO.C,D37*%
X172540000Y-95650000D03*
X172540000Y-97750000D03*
%TD*%
%TO.C,D36*%
X161110000Y-95650000D03*
X161110000Y-97750000D03*
%TD*%
%TO.C,D35*%
X149680000Y-95650000D03*
X149680000Y-97750000D03*
%TD*%
%TO.C,D34*%
X138250000Y-95650000D03*
X138250000Y-97750000D03*
%TD*%
%TO.C,D33*%
X218260000Y-84250000D03*
X218260000Y-86350000D03*
%TD*%
%TO.C,D31*%
X195400000Y-84250000D03*
X195400000Y-86350000D03*
%TD*%
%TO.C,D30*%
X183970000Y-84250000D03*
X183970000Y-86350000D03*
%TD*%
%TO.C,D29*%
X172540000Y-84250000D03*
X172540000Y-86350000D03*
%TD*%
%TO.C,D28*%
X161110000Y-84250000D03*
X161110000Y-86350000D03*
%TD*%
%TO.C,D27*%
X149680000Y-84250000D03*
X149680000Y-86350000D03*
%TD*%
%TO.C,D26*%
X138250000Y-84250000D03*
X138250000Y-86350000D03*
%TD*%
%TO.C,D25*%
X218260000Y-72850000D03*
X218260000Y-74950000D03*
%TD*%
%TO.C,D24*%
X206830000Y-72850000D03*
X206830000Y-74950000D03*
%TD*%
%TO.C,D23*%
X195400000Y-72850000D03*
X195400000Y-74950000D03*
%TD*%
%TO.C,D22*%
X183970000Y-72850000D03*
X183970000Y-74950000D03*
%TD*%
%TO.C,D21*%
X172540000Y-72850000D03*
X172540000Y-74950000D03*
%TD*%
%TO.C,D20*%
X161110000Y-72850000D03*
X161110000Y-74950000D03*
%TD*%
%TO.C,D19*%
X149680000Y-72850000D03*
X149680000Y-74950000D03*
%TD*%
%TO.C,D18*%
X138250000Y-72850000D03*
X138250000Y-74950000D03*
%TD*%
%TO.C,D17*%
X218260000Y-61450000D03*
X218260000Y-63550000D03*
%TD*%
%TO.C,D16*%
X206830000Y-61450000D03*
X206830000Y-63550000D03*
%TD*%
%TO.C,D15*%
X195400000Y-61450000D03*
X195400000Y-63550000D03*
%TD*%
%TO.C,D14*%
X183970000Y-61450000D03*
X183970000Y-63550000D03*
%TD*%
%TO.C,D13*%
X172540000Y-61450000D03*
X172540000Y-63550000D03*
%TD*%
%TO.C,D12*%
X161110000Y-61450000D03*
X161110000Y-63550000D03*
%TD*%
%TO.C,D11*%
X149680000Y-61450000D03*
X149680000Y-63550000D03*
%TD*%
%TO.C,D10*%
X138250000Y-61450000D03*
X138250000Y-63550000D03*
%TD*%
%TO.C,D9*%
X218260000Y-50050000D03*
X218260000Y-52150000D03*
%TD*%
%TO.C,D8*%
X206830000Y-50050000D03*
X206830000Y-52150000D03*
%TD*%
%TO.C,D7*%
X195400000Y-50050000D03*
X195400000Y-52150000D03*
%TD*%
%TO.C,D6*%
X183970000Y-50050000D03*
X183970000Y-52150000D03*
%TD*%
%TO.C,D5*%
X172540000Y-52150000D03*
X172540000Y-50050000D03*
%TD*%
%TO.C,D2*%
X138250000Y-50050000D03*
X138250000Y-52150000D03*
%TD*%
%TO.C,D3*%
X149680000Y-50050000D03*
X149680000Y-52150000D03*
%TD*%
D18*
%TO.C,C64*%
X225735000Y-128800000D03*
X227285000Y-128800000D03*
%TD*%
%TO.C,C63*%
X214305000Y-128800000D03*
X215855000Y-128800000D03*
%TD*%
%TO.C,C62*%
X202875000Y-128800000D03*
X204425000Y-128800000D03*
%TD*%
%TO.C,C61*%
X191445000Y-128800000D03*
X192995000Y-128800000D03*
%TD*%
%TO.C,C60*%
X180015000Y-128800000D03*
X181565000Y-128800000D03*
%TD*%
%TO.C,C59*%
X168585000Y-128800000D03*
X170135000Y-128800000D03*
%TD*%
%TO.C,C58*%
X157155000Y-128800000D03*
X158705000Y-128800000D03*
%TD*%
%TO.C,C57*%
X145725000Y-128800000D03*
X147275000Y-128800000D03*
%TD*%
%TO.C,C56*%
X225735000Y-117400000D03*
X227285000Y-117400000D03*
%TD*%
%TO.C,C55*%
X214305000Y-117400000D03*
X215855000Y-117400000D03*
%TD*%
%TO.C,C54*%
X202875000Y-117400000D03*
X204425000Y-117400000D03*
%TD*%
%TO.C,C53*%
X191445000Y-117400000D03*
X192995000Y-117400000D03*
%TD*%
%TO.C,C52*%
X180015000Y-117400000D03*
X181565000Y-117400000D03*
%TD*%
%TO.C,C51*%
X168585000Y-117400000D03*
X170135000Y-117400000D03*
%TD*%
%TO.C,C50*%
X157155000Y-117400000D03*
X158705000Y-117400000D03*
%TD*%
%TO.C,C49*%
X145725000Y-117400000D03*
X147275000Y-117400000D03*
%TD*%
%TO.C,C48*%
X225735000Y-106000000D03*
X227285000Y-106000000D03*
%TD*%
%TO.C,C47*%
X214305000Y-106000000D03*
X215855000Y-106000000D03*
%TD*%
%TO.C,C46*%
X202875000Y-106000000D03*
X204425000Y-106000000D03*
%TD*%
%TO.C,C45*%
X191445000Y-106000000D03*
X192995000Y-106000000D03*
%TD*%
%TO.C,C44*%
X180015000Y-106000000D03*
X181565000Y-106000000D03*
%TD*%
%TO.C,C43*%
X168585000Y-106000000D03*
X170135000Y-106000000D03*
%TD*%
%TO.C,C42*%
X157155000Y-106000000D03*
X158705000Y-106000000D03*
%TD*%
%TO.C,C41*%
X145725000Y-106000000D03*
X147275000Y-106000000D03*
%TD*%
%TO.C,C40*%
X225735000Y-94600000D03*
X227285000Y-94600000D03*
%TD*%
%TO.C,C39*%
X214305000Y-94600000D03*
X215855000Y-94600000D03*
%TD*%
%TO.C,C38*%
X202875000Y-94600000D03*
X204425000Y-94600000D03*
%TD*%
%TO.C,C37*%
X191445000Y-94600000D03*
X192995000Y-94600000D03*
%TD*%
%TO.C,C36*%
X180015000Y-94600000D03*
X181565000Y-94600000D03*
%TD*%
%TO.C,C35*%
X168585000Y-94600000D03*
X170135000Y-94600000D03*
%TD*%
%TO.C,C34*%
X157155000Y-94600000D03*
X158705000Y-94600000D03*
%TD*%
%TO.C,C33*%
X145725000Y-94600000D03*
X147275000Y-94600000D03*
%TD*%
%TO.C,C32*%
X225735000Y-83200000D03*
X227285000Y-83200000D03*
%TD*%
%TO.C,C31*%
X214305000Y-83200000D03*
X215855000Y-83200000D03*
%TD*%
%TO.C,C30*%
X202875000Y-83200000D03*
X204425000Y-83200000D03*
%TD*%
%TO.C,C29*%
X191445000Y-83200000D03*
X192995000Y-83200000D03*
%TD*%
%TO.C,C28*%
X180015000Y-83200000D03*
X181565000Y-83200000D03*
%TD*%
%TO.C,C27*%
X168585000Y-83200000D03*
X170135000Y-83200000D03*
%TD*%
%TO.C,C26*%
X157155000Y-83200000D03*
X158705000Y-83200000D03*
%TD*%
%TO.C,C25*%
X145725000Y-83200000D03*
X147275000Y-83200000D03*
%TD*%
%TO.C,C24*%
X225735000Y-71800000D03*
X227285000Y-71800000D03*
%TD*%
%TO.C,C23*%
X214305000Y-71800000D03*
X215855000Y-71800000D03*
%TD*%
%TO.C,C22*%
X202875000Y-71800000D03*
X204425000Y-71800000D03*
%TD*%
%TO.C,C21*%
X191445000Y-71800000D03*
X192995000Y-71800000D03*
%TD*%
%TO.C,C20*%
X180015000Y-71800000D03*
X181565000Y-71800000D03*
%TD*%
%TO.C,C19*%
X168585000Y-71800000D03*
X170135000Y-71800000D03*
%TD*%
%TO.C,C18*%
X157155000Y-71800000D03*
X158705000Y-71800000D03*
%TD*%
%TO.C,C17*%
X145725000Y-71800000D03*
X147275000Y-71800000D03*
%TD*%
%TO.C,C16*%
X225735000Y-60400000D03*
X227285000Y-60400000D03*
%TD*%
%TO.C,C15*%
X214305000Y-60400000D03*
X215855000Y-60400000D03*
%TD*%
%TO.C,C14*%
X202875000Y-60400000D03*
X204425000Y-60400000D03*
%TD*%
%TO.C,C13*%
X191445000Y-60400000D03*
X192995000Y-60400000D03*
%TD*%
%TO.C,C12*%
X180015000Y-60400000D03*
X181565000Y-60400000D03*
%TD*%
%TO.C,C11*%
X168585000Y-60400000D03*
X170135000Y-60400000D03*
%TD*%
%TO.C,C10*%
X157155000Y-60400000D03*
X158705000Y-60400000D03*
%TD*%
%TO.C,C9*%
X145725000Y-60400000D03*
X147275000Y-60400000D03*
%TD*%
%TO.C,C8*%
X225735000Y-49000000D03*
X227285000Y-49000000D03*
%TD*%
%TO.C,C7*%
X214305000Y-49000000D03*
X215855000Y-49000000D03*
%TD*%
%TO.C,C6*%
X202875000Y-49000000D03*
X204425000Y-49000000D03*
%TD*%
%TO.C,C5*%
X191445000Y-49000000D03*
X192995000Y-49000000D03*
%TD*%
%TO.C,C4*%
X180015000Y-49000000D03*
X181565000Y-49000000D03*
%TD*%
%TO.C,C3*%
X168585000Y-49000000D03*
X170135000Y-49000000D03*
%TD*%
%TO.C,C2*%
X157155000Y-49000000D03*
X158705000Y-49000000D03*
%TD*%
%TO.C,C1*%
X145725000Y-49000000D03*
X147275000Y-49000000D03*
%TD*%
D15*
%TO.C,SW1*%
X143960991Y-48100000D03*
X143960991Y-54100000D03*
X140210991Y-48100000D03*
X140210991Y-54100000D03*
%TD*%
D17*
%TO.C,D4*%
X161110000Y-50050000D03*
X161110000Y-52150000D03*
%TD*%
%TO.C,D32*%
X206830000Y-84250000D03*
X206830000Y-86350000D03*
%TD*%
M02*
