%TF.GenerationSoftware,KiCad,Pcbnew,8.0.7*%
%TF.CreationDate,2025-01-12T22:15:46+01:00*%
%TF.ProjectId,butns,6275746e-732e-46b6-9963-61645f706362,rev?*%
%TF.SameCoordinates,Original*%
%TF.FileFunction,Legend,Bot*%
%TF.FilePolarity,Positive*%
%FSLAX46Y46*%
G04 Gerber Fmt 4.6, Leading zero omitted, Abs format (unit mm)*
G04 Created by KiCad (PCBNEW 8.0.7) date 2025-01-12 22:15:46*
%MOMM*%
%LPD*%
G01*
G04 APERTURE LIST*
%ADD10C,0.300000*%
%ADD11C,0.150000*%
%ADD12C,0.120000*%
%ADD13R,2.510000X1.000000*%
%ADD14O,1.800000X1.800000*%
%ADD15O,1.500000X1.500000*%
%ADD16R,1.700000X3.500000*%
%ADD17R,3.500000X1.700000*%
%ADD18C,2.700000*%
G04 APERTURE END LIST*
D10*
X223473489Y-44266828D02*
X222330632Y-44695400D01*
X222330632Y-44695400D02*
X223473489Y-45123971D01*
X221187774Y-43766828D02*
X221187774Y-44838257D01*
X221187774Y-44838257D02*
X221259203Y-45052542D01*
X221259203Y-45052542D02*
X221402060Y-45195400D01*
X221402060Y-45195400D02*
X221616346Y-45266828D01*
X221616346Y-45266828D02*
X221759203Y-45266828D01*
X219759203Y-45266828D02*
X220473489Y-45266828D01*
X220473489Y-45266828D02*
X220473489Y-43766828D01*
X218402060Y-45123971D02*
X218473488Y-45195400D01*
X218473488Y-45195400D02*
X218687774Y-45266828D01*
X218687774Y-45266828D02*
X218830631Y-45266828D01*
X218830631Y-45266828D02*
X219044917Y-45195400D01*
X219044917Y-45195400D02*
X219187774Y-45052542D01*
X219187774Y-45052542D02*
X219259203Y-44909685D01*
X219259203Y-44909685D02*
X219330631Y-44623971D01*
X219330631Y-44623971D02*
X219330631Y-44409685D01*
X219330631Y-44409685D02*
X219259203Y-44123971D01*
X219259203Y-44123971D02*
X219187774Y-43981114D01*
X219187774Y-43981114D02*
X219044917Y-43838257D01*
X219044917Y-43838257D02*
X218830631Y-43766828D01*
X218830631Y-43766828D02*
X218687774Y-43766828D01*
X218687774Y-43766828D02*
X218473488Y-43838257D01*
X218473488Y-43838257D02*
X218402060Y-43909685D01*
X217330631Y-43766828D02*
X217330631Y-44838257D01*
X217330631Y-44838257D02*
X217402060Y-45052542D01*
X217402060Y-45052542D02*
X217544917Y-45195400D01*
X217544917Y-45195400D02*
X217759203Y-45266828D01*
X217759203Y-45266828D02*
X217902060Y-45266828D01*
X215902060Y-45266828D02*
X216616346Y-45266828D01*
X216616346Y-45266828D02*
X216616346Y-43766828D01*
X214544917Y-45123971D02*
X214616345Y-45195400D01*
X214616345Y-45195400D02*
X214830631Y-45266828D01*
X214830631Y-45266828D02*
X214973488Y-45266828D01*
X214973488Y-45266828D02*
X215187774Y-45195400D01*
X215187774Y-45195400D02*
X215330631Y-45052542D01*
X215330631Y-45052542D02*
X215402060Y-44909685D01*
X215402060Y-44909685D02*
X215473488Y-44623971D01*
X215473488Y-44623971D02*
X215473488Y-44409685D01*
X215473488Y-44409685D02*
X215402060Y-44123971D01*
X215402060Y-44123971D02*
X215330631Y-43981114D01*
X215330631Y-43981114D02*
X215187774Y-43838257D01*
X215187774Y-43838257D02*
X214973488Y-43766828D01*
X214973488Y-43766828D02*
X214830631Y-43766828D01*
X214830631Y-43766828D02*
X214616345Y-43838257D01*
X214616345Y-43838257D02*
X214544917Y-43909685D01*
X213473488Y-43766828D02*
X213473488Y-44838257D01*
X213473488Y-44838257D02*
X213544917Y-45052542D01*
X213544917Y-45052542D02*
X213687774Y-45195400D01*
X213687774Y-45195400D02*
X213902060Y-45266828D01*
X213902060Y-45266828D02*
X214044917Y-45266828D01*
X212044917Y-45266828D02*
X212759203Y-45266828D01*
X212759203Y-45266828D02*
X212759203Y-43766828D01*
X210687774Y-45123971D02*
X210759202Y-45195400D01*
X210759202Y-45195400D02*
X210973488Y-45266828D01*
X210973488Y-45266828D02*
X211116345Y-45266828D01*
X211116345Y-45266828D02*
X211330631Y-45195400D01*
X211330631Y-45195400D02*
X211473488Y-45052542D01*
X211473488Y-45052542D02*
X211544917Y-44909685D01*
X211544917Y-44909685D02*
X211616345Y-44623971D01*
X211616345Y-44623971D02*
X211616345Y-44409685D01*
X211616345Y-44409685D02*
X211544917Y-44123971D01*
X211544917Y-44123971D02*
X211473488Y-43981114D01*
X211473488Y-43981114D02*
X211330631Y-43838257D01*
X211330631Y-43838257D02*
X211116345Y-43766828D01*
X211116345Y-43766828D02*
X210973488Y-43766828D01*
X210973488Y-43766828D02*
X210759202Y-43838257D01*
X210759202Y-43838257D02*
X210687774Y-43909685D01*
X209616345Y-43766828D02*
X209616345Y-44838257D01*
X209616345Y-44838257D02*
X209687774Y-45052542D01*
X209687774Y-45052542D02*
X209830631Y-45195400D01*
X209830631Y-45195400D02*
X210044917Y-45266828D01*
X210044917Y-45266828D02*
X210187774Y-45266828D01*
X208187774Y-45266828D02*
X208902060Y-45266828D01*
X208902060Y-45266828D02*
X208902060Y-43766828D01*
X206830631Y-45123971D02*
X206902059Y-45195400D01*
X206902059Y-45195400D02*
X207116345Y-45266828D01*
X207116345Y-45266828D02*
X207259202Y-45266828D01*
X207259202Y-45266828D02*
X207473488Y-45195400D01*
X207473488Y-45195400D02*
X207616345Y-45052542D01*
X207616345Y-45052542D02*
X207687774Y-44909685D01*
X207687774Y-44909685D02*
X207759202Y-44623971D01*
X207759202Y-44623971D02*
X207759202Y-44409685D01*
X207759202Y-44409685D02*
X207687774Y-44123971D01*
X207687774Y-44123971D02*
X207616345Y-43981114D01*
X207616345Y-43981114D02*
X207473488Y-43838257D01*
X207473488Y-43838257D02*
X207259202Y-43766828D01*
X207259202Y-43766828D02*
X207116345Y-43766828D01*
X207116345Y-43766828D02*
X206902059Y-43838257D01*
X206902059Y-43838257D02*
X206830631Y-43909685D01*
X199959938Y-93062900D02*
X199745653Y-93134328D01*
X199745653Y-93134328D02*
X199388510Y-93134328D01*
X199388510Y-93134328D02*
X199245653Y-93062900D01*
X199245653Y-93062900D02*
X199174224Y-92991471D01*
X199174224Y-92991471D02*
X199102795Y-92848614D01*
X199102795Y-92848614D02*
X199102795Y-92705757D01*
X199102795Y-92705757D02*
X199174224Y-92562900D01*
X199174224Y-92562900D02*
X199245653Y-92491471D01*
X199245653Y-92491471D02*
X199388510Y-92420042D01*
X199388510Y-92420042D02*
X199674224Y-92348614D01*
X199674224Y-92348614D02*
X199817081Y-92277185D01*
X199817081Y-92277185D02*
X199888510Y-92205757D01*
X199888510Y-92205757D02*
X199959938Y-92062900D01*
X199959938Y-92062900D02*
X199959938Y-91920042D01*
X199959938Y-91920042D02*
X199888510Y-91777185D01*
X199888510Y-91777185D02*
X199817081Y-91705757D01*
X199817081Y-91705757D02*
X199674224Y-91634328D01*
X199674224Y-91634328D02*
X199317081Y-91634328D01*
X199317081Y-91634328D02*
X199102795Y-91705757D01*
X198459939Y-93134328D02*
X198459939Y-91634328D01*
X198459939Y-91634328D02*
X198102796Y-91634328D01*
X198102796Y-91634328D02*
X197888510Y-91705757D01*
X197888510Y-91705757D02*
X197745653Y-91848614D01*
X197745653Y-91848614D02*
X197674224Y-91991471D01*
X197674224Y-91991471D02*
X197602796Y-92277185D01*
X197602796Y-92277185D02*
X197602796Y-92491471D01*
X197602796Y-92491471D02*
X197674224Y-92777185D01*
X197674224Y-92777185D02*
X197745653Y-92920042D01*
X197745653Y-92920042D02*
X197888510Y-93062900D01*
X197888510Y-93062900D02*
X198102796Y-93134328D01*
X198102796Y-93134328D02*
X198459939Y-93134328D01*
X197031367Y-92705757D02*
X196317082Y-92705757D01*
X197174224Y-93134328D02*
X196674224Y-91634328D01*
X196674224Y-91634328D02*
X196174224Y-93134328D01*
X199750501Y-95602900D02*
X199536216Y-95674328D01*
X199536216Y-95674328D02*
X199179073Y-95674328D01*
X199179073Y-95674328D02*
X199036216Y-95602900D01*
X199036216Y-95602900D02*
X198964787Y-95531471D01*
X198964787Y-95531471D02*
X198893358Y-95388614D01*
X198893358Y-95388614D02*
X198893358Y-95245757D01*
X198893358Y-95245757D02*
X198964787Y-95102900D01*
X198964787Y-95102900D02*
X199036216Y-95031471D01*
X199036216Y-95031471D02*
X199179073Y-94960042D01*
X199179073Y-94960042D02*
X199464787Y-94888614D01*
X199464787Y-94888614D02*
X199607644Y-94817185D01*
X199607644Y-94817185D02*
X199679073Y-94745757D01*
X199679073Y-94745757D02*
X199750501Y-94602900D01*
X199750501Y-94602900D02*
X199750501Y-94460042D01*
X199750501Y-94460042D02*
X199679073Y-94317185D01*
X199679073Y-94317185D02*
X199607644Y-94245757D01*
X199607644Y-94245757D02*
X199464787Y-94174328D01*
X199464787Y-94174328D02*
X199107644Y-94174328D01*
X199107644Y-94174328D02*
X198893358Y-94245757D01*
X197393359Y-95531471D02*
X197464787Y-95602900D01*
X197464787Y-95602900D02*
X197679073Y-95674328D01*
X197679073Y-95674328D02*
X197821930Y-95674328D01*
X197821930Y-95674328D02*
X198036216Y-95602900D01*
X198036216Y-95602900D02*
X198179073Y-95460042D01*
X198179073Y-95460042D02*
X198250502Y-95317185D01*
X198250502Y-95317185D02*
X198321930Y-95031471D01*
X198321930Y-95031471D02*
X198321930Y-94817185D01*
X198321930Y-94817185D02*
X198250502Y-94531471D01*
X198250502Y-94531471D02*
X198179073Y-94388614D01*
X198179073Y-94388614D02*
X198036216Y-94245757D01*
X198036216Y-94245757D02*
X197821930Y-94174328D01*
X197821930Y-94174328D02*
X197679073Y-94174328D01*
X197679073Y-94174328D02*
X197464787Y-94245757D01*
X197464787Y-94245757D02*
X197393359Y-94317185D01*
X196036216Y-95674328D02*
X196750502Y-95674328D01*
X196750502Y-95674328D02*
X196750502Y-94174328D01*
X199205939Y-96649757D02*
X199348797Y-96578328D01*
X199348797Y-96578328D02*
X199563082Y-96578328D01*
X199563082Y-96578328D02*
X199777368Y-96649757D01*
X199777368Y-96649757D02*
X199920225Y-96792614D01*
X199920225Y-96792614D02*
X199991654Y-96935471D01*
X199991654Y-96935471D02*
X200063082Y-97221185D01*
X200063082Y-97221185D02*
X200063082Y-97435471D01*
X200063082Y-97435471D02*
X199991654Y-97721185D01*
X199991654Y-97721185D02*
X199920225Y-97864042D01*
X199920225Y-97864042D02*
X199777368Y-98006900D01*
X199777368Y-98006900D02*
X199563082Y-98078328D01*
X199563082Y-98078328D02*
X199420225Y-98078328D01*
X199420225Y-98078328D02*
X199205939Y-98006900D01*
X199205939Y-98006900D02*
X199134511Y-97935471D01*
X199134511Y-97935471D02*
X199134511Y-97435471D01*
X199134511Y-97435471D02*
X199420225Y-97435471D01*
X198491654Y-98078328D02*
X198491654Y-96578328D01*
X198491654Y-96578328D02*
X197634511Y-98078328D01*
X197634511Y-98078328D02*
X197634511Y-96578328D01*
X196920225Y-98078328D02*
X196920225Y-96578328D01*
X196920225Y-96578328D02*
X196563082Y-96578328D01*
X196563082Y-96578328D02*
X196348796Y-96649757D01*
X196348796Y-96649757D02*
X196205939Y-96792614D01*
X196205939Y-96792614D02*
X196134510Y-96935471D01*
X196134510Y-96935471D02*
X196063082Y-97221185D01*
X196063082Y-97221185D02*
X196063082Y-97435471D01*
X196063082Y-97435471D02*
X196134510Y-97721185D01*
X196134510Y-97721185D02*
X196205939Y-97864042D01*
X196205939Y-97864042D02*
X196348796Y-98006900D01*
X196348796Y-98006900D02*
X196563082Y-98078328D01*
X196563082Y-98078328D02*
X196920225Y-98078328D01*
X199920224Y-99428328D02*
X199420224Y-100928328D01*
X199420224Y-100928328D02*
X198920224Y-99428328D01*
X197563082Y-100785471D02*
X197634510Y-100856900D01*
X197634510Y-100856900D02*
X197848796Y-100928328D01*
X197848796Y-100928328D02*
X197991653Y-100928328D01*
X197991653Y-100928328D02*
X198205939Y-100856900D01*
X198205939Y-100856900D02*
X198348796Y-100714042D01*
X198348796Y-100714042D02*
X198420225Y-100571185D01*
X198420225Y-100571185D02*
X198491653Y-100285471D01*
X198491653Y-100285471D02*
X198491653Y-100071185D01*
X198491653Y-100071185D02*
X198420225Y-99785471D01*
X198420225Y-99785471D02*
X198348796Y-99642614D01*
X198348796Y-99642614D02*
X198205939Y-99499757D01*
X198205939Y-99499757D02*
X197991653Y-99428328D01*
X197991653Y-99428328D02*
X197848796Y-99428328D01*
X197848796Y-99428328D02*
X197634510Y-99499757D01*
X197634510Y-99499757D02*
X197563082Y-99571185D01*
X196063082Y-100785471D02*
X196134510Y-100856900D01*
X196134510Y-100856900D02*
X196348796Y-100928328D01*
X196348796Y-100928328D02*
X196491653Y-100928328D01*
X196491653Y-100928328D02*
X196705939Y-100856900D01*
X196705939Y-100856900D02*
X196848796Y-100714042D01*
X196848796Y-100714042D02*
X196920225Y-100571185D01*
X196920225Y-100571185D02*
X196991653Y-100285471D01*
X196991653Y-100285471D02*
X196991653Y-100071185D01*
X196991653Y-100071185D02*
X196920225Y-99785471D01*
X196920225Y-99785471D02*
X196848796Y-99642614D01*
X196848796Y-99642614D02*
X196705939Y-99499757D01*
X196705939Y-99499757D02*
X196491653Y-99428328D01*
X196491653Y-99428328D02*
X196348796Y-99428328D01*
X196348796Y-99428328D02*
X196134510Y-99499757D01*
X196134510Y-99499757D02*
X196063082Y-99571185D01*
D11*
G36*
X229139175Y-82754628D02*
G01*
X229706991Y-82950609D01*
X229706991Y-83018997D01*
X229139175Y-83214977D01*
X229139175Y-83133107D01*
X229595030Y-82985389D01*
X229139175Y-82837475D01*
X229139175Y-82754628D01*
G37*
G36*
X229515016Y-83306240D02*
G01*
X229554916Y-83311557D01*
X229601339Y-83324160D01*
X229640019Y-83343064D01*
X229670959Y-83368270D01*
X229694160Y-83399777D01*
X229709626Y-83437586D01*
X229717357Y-83481696D01*
X229718323Y-83506114D01*
X229714458Y-83553586D01*
X229702860Y-83594735D01*
X229683527Y-83629560D01*
X229656457Y-83658058D01*
X229621647Y-83680227D01*
X229579096Y-83696065D01*
X229528800Y-83705570D01*
X229485996Y-83708540D01*
X229470759Y-83708738D01*
X229166139Y-83708738D01*
X229122670Y-83706956D01*
X229083485Y-83701609D01*
X229037900Y-83688938D01*
X228999924Y-83669934D01*
X228969552Y-83644600D01*
X228942274Y-83604034D01*
X228928995Y-83564466D01*
X228923306Y-83518575D01*
X228923069Y-83506114D01*
X228996928Y-83506114D01*
X229002115Y-83546336D01*
X229021575Y-83582666D01*
X229040696Y-83598927D01*
X229077585Y-83614946D01*
X229118001Y-83623107D01*
X229161681Y-83626624D01*
X229186265Y-83627063D01*
X229455127Y-83627063D01*
X229496869Y-83625717D01*
X229537811Y-83620881D01*
X229578789Y-83609890D01*
X229600696Y-83598927D01*
X229628936Y-83570138D01*
X229642191Y-83532710D01*
X229644269Y-83506114D01*
X229639135Y-83465822D01*
X229619787Y-83429700D01*
X229600696Y-83413693D01*
X229563762Y-83398007D01*
X229523305Y-83390017D01*
X229479655Y-83386573D01*
X229455127Y-83386142D01*
X229186265Y-83386142D01*
X229144445Y-83387461D01*
X229103504Y-83392196D01*
X229062581Y-83402958D01*
X229040696Y-83413693D01*
X229012386Y-83442115D01*
X228999029Y-83479445D01*
X228996928Y-83506114D01*
X228923069Y-83506114D01*
X228926861Y-83458853D01*
X228938242Y-83417894D01*
X228957216Y-83383236D01*
X228991618Y-83348775D01*
X229027693Y-83328295D01*
X229071375Y-83314117D01*
X229122670Y-83306240D01*
X229166139Y-83304468D01*
X229470759Y-83304468D01*
X229515016Y-83306240D01*
G37*
G36*
X229604018Y-83841606D02*
G01*
X229706991Y-83841606D01*
X229706991Y-83940281D01*
X229604018Y-83940281D01*
X229604018Y-83841606D01*
G37*
G36*
X229028386Y-84188822D02*
G01*
X229706991Y-84188822D01*
X229706991Y-84269520D01*
X228934206Y-84269520D01*
X228934206Y-84187845D01*
X229036202Y-84055563D01*
X229128037Y-84055563D01*
X229028386Y-84188822D01*
G37*
G36*
X229640947Y-84676917D02*
G01*
X229706991Y-84676917D01*
X229706991Y-85068878D01*
X229634304Y-85068878D01*
X229634304Y-84777740D01*
X229311708Y-85001662D01*
X229277691Y-85024551D01*
X229241956Y-85043952D01*
X229223194Y-85052074D01*
X229185111Y-85063534D01*
X229145232Y-85068613D01*
X229133508Y-85068878D01*
X229114555Y-85068878D01*
X229072550Y-85064911D01*
X229033798Y-85053012D01*
X229017053Y-85044844D01*
X228984654Y-85021848D01*
X228958367Y-84991964D01*
X228948275Y-84975870D01*
X228931955Y-84937281D01*
X228924275Y-84897746D01*
X228923069Y-84872897D01*
X228926400Y-84830356D01*
X228936380Y-84792395D01*
X228955533Y-84755117D01*
X228976216Y-84730064D01*
X229008877Y-84704316D01*
X229046903Y-84687048D01*
X229085270Y-84678774D01*
X229116900Y-84676917D01*
X229141519Y-84676917D01*
X229141519Y-84757419D01*
X229121198Y-84757419D01*
X229079230Y-84761696D01*
X229040812Y-84777437D01*
X229027800Y-84787706D01*
X229004825Y-84820990D01*
X228996039Y-84860907D01*
X228995755Y-84870553D01*
X229001160Y-84909851D01*
X229020757Y-84946402D01*
X229028386Y-84954572D01*
X229061196Y-84976050D01*
X229099901Y-84985259D01*
X229116900Y-84986031D01*
X229133508Y-84986031D01*
X229173814Y-84981222D01*
X229211686Y-84968672D01*
X229246640Y-84950977D01*
X229269112Y-84936791D01*
X229640947Y-84676917D01*
G37*
G36*
X229515016Y-85210162D02*
G01*
X229554916Y-85215479D01*
X229601339Y-85228081D01*
X229640019Y-85246986D01*
X229670959Y-85272192D01*
X229694160Y-85303699D01*
X229709626Y-85341508D01*
X229717357Y-85385618D01*
X229718323Y-85410036D01*
X229714458Y-85457508D01*
X229702860Y-85498657D01*
X229683527Y-85533482D01*
X229656457Y-85561980D01*
X229621647Y-85584149D01*
X229579096Y-85599987D01*
X229528800Y-85609491D01*
X229485996Y-85612462D01*
X229470759Y-85612660D01*
X229166139Y-85612660D01*
X229122670Y-85610878D01*
X229083485Y-85605531D01*
X229037900Y-85592860D01*
X228999924Y-85573856D01*
X228969552Y-85548522D01*
X228942274Y-85507956D01*
X228928995Y-85468388D01*
X228923306Y-85422497D01*
X228923069Y-85410036D01*
X228996928Y-85410036D01*
X229002115Y-85450258D01*
X229021575Y-85486588D01*
X229040696Y-85502849D01*
X229077585Y-85518868D01*
X229118001Y-85527029D01*
X229161681Y-85530546D01*
X229186265Y-85530985D01*
X229455127Y-85530985D01*
X229496869Y-85529639D01*
X229537811Y-85524803D01*
X229578789Y-85513812D01*
X229600696Y-85502849D01*
X229628936Y-85474060D01*
X229642191Y-85436631D01*
X229644269Y-85410036D01*
X229639135Y-85369744D01*
X229619787Y-85333622D01*
X229600696Y-85317615D01*
X229563762Y-85301929D01*
X229523305Y-85293938D01*
X229479655Y-85290495D01*
X229455127Y-85290064D01*
X229186265Y-85290064D01*
X229144445Y-85291383D01*
X229103504Y-85296118D01*
X229062581Y-85306880D01*
X229040696Y-85317615D01*
X229012386Y-85346037D01*
X228999029Y-85383367D01*
X228996928Y-85410036D01*
X228923069Y-85410036D01*
X228926861Y-85362775D01*
X228938242Y-85321816D01*
X228957216Y-85287158D01*
X228991618Y-85252697D01*
X229027693Y-85232217D01*
X229071375Y-85218039D01*
X229122670Y-85210162D01*
X229166139Y-85208389D01*
X229470759Y-85208389D01*
X229515016Y-85210162D01*
G37*
G36*
X229640947Y-85752367D02*
G01*
X229706991Y-85752367D01*
X229706991Y-86144328D01*
X229634304Y-86144328D01*
X229634304Y-85853190D01*
X229311708Y-86077112D01*
X229277691Y-86100001D01*
X229241956Y-86119402D01*
X229223194Y-86127524D01*
X229185111Y-86138984D01*
X229145232Y-86144063D01*
X229133508Y-86144328D01*
X229114555Y-86144328D01*
X229072550Y-86140362D01*
X229033798Y-86128462D01*
X229017053Y-86120294D01*
X228984654Y-86097298D01*
X228958367Y-86067414D01*
X228948275Y-86051320D01*
X228931955Y-86012731D01*
X228924275Y-85973196D01*
X228923069Y-85948348D01*
X228926400Y-85905807D01*
X228936380Y-85867845D01*
X228955533Y-85830567D01*
X228976216Y-85805514D01*
X229008877Y-85779766D01*
X229046903Y-85762498D01*
X229085270Y-85754224D01*
X229116900Y-85752367D01*
X229141519Y-85752367D01*
X229141519Y-85832869D01*
X229121198Y-85832869D01*
X229079230Y-85837146D01*
X229040812Y-85852887D01*
X229027800Y-85863156D01*
X229004825Y-85896440D01*
X228996039Y-85936357D01*
X228995755Y-85946003D01*
X229001160Y-85985301D01*
X229020757Y-86021852D01*
X229028386Y-86030022D01*
X229061196Y-86051500D01*
X229099901Y-86060709D01*
X229116900Y-86061481D01*
X229133508Y-86061481D01*
X229173814Y-86056672D01*
X229211686Y-86044122D01*
X229246640Y-86026427D01*
X229269112Y-86012241D01*
X229640947Y-85752367D01*
G37*
G36*
X229555951Y-86717224D02*
G01*
X229481896Y-86717224D01*
X229481896Y-86633204D01*
X229271457Y-86633204D01*
X229271457Y-86551530D01*
X229481896Y-86551530D01*
X229481896Y-86343239D01*
X228934206Y-86574977D01*
X228934206Y-86493302D01*
X229481896Y-86261369D01*
X229555951Y-86261369D01*
X229555951Y-86551530D01*
X229706991Y-86551530D01*
X229706991Y-86633204D01*
X229555951Y-86633204D01*
X229555951Y-86717224D01*
G37*
G36*
X228934206Y-89488502D02*
G01*
X229035030Y-89488502D01*
X229035030Y-89569200D01*
X228934206Y-89569200D01*
X228934206Y-89488502D01*
G37*
G36*
X229807814Y-89374392D02*
G01*
X229877374Y-89374392D01*
X229877374Y-89428125D01*
X229873653Y-89467652D01*
X229859365Y-89506722D01*
X229839272Y-89532270D01*
X229805822Y-89554060D01*
X229766562Y-89565199D01*
X229728288Y-89568027D01*
X229139175Y-89568027D01*
X229139175Y-89491824D01*
X229723794Y-89491824D01*
X229763645Y-89487133D01*
X229787688Y-89475020D01*
X229806233Y-89439945D01*
X229807814Y-89420309D01*
X229807814Y-89374392D01*
G37*
G36*
X228934206Y-89744273D02*
G01*
X229706991Y-89744273D01*
X229706991Y-89820477D01*
X229345316Y-89820477D01*
X229305038Y-89824032D01*
X229264916Y-89837718D01*
X229238240Y-89857016D01*
X229213950Y-89890511D01*
X229202519Y-89928471D01*
X229200724Y-89953736D01*
X229205141Y-89993005D01*
X229221662Y-90031084D01*
X229237849Y-90050065D01*
X229273382Y-90072612D01*
X229312120Y-90082681D01*
X229345316Y-90084845D01*
X229706991Y-90084845D01*
X229706991Y-90161049D01*
X229334178Y-90161049D01*
X229294093Y-90158665D01*
X229253418Y-90150101D01*
X229214185Y-90133022D01*
X229185092Y-90111224D01*
X229159713Y-90080136D01*
X229142613Y-90042929D01*
X229134385Y-90004717D01*
X229132531Y-89972884D01*
X229136178Y-89931130D01*
X229149275Y-89889182D01*
X229171898Y-89853388D01*
X229204047Y-89823749D01*
X229208735Y-89820477D01*
X228934206Y-89820477D01*
X228934206Y-89744273D01*
G37*
G36*
X229706991Y-90405096D02*
G01*
X229631959Y-90405096D01*
X229663834Y-90428574D01*
X229690698Y-90462344D01*
X229707342Y-90503514D01*
X229713509Y-90545609D01*
X229713829Y-90558676D01*
X229710279Y-90598720D01*
X229697811Y-90639302D01*
X229676398Y-90675155D01*
X229657165Y-90696429D01*
X229624928Y-90719910D01*
X229584796Y-90736705D01*
X229543218Y-90745901D01*
X229502789Y-90749689D01*
X229480919Y-90750163D01*
X229364269Y-90750163D01*
X229321560Y-90748227D01*
X229277390Y-90741082D01*
X229239289Y-90728687D01*
X229203146Y-90708107D01*
X229188023Y-90695257D01*
X229160660Y-90661835D01*
X229142226Y-90623246D01*
X229133357Y-90584628D01*
X229131359Y-90553010D01*
X229132424Y-90542849D01*
X229200724Y-90542849D01*
X229206637Y-90587382D01*
X229224372Y-90622716D01*
X229253920Y-90648843D01*
X229295273Y-90665756D01*
X229338748Y-90672805D01*
X229368763Y-90673959D01*
X229476425Y-90673959D01*
X229516057Y-90671981D01*
X229558156Y-90663944D01*
X229597766Y-90646138D01*
X229628949Y-90614113D01*
X229642803Y-90577019D01*
X229645441Y-90547344D01*
X229640805Y-90507186D01*
X229624993Y-90470508D01*
X229597960Y-90441635D01*
X229561922Y-90420803D01*
X229523589Y-90409399D01*
X229484524Y-90405239D01*
X229475253Y-90405096D01*
X229375602Y-90405096D01*
X229333309Y-90407837D01*
X229292299Y-90417330D01*
X229254461Y-90435654D01*
X229248400Y-90439877D01*
X229219405Y-90470586D01*
X229204517Y-90507083D01*
X229200724Y-90542849D01*
X229132424Y-90542849D01*
X229135639Y-90512170D01*
X229149799Y-90473392D01*
X229153829Y-90466255D01*
X229179200Y-90434087D01*
X229210907Y-90409621D01*
X229218700Y-90405096D01*
X228934206Y-90405096D01*
X228934206Y-90328893D01*
X229706991Y-90328893D01*
X229706991Y-90405096D01*
G37*
G36*
X229139175Y-90899444D02*
G01*
X229706991Y-90899444D01*
X229706991Y-90975648D01*
X229347465Y-90975648D01*
X229305789Y-90979950D01*
X229266914Y-90994495D01*
X229242343Y-91012187D01*
X229216155Y-91045308D01*
X229203318Y-91085667D01*
X229201896Y-91106757D01*
X229205738Y-91145954D01*
X229210884Y-91164985D01*
X229134681Y-91164985D01*
X229131362Y-91124897D01*
X229131359Y-91123561D01*
X229135302Y-91083235D01*
X229148354Y-91044098D01*
X229152071Y-91036806D01*
X229176345Y-91003885D01*
X229207601Y-90979201D01*
X229215378Y-90974671D01*
X229139175Y-90974671D01*
X229139175Y-90899444D01*
G37*
G36*
X229658337Y-91329116D02*
G01*
X229685134Y-91362458D01*
X229701613Y-91398833D01*
X229711167Y-91441587D01*
X229713829Y-91484259D01*
X229711167Y-91527764D01*
X229703187Y-91566196D01*
X229687572Y-91603874D01*
X229661746Y-91638257D01*
X229658337Y-91641551D01*
X229623325Y-91666771D01*
X229585720Y-91682259D01*
X229541995Y-91691225D01*
X229498700Y-91693722D01*
X229139175Y-91693722D01*
X229139175Y-91617518D01*
X229488735Y-91617518D01*
X229530692Y-91615111D01*
X229569403Y-91606813D01*
X229604917Y-91589089D01*
X229607339Y-91587232D01*
X229632009Y-91555848D01*
X229643618Y-91514753D01*
X229645441Y-91485431D01*
X229641612Y-91444616D01*
X229626942Y-91406368D01*
X229606362Y-91383436D01*
X229571394Y-91365009D01*
X229529689Y-91355556D01*
X229488735Y-91353150D01*
X229139175Y-91353150D01*
X229139175Y-91276946D01*
X229498700Y-91276946D01*
X229541995Y-91279442D01*
X229580590Y-91286931D01*
X229618959Y-91301604D01*
X229654828Y-91325906D01*
X229658337Y-91329116D01*
G37*
G36*
X228934206Y-91861565D02*
G01*
X229706991Y-91861565D01*
X229706991Y-91937769D01*
X229345316Y-91937769D01*
X229305038Y-91941324D01*
X229264916Y-91955011D01*
X229238240Y-91974308D01*
X229213950Y-92007803D01*
X229202519Y-92045763D01*
X229200724Y-92071028D01*
X229205141Y-92110297D01*
X229221662Y-92148377D01*
X229237849Y-92167357D01*
X229273382Y-92189904D01*
X229312120Y-92199973D01*
X229345316Y-92202138D01*
X229706991Y-92202138D01*
X229706991Y-92278341D01*
X229334178Y-92278341D01*
X229294093Y-92275957D01*
X229253418Y-92267393D01*
X229214185Y-92250315D01*
X229185092Y-92228516D01*
X229159713Y-92197429D01*
X229142613Y-92160221D01*
X229134385Y-92122009D01*
X229132531Y-92090177D01*
X229136178Y-92048423D01*
X229149275Y-92006474D01*
X229171898Y-91970680D01*
X229204047Y-91941041D01*
X229208735Y-91937769D01*
X228934206Y-91937769D01*
X228934206Y-91861565D01*
G37*
G36*
X229139175Y-92446185D02*
G01*
X229706991Y-92446185D01*
X229706991Y-92522389D01*
X229345316Y-92522389D01*
X229305038Y-92525944D01*
X229264916Y-92539630D01*
X229238240Y-92558928D01*
X229213950Y-92592423D01*
X229202519Y-92630383D01*
X229200724Y-92655648D01*
X229205141Y-92694917D01*
X229221662Y-92732996D01*
X229237849Y-92751977D01*
X229273382Y-92774524D01*
X229312120Y-92784593D01*
X229345316Y-92786757D01*
X229706991Y-92786757D01*
X229706991Y-92862961D01*
X229334178Y-92862961D01*
X229294522Y-92860633D01*
X229254130Y-92852271D01*
X229214954Y-92835594D01*
X229185679Y-92814308D01*
X229160016Y-92783484D01*
X229142725Y-92746075D01*
X229134405Y-92707295D01*
X229132531Y-92674796D01*
X229136138Y-92633507D01*
X229147024Y-92595808D01*
X229151485Y-92585697D01*
X229173575Y-92551765D01*
X229204046Y-92524547D01*
X229208735Y-92521412D01*
X229139175Y-92521412D01*
X229139175Y-92446185D01*
G37*
X192778333Y-101765816D02*
X192778333Y-102480101D01*
X192778333Y-102480101D02*
X192825952Y-102622958D01*
X192825952Y-102622958D02*
X192921190Y-102718197D01*
X192921190Y-102718197D02*
X193064047Y-102765816D01*
X193064047Y-102765816D02*
X193159285Y-102765816D01*
X191778333Y-102765816D02*
X192349761Y-102765816D01*
X192064047Y-102765816D02*
X192064047Y-101765816D01*
X192064047Y-101765816D02*
X192159285Y-101908673D01*
X192159285Y-101908673D02*
X192254523Y-102003911D01*
X192254523Y-102003911D02*
X192349761Y-102051530D01*
X157804819Y-67538095D02*
X158614342Y-67538095D01*
X158614342Y-67538095D02*
X158709580Y-67585714D01*
X158709580Y-67585714D02*
X158757200Y-67633333D01*
X158757200Y-67633333D02*
X158804819Y-67728571D01*
X158804819Y-67728571D02*
X158804819Y-67919047D01*
X158804819Y-67919047D02*
X158757200Y-68014285D01*
X158757200Y-68014285D02*
X158709580Y-68061904D01*
X158709580Y-68061904D02*
X158614342Y-68109523D01*
X158614342Y-68109523D02*
X157804819Y-68109523D01*
X158804819Y-69109523D02*
X158804819Y-68538095D01*
X158804819Y-68823809D02*
X157804819Y-68823809D01*
X157804819Y-68823809D02*
X157947676Y-68728571D01*
X157947676Y-68728571D02*
X158042914Y-68633333D01*
X158042914Y-68633333D02*
X158090533Y-68538095D01*
X170170868Y-54143998D02*
X170197805Y-54063185D01*
X170197805Y-54063185D02*
X170278618Y-53982373D01*
X170278618Y-53982373D02*
X170386367Y-53928498D01*
X170386367Y-53928498D02*
X170494117Y-53928498D01*
X170494117Y-53928498D02*
X170574929Y-53955436D01*
X170574929Y-53955436D02*
X170709616Y-54036248D01*
X170709616Y-54036248D02*
X170790428Y-54117060D01*
X170790428Y-54117060D02*
X170871241Y-54251747D01*
X170871241Y-54251747D02*
X170898178Y-54332560D01*
X170898178Y-54332560D02*
X170898178Y-54440309D01*
X170898178Y-54440309D02*
X170844303Y-54548059D01*
X170844303Y-54548059D02*
X170790428Y-54601934D01*
X170790428Y-54601934D02*
X170682679Y-54655808D01*
X170682679Y-54655808D02*
X170628804Y-54655808D01*
X170628804Y-54655808D02*
X170440242Y-54467247D01*
X170440242Y-54467247D02*
X170547992Y-54359497D01*
X170440242Y-54952120D02*
X169874557Y-54386434D01*
X169874557Y-54386434D02*
X169659057Y-54601934D01*
X169659057Y-54601934D02*
X169632120Y-54682746D01*
X169632120Y-54682746D02*
X169632120Y-54736621D01*
X169632120Y-54736621D02*
X169659057Y-54817433D01*
X169659057Y-54817433D02*
X169739870Y-54898245D01*
X169739870Y-54898245D02*
X169820682Y-54925182D01*
X169820682Y-54925182D02*
X169874557Y-54925182D01*
X169874557Y-54925182D02*
X169955369Y-54898245D01*
X169955369Y-54898245D02*
X170170868Y-54682746D01*
X169578245Y-55814117D02*
X169901494Y-55490868D01*
X169739870Y-55652492D02*
X169174184Y-55086807D01*
X169174184Y-55086807D02*
X169308871Y-55113744D01*
X169308871Y-55113744D02*
X169416621Y-55113744D01*
X169416621Y-55113744D02*
X169497433Y-55086807D01*
X169039497Y-56352865D02*
X169362746Y-56029616D01*
X169201121Y-56191240D02*
X168635436Y-55625555D01*
X168635436Y-55625555D02*
X168770123Y-55652492D01*
X168770123Y-55652492D02*
X168877873Y-55652492D01*
X168877873Y-55652492D02*
X168958685Y-55625555D01*
X153091240Y-80451873D02*
X152821866Y-80721247D01*
X153306739Y-80559623D02*
X152552492Y-80182499D01*
X152552492Y-80182499D02*
X152929615Y-80936746D01*
X151905994Y-80882871D02*
X151932932Y-80802059D01*
X151932932Y-80802059D02*
X152013744Y-80721247D01*
X152013744Y-80721247D02*
X152121494Y-80667372D01*
X152121494Y-80667372D02*
X152229243Y-80667372D01*
X152229243Y-80667372D02*
X152310055Y-80694310D01*
X152310055Y-80694310D02*
X152444742Y-80775122D01*
X152444742Y-80775122D02*
X152525555Y-80855934D01*
X152525555Y-80855934D02*
X152606367Y-80990621D01*
X152606367Y-80990621D02*
X152633304Y-81071433D01*
X152633304Y-81071433D02*
X152633304Y-81179183D01*
X152633304Y-81179183D02*
X152579429Y-81286932D01*
X152579429Y-81286932D02*
X152525555Y-81340807D01*
X152525555Y-81340807D02*
X152417805Y-81394682D01*
X152417805Y-81394682D02*
X152363930Y-81394682D01*
X152363930Y-81394682D02*
X152175368Y-81206120D01*
X152175368Y-81206120D02*
X152283118Y-81098371D01*
X152175368Y-81690993D02*
X151609683Y-81125308D01*
X151609683Y-81125308D02*
X151852120Y-82014242D01*
X151852120Y-82014242D02*
X151286434Y-81448557D01*
X151582746Y-82283616D02*
X151017060Y-81717931D01*
X151017060Y-81717931D02*
X150882373Y-81852618D01*
X150882373Y-81852618D02*
X150828498Y-81960367D01*
X150828498Y-81960367D02*
X150828498Y-82068117D01*
X150828498Y-82068117D02*
X150855436Y-82148929D01*
X150855436Y-82148929D02*
X150936248Y-82283616D01*
X150936248Y-82283616D02*
X151017060Y-82364428D01*
X151017060Y-82364428D02*
X151151747Y-82445241D01*
X151151747Y-82445241D02*
X151232560Y-82472178D01*
X151232560Y-82472178D02*
X151340309Y-82472178D01*
X151340309Y-82472178D02*
X151448059Y-82418303D01*
X151448059Y-82418303D02*
X151582746Y-82283616D01*
X177548431Y-80386435D02*
X177575368Y-80305623D01*
X177575368Y-80305623D02*
X177656180Y-80224811D01*
X177656180Y-80224811D02*
X177763930Y-80170936D01*
X177763930Y-80170936D02*
X177871680Y-80170936D01*
X177871680Y-80170936D02*
X177952492Y-80197873D01*
X177952492Y-80197873D02*
X178087179Y-80278685D01*
X178087179Y-80278685D02*
X178167991Y-80359498D01*
X178167991Y-80359498D02*
X178248803Y-80494185D01*
X178248803Y-80494185D02*
X178275741Y-80574997D01*
X178275741Y-80574997D02*
X178275741Y-80682746D01*
X178275741Y-80682746D02*
X178221866Y-80790496D01*
X178221866Y-80790496D02*
X178167991Y-80844371D01*
X178167991Y-80844371D02*
X178060241Y-80898246D01*
X178060241Y-80898246D02*
X178006367Y-80898246D01*
X178006367Y-80898246D02*
X177817805Y-80709684D01*
X177817805Y-80709684D02*
X177925554Y-80601934D01*
X177817805Y-81194557D02*
X177252119Y-80628872D01*
X177252119Y-80628872D02*
X177494556Y-81517806D01*
X177494556Y-81517806D02*
X176928871Y-80952120D01*
X177225182Y-81787180D02*
X176659497Y-81221494D01*
X176659497Y-81221494D02*
X176524810Y-81356181D01*
X176524810Y-81356181D02*
X176470935Y-81463931D01*
X176470935Y-81463931D02*
X176470935Y-81571680D01*
X176470935Y-81571680D02*
X176497872Y-81652493D01*
X176497872Y-81652493D02*
X176578685Y-81787180D01*
X176578685Y-81787180D02*
X176659497Y-81867992D01*
X176659497Y-81867992D02*
X176794184Y-81948804D01*
X176794184Y-81948804D02*
X176874996Y-81975741D01*
X176874996Y-81975741D02*
X176982746Y-81975741D01*
X176982746Y-81975741D02*
X177090495Y-81921867D01*
X177090495Y-81921867D02*
X177225182Y-81787180D01*
X134877585Y-80253406D02*
X135254709Y-81007653D01*
X135254709Y-81007653D02*
X134500462Y-80630529D01*
X134392712Y-81277027D02*
X134338838Y-81384776D01*
X134338838Y-81384776D02*
X134338838Y-81438651D01*
X134338838Y-81438651D02*
X134365775Y-81519463D01*
X134365775Y-81519463D02*
X134446587Y-81600276D01*
X134446587Y-81600276D02*
X134527399Y-81627213D01*
X134527399Y-81627213D02*
X134581274Y-81627213D01*
X134581274Y-81627213D02*
X134662086Y-81600276D01*
X134662086Y-81600276D02*
X134877586Y-81384776D01*
X134877586Y-81384776D02*
X134311900Y-80819091D01*
X134311900Y-80819091D02*
X134123338Y-81007653D01*
X134123338Y-81007653D02*
X134096401Y-81088465D01*
X134096401Y-81088465D02*
X134096401Y-81142340D01*
X134096401Y-81142340D02*
X134123338Y-81223152D01*
X134123338Y-81223152D02*
X134177213Y-81277027D01*
X134177213Y-81277027D02*
X134258025Y-81303964D01*
X134258025Y-81303964D02*
X134311900Y-81303964D01*
X134311900Y-81303964D02*
X134392712Y-81277027D01*
X134392712Y-81277027D02*
X134581274Y-81088465D01*
X133746215Y-81384776D02*
X134204151Y-81842712D01*
X134204151Y-81842712D02*
X134231088Y-81923524D01*
X134231088Y-81923524D02*
X134231088Y-81977399D01*
X134231088Y-81977399D02*
X134204151Y-82058211D01*
X134204151Y-82058211D02*
X134096401Y-82165961D01*
X134096401Y-82165961D02*
X134015589Y-82192898D01*
X134015589Y-82192898D02*
X133961714Y-82192898D01*
X133961714Y-82192898D02*
X133880902Y-82165961D01*
X133880902Y-82165961D02*
X133422966Y-81708025D01*
X133719277Y-82489210D02*
X133665403Y-82596959D01*
X133665403Y-82596959D02*
X133530716Y-82731646D01*
X133530716Y-82731646D02*
X133449903Y-82758584D01*
X133449903Y-82758584D02*
X133396029Y-82758584D01*
X133396029Y-82758584D02*
X133315216Y-82731646D01*
X133315216Y-82731646D02*
X133261342Y-82677771D01*
X133261342Y-82677771D02*
X133234404Y-82596959D01*
X133234404Y-82596959D02*
X133234404Y-82543084D01*
X133234404Y-82543084D02*
X133261342Y-82462272D01*
X133261342Y-82462272D02*
X133342154Y-82327585D01*
X133342154Y-82327585D02*
X133369091Y-82246773D01*
X133369091Y-82246773D02*
X133369091Y-82192898D01*
X133369091Y-82192898D02*
X133342154Y-82112086D01*
X133342154Y-82112086D02*
X133288279Y-82058211D01*
X133288279Y-82058211D02*
X133207467Y-82031274D01*
X133207467Y-82031274D02*
X133153592Y-82031274D01*
X133153592Y-82031274D02*
X133072780Y-82058211D01*
X133072780Y-82058211D02*
X132938093Y-82192898D01*
X132938093Y-82192898D02*
X132884218Y-82300648D01*
X139448431Y-80386435D02*
X139475368Y-80305623D01*
X139475368Y-80305623D02*
X139556180Y-80224811D01*
X139556180Y-80224811D02*
X139663930Y-80170936D01*
X139663930Y-80170936D02*
X139771680Y-80170936D01*
X139771680Y-80170936D02*
X139852492Y-80197873D01*
X139852492Y-80197873D02*
X139987179Y-80278685D01*
X139987179Y-80278685D02*
X140067991Y-80359498D01*
X140067991Y-80359498D02*
X140148803Y-80494185D01*
X140148803Y-80494185D02*
X140175741Y-80574997D01*
X140175741Y-80574997D02*
X140175741Y-80682746D01*
X140175741Y-80682746D02*
X140121866Y-80790496D01*
X140121866Y-80790496D02*
X140067991Y-80844371D01*
X140067991Y-80844371D02*
X139960241Y-80898246D01*
X139960241Y-80898246D02*
X139906367Y-80898246D01*
X139906367Y-80898246D02*
X139717805Y-80709684D01*
X139717805Y-80709684D02*
X139825554Y-80601934D01*
X139717805Y-81194557D02*
X139152119Y-80628872D01*
X139152119Y-80628872D02*
X139394556Y-81517806D01*
X139394556Y-81517806D02*
X138828871Y-80952120D01*
X139125182Y-81787180D02*
X138559497Y-81221494D01*
X138559497Y-81221494D02*
X138424810Y-81356181D01*
X138424810Y-81356181D02*
X138370935Y-81463931D01*
X138370935Y-81463931D02*
X138370935Y-81571680D01*
X138370935Y-81571680D02*
X138397872Y-81652493D01*
X138397872Y-81652493D02*
X138478685Y-81787180D01*
X138478685Y-81787180D02*
X138559497Y-81867992D01*
X138559497Y-81867992D02*
X138694184Y-81948804D01*
X138694184Y-81948804D02*
X138774996Y-81975741D01*
X138774996Y-81975741D02*
X138882746Y-81975741D01*
X138882746Y-81975741D02*
X138990495Y-81921867D01*
X138990495Y-81921867D02*
X139125182Y-81787180D01*
X175250868Y-54289998D02*
X175277805Y-54209185D01*
X175277805Y-54209185D02*
X175358618Y-54128373D01*
X175358618Y-54128373D02*
X175466367Y-54074498D01*
X175466367Y-54074498D02*
X175574117Y-54074498D01*
X175574117Y-54074498D02*
X175654929Y-54101436D01*
X175654929Y-54101436D02*
X175789616Y-54182248D01*
X175789616Y-54182248D02*
X175870428Y-54263060D01*
X175870428Y-54263060D02*
X175951241Y-54397747D01*
X175951241Y-54397747D02*
X175978178Y-54478560D01*
X175978178Y-54478560D02*
X175978178Y-54586309D01*
X175978178Y-54586309D02*
X175924303Y-54694059D01*
X175924303Y-54694059D02*
X175870428Y-54747934D01*
X175870428Y-54747934D02*
X175762679Y-54801808D01*
X175762679Y-54801808D02*
X175708804Y-54801808D01*
X175708804Y-54801808D02*
X175520242Y-54613247D01*
X175520242Y-54613247D02*
X175627992Y-54505497D01*
X175520242Y-55098120D02*
X174954557Y-54532434D01*
X174954557Y-54532434D02*
X174739057Y-54747934D01*
X174739057Y-54747934D02*
X174712120Y-54828746D01*
X174712120Y-54828746D02*
X174712120Y-54882621D01*
X174712120Y-54882621D02*
X174739057Y-54963433D01*
X174739057Y-54963433D02*
X174819870Y-55044245D01*
X174819870Y-55044245D02*
X174900682Y-55071182D01*
X174900682Y-55071182D02*
X174954557Y-55071182D01*
X174954557Y-55071182D02*
X175035369Y-55044245D01*
X175035369Y-55044245D02*
X175250868Y-54828746D01*
X174658245Y-55960117D02*
X174981494Y-55636868D01*
X174819870Y-55798492D02*
X174254184Y-55232807D01*
X174254184Y-55232807D02*
X174388871Y-55259744D01*
X174388871Y-55259744D02*
X174496621Y-55259744D01*
X174496621Y-55259744D02*
X174577433Y-55232807D01*
X173903998Y-55582993D02*
X173553812Y-55933179D01*
X173553812Y-55933179D02*
X173957873Y-55960117D01*
X173957873Y-55960117D02*
X173877060Y-56040929D01*
X173877060Y-56040929D02*
X173850123Y-56121741D01*
X173850123Y-56121741D02*
X173850123Y-56175616D01*
X173850123Y-56175616D02*
X173877060Y-56256428D01*
X173877060Y-56256428D02*
X174011747Y-56391115D01*
X174011747Y-56391115D02*
X174092560Y-56418053D01*
X174092560Y-56418053D02*
X174146434Y-56418053D01*
X174146434Y-56418053D02*
X174227247Y-56391115D01*
X174227247Y-56391115D02*
X174388871Y-56229491D01*
X174388871Y-56229491D02*
X174415808Y-56148679D01*
X174415808Y-56148679D02*
X174415808Y-56094804D01*
X147884049Y-80455064D02*
X147614675Y-80724438D01*
X148099549Y-80562813D02*
X147345301Y-80185690D01*
X147345301Y-80185690D02*
X147722425Y-80939937D01*
X147533863Y-81128499D02*
X146968178Y-80562813D01*
X146968178Y-80562813D02*
X146833491Y-80697500D01*
X146833491Y-80697500D02*
X146779616Y-80805250D01*
X146779616Y-80805250D02*
X146779616Y-80912999D01*
X146779616Y-80912999D02*
X146806553Y-80993812D01*
X146806553Y-80993812D02*
X146887366Y-81128499D01*
X146887366Y-81128499D02*
X146968178Y-81209311D01*
X146968178Y-81209311D02*
X147102865Y-81290123D01*
X147102865Y-81290123D02*
X147183677Y-81317060D01*
X147183677Y-81317060D02*
X147291427Y-81317060D01*
X147291427Y-81317060D02*
X147399176Y-81263186D01*
X147399176Y-81263186D02*
X147533863Y-81128499D01*
X146591054Y-81963558D02*
X146644929Y-81963558D01*
X146644929Y-81963558D02*
X146752679Y-81909683D01*
X146752679Y-81909683D02*
X146806553Y-81855808D01*
X146806553Y-81855808D02*
X146860428Y-81748059D01*
X146860428Y-81748059D02*
X146860428Y-81640309D01*
X146860428Y-81640309D02*
X146833491Y-81559497D01*
X146833491Y-81559497D02*
X146752679Y-81424810D01*
X146752679Y-81424810D02*
X146671866Y-81343998D01*
X146671866Y-81343998D02*
X146537179Y-81263186D01*
X146537179Y-81263186D02*
X146456367Y-81236248D01*
X146456367Y-81236248D02*
X146348618Y-81236248D01*
X146348618Y-81236248D02*
X146240868Y-81290123D01*
X146240868Y-81290123D02*
X146186993Y-81343998D01*
X146186993Y-81343998D02*
X146133118Y-81451747D01*
X146133118Y-81451747D02*
X146133118Y-81505622D01*
X146591054Y-82179057D02*
X146160056Y-82610056D01*
X145486621Y-82044370D02*
X145863744Y-82798618D01*
X145863744Y-82798618D02*
X145109497Y-82421494D01*
X145163372Y-83498990D02*
X145082560Y-83041054D01*
X145486621Y-83175741D02*
X144920935Y-82610056D01*
X144920935Y-82610056D02*
X144705436Y-82825555D01*
X144705436Y-82825555D02*
X144678499Y-82906367D01*
X144678499Y-82906367D02*
X144678499Y-82960242D01*
X144678499Y-82960242D02*
X144705436Y-83041054D01*
X144705436Y-83041054D02*
X144786248Y-83121866D01*
X144786248Y-83121866D02*
X144867061Y-83148804D01*
X144867061Y-83148804D02*
X144920935Y-83148804D01*
X144920935Y-83148804D02*
X145001748Y-83121866D01*
X145001748Y-83121866D02*
X145217247Y-82906367D01*
X144624624Y-83445115D02*
X144436062Y-83633677D01*
X144651561Y-84010800D02*
X144920935Y-83741426D01*
X144920935Y-83741426D02*
X144355250Y-83175741D01*
X144355250Y-83175741D02*
X144085876Y-83445115D01*
X143924251Y-84145488D02*
X144112813Y-83956926D01*
X144409125Y-84253237D02*
X143843439Y-83687552D01*
X143843439Y-83687552D02*
X143574065Y-83956926D01*
X147041494Y-54813372D02*
X147068431Y-54732560D01*
X147068431Y-54732560D02*
X147149243Y-54651748D01*
X147149243Y-54651748D02*
X147256993Y-54597873D01*
X147256993Y-54597873D02*
X147364742Y-54597873D01*
X147364742Y-54597873D02*
X147445555Y-54624810D01*
X147445555Y-54624810D02*
X147580242Y-54705623D01*
X147580242Y-54705623D02*
X147661054Y-54786435D01*
X147661054Y-54786435D02*
X147741866Y-54921122D01*
X147741866Y-54921122D02*
X147768803Y-55001934D01*
X147768803Y-55001934D02*
X147768803Y-55109684D01*
X147768803Y-55109684D02*
X147714929Y-55217433D01*
X147714929Y-55217433D02*
X147661054Y-55271308D01*
X147661054Y-55271308D02*
X147553304Y-55325183D01*
X147553304Y-55325183D02*
X147499429Y-55325183D01*
X147499429Y-55325183D02*
X147310868Y-55136621D01*
X147310868Y-55136621D02*
X147418617Y-55028871D01*
X147310868Y-55621494D02*
X146745182Y-55055809D01*
X146745182Y-55055809D02*
X146529683Y-55271308D01*
X146529683Y-55271308D02*
X146502746Y-55352120D01*
X146502746Y-55352120D02*
X146502746Y-55405995D01*
X146502746Y-55405995D02*
X146529683Y-55486807D01*
X146529683Y-55486807D02*
X146610495Y-55567619D01*
X146610495Y-55567619D02*
X146691307Y-55594557D01*
X146691307Y-55594557D02*
X146745182Y-55594557D01*
X146745182Y-55594557D02*
X146825994Y-55567619D01*
X146825994Y-55567619D02*
X147041494Y-55352120D01*
X146125622Y-56052493D02*
X146502746Y-56429616D01*
X146044810Y-55702306D02*
X146583558Y-55971680D01*
X146583558Y-55971680D02*
X146233372Y-56321867D01*
X157171494Y-54913372D02*
X157198431Y-54832560D01*
X157198431Y-54832560D02*
X157279243Y-54751748D01*
X157279243Y-54751748D02*
X157386993Y-54697873D01*
X157386993Y-54697873D02*
X157494742Y-54697873D01*
X157494742Y-54697873D02*
X157575555Y-54724810D01*
X157575555Y-54724810D02*
X157710242Y-54805623D01*
X157710242Y-54805623D02*
X157791054Y-54886435D01*
X157791054Y-54886435D02*
X157871866Y-55021122D01*
X157871866Y-55021122D02*
X157898803Y-55101934D01*
X157898803Y-55101934D02*
X157898803Y-55209684D01*
X157898803Y-55209684D02*
X157844929Y-55317433D01*
X157844929Y-55317433D02*
X157791054Y-55371308D01*
X157791054Y-55371308D02*
X157683304Y-55425183D01*
X157683304Y-55425183D02*
X157629429Y-55425183D01*
X157629429Y-55425183D02*
X157440868Y-55236621D01*
X157440868Y-55236621D02*
X157548617Y-55128871D01*
X157440868Y-55721494D02*
X156875182Y-55155809D01*
X156875182Y-55155809D02*
X156659683Y-55371308D01*
X156659683Y-55371308D02*
X156632746Y-55452120D01*
X156632746Y-55452120D02*
X156632746Y-55505995D01*
X156632746Y-55505995D02*
X156659683Y-55586807D01*
X156659683Y-55586807D02*
X156740495Y-55667619D01*
X156740495Y-55667619D02*
X156821307Y-55694557D01*
X156821307Y-55694557D02*
X156875182Y-55694557D01*
X156875182Y-55694557D02*
X156955994Y-55667619D01*
X156955994Y-55667619D02*
X157171494Y-55452120D01*
X156363372Y-55667619D02*
X155986248Y-56044743D01*
X155986248Y-56044743D02*
X156794370Y-56367992D01*
X182870868Y-54289998D02*
X182897805Y-54209185D01*
X182897805Y-54209185D02*
X182978618Y-54128373D01*
X182978618Y-54128373D02*
X183086367Y-54074498D01*
X183086367Y-54074498D02*
X183194117Y-54074498D01*
X183194117Y-54074498D02*
X183274929Y-54101436D01*
X183274929Y-54101436D02*
X183409616Y-54182248D01*
X183409616Y-54182248D02*
X183490428Y-54263060D01*
X183490428Y-54263060D02*
X183571241Y-54397747D01*
X183571241Y-54397747D02*
X183598178Y-54478560D01*
X183598178Y-54478560D02*
X183598178Y-54586309D01*
X183598178Y-54586309D02*
X183544303Y-54694059D01*
X183544303Y-54694059D02*
X183490428Y-54747934D01*
X183490428Y-54747934D02*
X183382679Y-54801808D01*
X183382679Y-54801808D02*
X183328804Y-54801808D01*
X183328804Y-54801808D02*
X183140242Y-54613247D01*
X183140242Y-54613247D02*
X183247992Y-54505497D01*
X183140242Y-55098120D02*
X182574557Y-54532434D01*
X182574557Y-54532434D02*
X182359057Y-54747934D01*
X182359057Y-54747934D02*
X182332120Y-54828746D01*
X182332120Y-54828746D02*
X182332120Y-54882621D01*
X182332120Y-54882621D02*
X182359057Y-54963433D01*
X182359057Y-54963433D02*
X182439870Y-55044245D01*
X182439870Y-55044245D02*
X182520682Y-55071182D01*
X182520682Y-55071182D02*
X182574557Y-55071182D01*
X182574557Y-55071182D02*
X182655369Y-55044245D01*
X182655369Y-55044245D02*
X182870868Y-54828746D01*
X182278245Y-55960117D02*
X182601494Y-55636868D01*
X182439870Y-55798492D02*
X181874184Y-55232807D01*
X181874184Y-55232807D02*
X182008871Y-55259744D01*
X182008871Y-55259744D02*
X182116621Y-55259744D01*
X182116621Y-55259744D02*
X182197433Y-55232807D01*
X181200749Y-55906242D02*
X181470123Y-55636868D01*
X181470123Y-55636868D02*
X181766434Y-55879305D01*
X181766434Y-55879305D02*
X181712560Y-55879305D01*
X181712560Y-55879305D02*
X181631747Y-55906242D01*
X181631747Y-55906242D02*
X181497060Y-56040929D01*
X181497060Y-56040929D02*
X181470123Y-56121741D01*
X181470123Y-56121741D02*
X181470123Y-56175616D01*
X181470123Y-56175616D02*
X181497060Y-56256428D01*
X181497060Y-56256428D02*
X181631747Y-56391115D01*
X181631747Y-56391115D02*
X181712560Y-56418053D01*
X181712560Y-56418053D02*
X181766434Y-56418053D01*
X181766434Y-56418053D02*
X181847247Y-56391115D01*
X181847247Y-56391115D02*
X181981934Y-56256428D01*
X181981934Y-56256428D02*
X182008871Y-56175616D01*
X182008871Y-56175616D02*
X182008871Y-56121741D01*
X180330868Y-80397998D02*
X180357805Y-80317185D01*
X180357805Y-80317185D02*
X180438618Y-80236373D01*
X180438618Y-80236373D02*
X180546367Y-80182498D01*
X180546367Y-80182498D02*
X180654117Y-80182498D01*
X180654117Y-80182498D02*
X180734929Y-80209436D01*
X180734929Y-80209436D02*
X180869616Y-80290248D01*
X180869616Y-80290248D02*
X180950428Y-80371060D01*
X180950428Y-80371060D02*
X181031241Y-80505747D01*
X181031241Y-80505747D02*
X181058178Y-80586560D01*
X181058178Y-80586560D02*
X181058178Y-80694309D01*
X181058178Y-80694309D02*
X181004303Y-80802059D01*
X181004303Y-80802059D02*
X180950428Y-80855934D01*
X180950428Y-80855934D02*
X180842679Y-80909808D01*
X180842679Y-80909808D02*
X180788804Y-80909808D01*
X180788804Y-80909808D02*
X180600242Y-80721247D01*
X180600242Y-80721247D02*
X180707992Y-80613497D01*
X180600242Y-81206120D02*
X180034557Y-80640434D01*
X180034557Y-80640434D02*
X179819057Y-80855934D01*
X179819057Y-80855934D02*
X179792120Y-80936746D01*
X179792120Y-80936746D02*
X179792120Y-80990621D01*
X179792120Y-80990621D02*
X179819057Y-81071433D01*
X179819057Y-81071433D02*
X179899870Y-81152245D01*
X179899870Y-81152245D02*
X179980682Y-81179182D01*
X179980682Y-81179182D02*
X180034557Y-81179182D01*
X180034557Y-81179182D02*
X180115369Y-81152245D01*
X180115369Y-81152245D02*
X180330868Y-80936746D01*
X179738245Y-82068117D02*
X180061494Y-81744868D01*
X179899870Y-81906492D02*
X179334184Y-81340807D01*
X179334184Y-81340807D02*
X179468871Y-81367744D01*
X179468871Y-81367744D02*
X179576621Y-81367744D01*
X179576621Y-81367744D02*
X179657433Y-81340807D01*
X178983998Y-81690993D02*
X178606874Y-82068117D01*
X178606874Y-82068117D02*
X179414996Y-82391366D01*
X157470868Y-80397998D02*
X157497805Y-80317185D01*
X157497805Y-80317185D02*
X157578618Y-80236373D01*
X157578618Y-80236373D02*
X157686367Y-80182498D01*
X157686367Y-80182498D02*
X157794117Y-80182498D01*
X157794117Y-80182498D02*
X157874929Y-80209436D01*
X157874929Y-80209436D02*
X158009616Y-80290248D01*
X158009616Y-80290248D02*
X158090428Y-80371060D01*
X158090428Y-80371060D02*
X158171241Y-80505747D01*
X158171241Y-80505747D02*
X158198178Y-80586560D01*
X158198178Y-80586560D02*
X158198178Y-80694309D01*
X158198178Y-80694309D02*
X158144303Y-80802059D01*
X158144303Y-80802059D02*
X158090428Y-80855934D01*
X158090428Y-80855934D02*
X157982679Y-80909808D01*
X157982679Y-80909808D02*
X157928804Y-80909808D01*
X157928804Y-80909808D02*
X157740242Y-80721247D01*
X157740242Y-80721247D02*
X157847992Y-80613497D01*
X157740242Y-81206120D02*
X157174557Y-80640434D01*
X157174557Y-80640434D02*
X156959057Y-80855934D01*
X156959057Y-80855934D02*
X156932120Y-80936746D01*
X156932120Y-80936746D02*
X156932120Y-80990621D01*
X156932120Y-80990621D02*
X156959057Y-81071433D01*
X156959057Y-81071433D02*
X157039870Y-81152245D01*
X157039870Y-81152245D02*
X157120682Y-81179182D01*
X157120682Y-81179182D02*
X157174557Y-81179182D01*
X157174557Y-81179182D02*
X157255369Y-81152245D01*
X157255369Y-81152245D02*
X157470868Y-80936746D01*
X156689683Y-81233057D02*
X156635809Y-81233057D01*
X156635809Y-81233057D02*
X156554996Y-81259995D01*
X156554996Y-81259995D02*
X156420309Y-81394682D01*
X156420309Y-81394682D02*
X156393372Y-81475494D01*
X156393372Y-81475494D02*
X156393372Y-81529369D01*
X156393372Y-81529369D02*
X156420309Y-81610181D01*
X156420309Y-81610181D02*
X156474184Y-81664056D01*
X156474184Y-81664056D02*
X156581934Y-81717930D01*
X156581934Y-81717930D02*
X157228431Y-81717930D01*
X157228431Y-81717930D02*
X156878245Y-82068117D01*
X155827686Y-81987305D02*
X155935436Y-81879555D01*
X155935436Y-81879555D02*
X156016248Y-81852618D01*
X156016248Y-81852618D02*
X156070123Y-81852618D01*
X156070123Y-81852618D02*
X156204810Y-81879555D01*
X156204810Y-81879555D02*
X156339497Y-81960367D01*
X156339497Y-81960367D02*
X156554996Y-82175866D01*
X156554996Y-82175866D02*
X156581934Y-82256679D01*
X156581934Y-82256679D02*
X156581934Y-82310553D01*
X156581934Y-82310553D02*
X156554996Y-82391366D01*
X156554996Y-82391366D02*
X156447247Y-82499115D01*
X156447247Y-82499115D02*
X156366434Y-82526053D01*
X156366434Y-82526053D02*
X156312560Y-82526053D01*
X156312560Y-82526053D02*
X156231747Y-82499115D01*
X156231747Y-82499115D02*
X156097060Y-82364428D01*
X156097060Y-82364428D02*
X156070123Y-82283616D01*
X156070123Y-82283616D02*
X156070123Y-82229741D01*
X156070123Y-82229741D02*
X156097060Y-82148929D01*
X156097060Y-82148929D02*
X156204810Y-82041179D01*
X156204810Y-82041179D02*
X156285622Y-82014242D01*
X156285622Y-82014242D02*
X156339497Y-82014242D01*
X156339497Y-82014242D02*
X156420309Y-82041179D01*
X184874200Y-60790475D02*
X184912295Y-60904761D01*
X184912295Y-60904761D02*
X184912295Y-61095237D01*
X184912295Y-61095237D02*
X184874200Y-61171428D01*
X184874200Y-61171428D02*
X184836104Y-61209523D01*
X184836104Y-61209523D02*
X184759914Y-61247618D01*
X184759914Y-61247618D02*
X184683723Y-61247618D01*
X184683723Y-61247618D02*
X184607533Y-61209523D01*
X184607533Y-61209523D02*
X184569438Y-61171428D01*
X184569438Y-61171428D02*
X184531342Y-61095237D01*
X184531342Y-61095237D02*
X184493247Y-60942856D01*
X184493247Y-60942856D02*
X184455152Y-60866666D01*
X184455152Y-60866666D02*
X184417057Y-60828571D01*
X184417057Y-60828571D02*
X184340866Y-60790475D01*
X184340866Y-60790475D02*
X184264676Y-60790475D01*
X184264676Y-60790475D02*
X184188485Y-60828571D01*
X184188485Y-60828571D02*
X184150390Y-60866666D01*
X184150390Y-60866666D02*
X184112295Y-60942856D01*
X184112295Y-60942856D02*
X184112295Y-61133333D01*
X184112295Y-61133333D02*
X184150390Y-61247618D01*
X184112295Y-61514285D02*
X184912295Y-61704761D01*
X184912295Y-61704761D02*
X184340866Y-61857142D01*
X184340866Y-61857142D02*
X184912295Y-62009523D01*
X184912295Y-62009523D02*
X184112295Y-62200000D01*
X184836104Y-62961905D02*
X184874200Y-62923809D01*
X184874200Y-62923809D02*
X184912295Y-62809524D01*
X184912295Y-62809524D02*
X184912295Y-62733333D01*
X184912295Y-62733333D02*
X184874200Y-62619047D01*
X184874200Y-62619047D02*
X184798009Y-62542857D01*
X184798009Y-62542857D02*
X184721819Y-62504762D01*
X184721819Y-62504762D02*
X184569438Y-62466666D01*
X184569438Y-62466666D02*
X184455152Y-62466666D01*
X184455152Y-62466666D02*
X184302771Y-62504762D01*
X184302771Y-62504762D02*
X184226580Y-62542857D01*
X184226580Y-62542857D02*
X184150390Y-62619047D01*
X184150390Y-62619047D02*
X184112295Y-62733333D01*
X184112295Y-62733333D02*
X184112295Y-62809524D01*
X184112295Y-62809524D02*
X184150390Y-62923809D01*
X184150390Y-62923809D02*
X184188485Y-62961905D01*
X184912295Y-63685714D02*
X184912295Y-63304762D01*
X184912295Y-63304762D02*
X184112295Y-63304762D01*
X184912295Y-63952381D02*
X184112295Y-63952381D01*
X184912295Y-64409524D02*
X184455152Y-64066666D01*
X184112295Y-64409524D02*
X184569438Y-63952381D01*
X142308584Y-80222407D02*
X141958398Y-80572593D01*
X141958398Y-80572593D02*
X142362459Y-80599531D01*
X142362459Y-80599531D02*
X142281646Y-80680343D01*
X142281646Y-80680343D02*
X142254709Y-80761155D01*
X142254709Y-80761155D02*
X142254709Y-80815030D01*
X142254709Y-80815030D02*
X142281646Y-80895842D01*
X142281646Y-80895842D02*
X142416333Y-81030529D01*
X142416333Y-81030529D02*
X142497146Y-81057467D01*
X142497146Y-81057467D02*
X142551020Y-81057467D01*
X142551020Y-81057467D02*
X142631833Y-81030529D01*
X142631833Y-81030529D02*
X142793457Y-80868905D01*
X142793457Y-80868905D02*
X142820394Y-80788093D01*
X142820394Y-80788093D02*
X142820394Y-80734218D01*
X141796773Y-80734218D02*
X142173897Y-81488465D01*
X142173897Y-81488465D02*
X141419649Y-81111342D01*
X141284963Y-81246028D02*
X140934776Y-81596215D01*
X140934776Y-81596215D02*
X141338837Y-81623152D01*
X141338837Y-81623152D02*
X141258025Y-81703964D01*
X141258025Y-81703964D02*
X141231088Y-81784776D01*
X141231088Y-81784776D02*
X141231088Y-81838651D01*
X141231088Y-81838651D02*
X141258025Y-81919464D01*
X141258025Y-81919464D02*
X141392712Y-82054151D01*
X141392712Y-82054151D02*
X141473524Y-82081088D01*
X141473524Y-82081088D02*
X141527399Y-82081088D01*
X141527399Y-82081088D02*
X141608211Y-82054151D01*
X141608211Y-82054151D02*
X141769836Y-81892526D01*
X141769836Y-81892526D02*
X141796773Y-81811714D01*
X141796773Y-81811714D02*
X141796773Y-81757839D01*
X141446587Y-82323525D02*
X141015588Y-82754523D01*
X140530715Y-82539024D02*
X140342153Y-82727586D01*
X140557652Y-83104709D02*
X140827026Y-82835335D01*
X140827026Y-82835335D02*
X140261341Y-82269650D01*
X140261341Y-82269650D02*
X139991967Y-82539024D01*
X140315215Y-83347146D02*
X139749530Y-82781461D01*
X139749530Y-82781461D02*
X139991967Y-83670395D01*
X139991967Y-83670395D02*
X139426281Y-83104710D01*
X144840868Y-80190123D02*
X144490682Y-80540309D01*
X144490682Y-80540309D02*
X144894743Y-80567247D01*
X144894743Y-80567247D02*
X144813931Y-80648059D01*
X144813931Y-80648059D02*
X144786993Y-80728871D01*
X144786993Y-80728871D02*
X144786993Y-80782746D01*
X144786993Y-80782746D02*
X144813931Y-80863558D01*
X144813931Y-80863558D02*
X144948618Y-80998245D01*
X144948618Y-80998245D02*
X145029430Y-81025182D01*
X145029430Y-81025182D02*
X145083305Y-81025182D01*
X145083305Y-81025182D02*
X145164117Y-80998245D01*
X145164117Y-80998245D02*
X145325741Y-80836621D01*
X145325741Y-80836621D02*
X145352679Y-80755808D01*
X145352679Y-80755808D02*
X145352679Y-80701934D01*
X144329057Y-80701934D02*
X144706181Y-81456181D01*
X144706181Y-81456181D02*
X143951934Y-81079057D01*
X143817247Y-81213744D02*
X143467061Y-81563930D01*
X143467061Y-81563930D02*
X143871122Y-81590868D01*
X143871122Y-81590868D02*
X143790309Y-81671680D01*
X143790309Y-81671680D02*
X143763372Y-81752492D01*
X143763372Y-81752492D02*
X143763372Y-81806367D01*
X143763372Y-81806367D02*
X143790309Y-81887179D01*
X143790309Y-81887179D02*
X143924996Y-82021866D01*
X143924996Y-82021866D02*
X144005809Y-82048804D01*
X144005809Y-82048804D02*
X144059683Y-82048804D01*
X144059683Y-82048804D02*
X144140496Y-82021866D01*
X144140496Y-82021866D02*
X144302120Y-81860242D01*
X144302120Y-81860242D02*
X144329057Y-81779430D01*
X144329057Y-81779430D02*
X144329057Y-81725555D01*
X159741494Y-54813372D02*
X159768431Y-54732560D01*
X159768431Y-54732560D02*
X159849243Y-54651748D01*
X159849243Y-54651748D02*
X159956993Y-54597873D01*
X159956993Y-54597873D02*
X160064742Y-54597873D01*
X160064742Y-54597873D02*
X160145555Y-54624810D01*
X160145555Y-54624810D02*
X160280242Y-54705623D01*
X160280242Y-54705623D02*
X160361054Y-54786435D01*
X160361054Y-54786435D02*
X160441866Y-54921122D01*
X160441866Y-54921122D02*
X160468803Y-55001934D01*
X160468803Y-55001934D02*
X160468803Y-55109684D01*
X160468803Y-55109684D02*
X160414929Y-55217433D01*
X160414929Y-55217433D02*
X160361054Y-55271308D01*
X160361054Y-55271308D02*
X160253304Y-55325183D01*
X160253304Y-55325183D02*
X160199429Y-55325183D01*
X160199429Y-55325183D02*
X160010868Y-55136621D01*
X160010868Y-55136621D02*
X160118617Y-55028871D01*
X160010868Y-55621494D02*
X159445182Y-55055809D01*
X159445182Y-55055809D02*
X159229683Y-55271308D01*
X159229683Y-55271308D02*
X159202746Y-55352120D01*
X159202746Y-55352120D02*
X159202746Y-55405995D01*
X159202746Y-55405995D02*
X159229683Y-55486807D01*
X159229683Y-55486807D02*
X159310495Y-55567619D01*
X159310495Y-55567619D02*
X159391307Y-55594557D01*
X159391307Y-55594557D02*
X159445182Y-55594557D01*
X159445182Y-55594557D02*
X159525994Y-55567619D01*
X159525994Y-55567619D02*
X159741494Y-55352120D01*
X159041121Y-55944743D02*
X159068059Y-55863931D01*
X159068059Y-55863931D02*
X159068059Y-55810056D01*
X159068059Y-55810056D02*
X159041121Y-55729244D01*
X159041121Y-55729244D02*
X159014184Y-55702306D01*
X159014184Y-55702306D02*
X158933372Y-55675369D01*
X158933372Y-55675369D02*
X158879497Y-55675369D01*
X158879497Y-55675369D02*
X158798685Y-55702306D01*
X158798685Y-55702306D02*
X158690935Y-55810056D01*
X158690935Y-55810056D02*
X158663998Y-55890868D01*
X158663998Y-55890868D02*
X158663998Y-55944743D01*
X158663998Y-55944743D02*
X158690935Y-56025555D01*
X158690935Y-56025555D02*
X158717872Y-56052493D01*
X158717872Y-56052493D02*
X158798685Y-56079430D01*
X158798685Y-56079430D02*
X158852559Y-56079430D01*
X158852559Y-56079430D02*
X158933372Y-56052493D01*
X158933372Y-56052493D02*
X159041121Y-55944743D01*
X159041121Y-55944743D02*
X159121933Y-55917806D01*
X159121933Y-55917806D02*
X159175808Y-55917806D01*
X159175808Y-55917806D02*
X159256620Y-55944743D01*
X159256620Y-55944743D02*
X159364370Y-56052493D01*
X159364370Y-56052493D02*
X159391307Y-56133305D01*
X159391307Y-56133305D02*
X159391307Y-56187180D01*
X159391307Y-56187180D02*
X159364370Y-56267992D01*
X159364370Y-56267992D02*
X159256620Y-56375741D01*
X159256620Y-56375741D02*
X159175808Y-56402679D01*
X159175808Y-56402679D02*
X159121933Y-56402679D01*
X159121933Y-56402679D02*
X159041121Y-56375741D01*
X159041121Y-56375741D02*
X158933372Y-56267992D01*
X158933372Y-56267992D02*
X158906434Y-56187180D01*
X158906434Y-56187180D02*
X158906434Y-56133305D01*
X158906434Y-56133305D02*
X158933372Y-56052493D01*
X182870868Y-80397998D02*
X182897805Y-80317185D01*
X182897805Y-80317185D02*
X182978618Y-80236373D01*
X182978618Y-80236373D02*
X183086367Y-80182498D01*
X183086367Y-80182498D02*
X183194117Y-80182498D01*
X183194117Y-80182498D02*
X183274929Y-80209436D01*
X183274929Y-80209436D02*
X183409616Y-80290248D01*
X183409616Y-80290248D02*
X183490428Y-80371060D01*
X183490428Y-80371060D02*
X183571241Y-80505747D01*
X183571241Y-80505747D02*
X183598178Y-80586560D01*
X183598178Y-80586560D02*
X183598178Y-80694309D01*
X183598178Y-80694309D02*
X183544303Y-80802059D01*
X183544303Y-80802059D02*
X183490428Y-80855934D01*
X183490428Y-80855934D02*
X183382679Y-80909808D01*
X183382679Y-80909808D02*
X183328804Y-80909808D01*
X183328804Y-80909808D02*
X183140242Y-80721247D01*
X183140242Y-80721247D02*
X183247992Y-80613497D01*
X183140242Y-81206120D02*
X182574557Y-80640434D01*
X182574557Y-80640434D02*
X182359057Y-80855934D01*
X182359057Y-80855934D02*
X182332120Y-80936746D01*
X182332120Y-80936746D02*
X182332120Y-80990621D01*
X182332120Y-80990621D02*
X182359057Y-81071433D01*
X182359057Y-81071433D02*
X182439870Y-81152245D01*
X182439870Y-81152245D02*
X182520682Y-81179182D01*
X182520682Y-81179182D02*
X182574557Y-81179182D01*
X182574557Y-81179182D02*
X182655369Y-81152245D01*
X182655369Y-81152245D02*
X182870868Y-80936746D01*
X182278245Y-82068117D02*
X182601494Y-81744868D01*
X182439870Y-81906492D02*
X181874184Y-81340807D01*
X181874184Y-81340807D02*
X182008871Y-81367744D01*
X182008871Y-81367744D02*
X182116621Y-81367744D01*
X182116621Y-81367744D02*
X182197433Y-81340807D01*
X181227686Y-81987305D02*
X181335436Y-81879555D01*
X181335436Y-81879555D02*
X181416248Y-81852618D01*
X181416248Y-81852618D02*
X181470123Y-81852618D01*
X181470123Y-81852618D02*
X181604810Y-81879555D01*
X181604810Y-81879555D02*
X181739497Y-81960367D01*
X181739497Y-81960367D02*
X181954996Y-82175866D01*
X181954996Y-82175866D02*
X181981934Y-82256679D01*
X181981934Y-82256679D02*
X181981934Y-82310553D01*
X181981934Y-82310553D02*
X181954996Y-82391366D01*
X181954996Y-82391366D02*
X181847247Y-82499115D01*
X181847247Y-82499115D02*
X181766434Y-82526053D01*
X181766434Y-82526053D02*
X181712560Y-82526053D01*
X181712560Y-82526053D02*
X181631747Y-82499115D01*
X181631747Y-82499115D02*
X181497060Y-82364428D01*
X181497060Y-82364428D02*
X181470123Y-82283616D01*
X181470123Y-82283616D02*
X181470123Y-82229741D01*
X181470123Y-82229741D02*
X181497060Y-82148929D01*
X181497060Y-82148929D02*
X181604810Y-82041179D01*
X181604810Y-82041179D02*
X181685622Y-82014242D01*
X181685622Y-82014242D02*
X181739497Y-82014242D01*
X181739497Y-82014242D02*
X181820309Y-82041179D01*
X164848431Y-80386435D02*
X164875368Y-80305623D01*
X164875368Y-80305623D02*
X164956180Y-80224811D01*
X164956180Y-80224811D02*
X165063930Y-80170936D01*
X165063930Y-80170936D02*
X165171680Y-80170936D01*
X165171680Y-80170936D02*
X165252492Y-80197873D01*
X165252492Y-80197873D02*
X165387179Y-80278685D01*
X165387179Y-80278685D02*
X165467991Y-80359498D01*
X165467991Y-80359498D02*
X165548803Y-80494185D01*
X165548803Y-80494185D02*
X165575741Y-80574997D01*
X165575741Y-80574997D02*
X165575741Y-80682746D01*
X165575741Y-80682746D02*
X165521866Y-80790496D01*
X165521866Y-80790496D02*
X165467991Y-80844371D01*
X165467991Y-80844371D02*
X165360241Y-80898246D01*
X165360241Y-80898246D02*
X165306367Y-80898246D01*
X165306367Y-80898246D02*
X165117805Y-80709684D01*
X165117805Y-80709684D02*
X165225554Y-80601934D01*
X165117805Y-81194557D02*
X164552119Y-80628872D01*
X164552119Y-80628872D02*
X164794556Y-81517806D01*
X164794556Y-81517806D02*
X164228871Y-80952120D01*
X164525182Y-81787180D02*
X163959497Y-81221494D01*
X163959497Y-81221494D02*
X163824810Y-81356181D01*
X163824810Y-81356181D02*
X163770935Y-81463931D01*
X163770935Y-81463931D02*
X163770935Y-81571680D01*
X163770935Y-81571680D02*
X163797872Y-81652493D01*
X163797872Y-81652493D02*
X163878685Y-81787180D01*
X163878685Y-81787180D02*
X163959497Y-81867992D01*
X163959497Y-81867992D02*
X164094184Y-81948804D01*
X164094184Y-81948804D02*
X164174996Y-81975741D01*
X164174996Y-81975741D02*
X164282746Y-81975741D01*
X164282746Y-81975741D02*
X164390495Y-81921867D01*
X164390495Y-81921867D02*
X164525182Y-81787180D01*
X152148431Y-54786435D02*
X152175368Y-54705623D01*
X152175368Y-54705623D02*
X152256180Y-54624811D01*
X152256180Y-54624811D02*
X152363930Y-54570936D01*
X152363930Y-54570936D02*
X152471680Y-54570936D01*
X152471680Y-54570936D02*
X152552492Y-54597873D01*
X152552492Y-54597873D02*
X152687179Y-54678685D01*
X152687179Y-54678685D02*
X152767991Y-54759498D01*
X152767991Y-54759498D02*
X152848803Y-54894185D01*
X152848803Y-54894185D02*
X152875741Y-54974997D01*
X152875741Y-54974997D02*
X152875741Y-55082746D01*
X152875741Y-55082746D02*
X152821866Y-55190496D01*
X152821866Y-55190496D02*
X152767991Y-55244371D01*
X152767991Y-55244371D02*
X152660241Y-55298246D01*
X152660241Y-55298246D02*
X152606367Y-55298246D01*
X152606367Y-55298246D02*
X152417805Y-55109684D01*
X152417805Y-55109684D02*
X152525554Y-55001934D01*
X152417805Y-55594557D02*
X151852119Y-55028872D01*
X151852119Y-55028872D02*
X152094556Y-55917806D01*
X152094556Y-55917806D02*
X151528871Y-55352120D01*
X151825182Y-56187180D02*
X151259497Y-55621494D01*
X151259497Y-55621494D02*
X151124810Y-55756181D01*
X151124810Y-55756181D02*
X151070935Y-55863931D01*
X151070935Y-55863931D02*
X151070935Y-55971680D01*
X151070935Y-55971680D02*
X151097872Y-56052493D01*
X151097872Y-56052493D02*
X151178685Y-56187180D01*
X151178685Y-56187180D02*
X151259497Y-56267992D01*
X151259497Y-56267992D02*
X151394184Y-56348804D01*
X151394184Y-56348804D02*
X151474996Y-56375741D01*
X151474996Y-56375741D02*
X151582746Y-56375741D01*
X151582746Y-56375741D02*
X151690495Y-56321867D01*
X151690495Y-56321867D02*
X151825182Y-56187180D01*
X149596868Y-80397998D02*
X149623805Y-80317185D01*
X149623805Y-80317185D02*
X149704618Y-80236373D01*
X149704618Y-80236373D02*
X149812367Y-80182498D01*
X149812367Y-80182498D02*
X149920117Y-80182498D01*
X149920117Y-80182498D02*
X150000929Y-80209436D01*
X150000929Y-80209436D02*
X150135616Y-80290248D01*
X150135616Y-80290248D02*
X150216428Y-80371060D01*
X150216428Y-80371060D02*
X150297241Y-80505747D01*
X150297241Y-80505747D02*
X150324178Y-80586560D01*
X150324178Y-80586560D02*
X150324178Y-80694309D01*
X150324178Y-80694309D02*
X150270303Y-80802059D01*
X150270303Y-80802059D02*
X150216428Y-80855934D01*
X150216428Y-80855934D02*
X150108679Y-80909808D01*
X150108679Y-80909808D02*
X150054804Y-80909808D01*
X150054804Y-80909808D02*
X149866242Y-80721247D01*
X149866242Y-80721247D02*
X149973992Y-80613497D01*
X149866242Y-81206120D02*
X149300557Y-80640434D01*
X149300557Y-80640434D02*
X149085057Y-80855934D01*
X149085057Y-80855934D02*
X149058120Y-80936746D01*
X149058120Y-80936746D02*
X149058120Y-80990621D01*
X149058120Y-80990621D02*
X149085057Y-81071433D01*
X149085057Y-81071433D02*
X149165870Y-81152245D01*
X149165870Y-81152245D02*
X149246682Y-81179182D01*
X149246682Y-81179182D02*
X149300557Y-81179182D01*
X149300557Y-81179182D02*
X149381369Y-81152245D01*
X149381369Y-81152245D02*
X149596868Y-80936746D01*
X148815683Y-81233057D02*
X148761809Y-81233057D01*
X148761809Y-81233057D02*
X148680996Y-81259995D01*
X148680996Y-81259995D02*
X148546309Y-81394682D01*
X148546309Y-81394682D02*
X148519372Y-81475494D01*
X148519372Y-81475494D02*
X148519372Y-81529369D01*
X148519372Y-81529369D02*
X148546309Y-81610181D01*
X148546309Y-81610181D02*
X148600184Y-81664056D01*
X148600184Y-81664056D02*
X148707934Y-81717930D01*
X148707934Y-81717930D02*
X149354431Y-81717930D01*
X149354431Y-81717930D02*
X149004245Y-82068117D01*
X148357747Y-82068117D02*
X148384685Y-81987305D01*
X148384685Y-81987305D02*
X148384685Y-81933430D01*
X148384685Y-81933430D02*
X148357747Y-81852618D01*
X148357747Y-81852618D02*
X148330810Y-81825680D01*
X148330810Y-81825680D02*
X148249998Y-81798743D01*
X148249998Y-81798743D02*
X148196123Y-81798743D01*
X148196123Y-81798743D02*
X148115311Y-81825680D01*
X148115311Y-81825680D02*
X148007561Y-81933430D01*
X148007561Y-81933430D02*
X147980624Y-82014242D01*
X147980624Y-82014242D02*
X147980624Y-82068117D01*
X147980624Y-82068117D02*
X148007561Y-82148929D01*
X148007561Y-82148929D02*
X148034499Y-82175866D01*
X148034499Y-82175866D02*
X148115311Y-82202804D01*
X148115311Y-82202804D02*
X148169186Y-82202804D01*
X148169186Y-82202804D02*
X148249998Y-82175866D01*
X148249998Y-82175866D02*
X148357747Y-82068117D01*
X148357747Y-82068117D02*
X148438560Y-82041179D01*
X148438560Y-82041179D02*
X148492434Y-82041179D01*
X148492434Y-82041179D02*
X148573247Y-82068117D01*
X148573247Y-82068117D02*
X148680996Y-82175866D01*
X148680996Y-82175866D02*
X148707934Y-82256679D01*
X148707934Y-82256679D02*
X148707934Y-82310553D01*
X148707934Y-82310553D02*
X148680996Y-82391366D01*
X148680996Y-82391366D02*
X148573247Y-82499115D01*
X148573247Y-82499115D02*
X148492434Y-82526053D01*
X148492434Y-82526053D02*
X148438560Y-82526053D01*
X148438560Y-82526053D02*
X148357747Y-82499115D01*
X148357747Y-82499115D02*
X148249998Y-82391366D01*
X148249998Y-82391366D02*
X148223060Y-82310553D01*
X148223060Y-82310553D02*
X148223060Y-82256679D01*
X148223060Y-82256679D02*
X148249998Y-82175866D01*
X162281494Y-54813372D02*
X162308431Y-54732560D01*
X162308431Y-54732560D02*
X162389243Y-54651748D01*
X162389243Y-54651748D02*
X162496993Y-54597873D01*
X162496993Y-54597873D02*
X162604742Y-54597873D01*
X162604742Y-54597873D02*
X162685555Y-54624810D01*
X162685555Y-54624810D02*
X162820242Y-54705623D01*
X162820242Y-54705623D02*
X162901054Y-54786435D01*
X162901054Y-54786435D02*
X162981866Y-54921122D01*
X162981866Y-54921122D02*
X163008803Y-55001934D01*
X163008803Y-55001934D02*
X163008803Y-55109684D01*
X163008803Y-55109684D02*
X162954929Y-55217433D01*
X162954929Y-55217433D02*
X162901054Y-55271308D01*
X162901054Y-55271308D02*
X162793304Y-55325183D01*
X162793304Y-55325183D02*
X162739429Y-55325183D01*
X162739429Y-55325183D02*
X162550868Y-55136621D01*
X162550868Y-55136621D02*
X162658617Y-55028871D01*
X162550868Y-55621494D02*
X161985182Y-55055809D01*
X161985182Y-55055809D02*
X161769683Y-55271308D01*
X161769683Y-55271308D02*
X161742746Y-55352120D01*
X161742746Y-55352120D02*
X161742746Y-55405995D01*
X161742746Y-55405995D02*
X161769683Y-55486807D01*
X161769683Y-55486807D02*
X161850495Y-55567619D01*
X161850495Y-55567619D02*
X161931307Y-55594557D01*
X161931307Y-55594557D02*
X161985182Y-55594557D01*
X161985182Y-55594557D02*
X162065994Y-55567619D01*
X162065994Y-55567619D02*
X162281494Y-55352120D01*
X161958245Y-56214117D02*
X161850495Y-56321867D01*
X161850495Y-56321867D02*
X161769683Y-56348804D01*
X161769683Y-56348804D02*
X161715808Y-56348804D01*
X161715808Y-56348804D02*
X161581121Y-56321867D01*
X161581121Y-56321867D02*
X161446434Y-56241054D01*
X161446434Y-56241054D02*
X161230935Y-56025555D01*
X161230935Y-56025555D02*
X161203998Y-55944743D01*
X161203998Y-55944743D02*
X161203998Y-55890868D01*
X161203998Y-55890868D02*
X161230935Y-55810056D01*
X161230935Y-55810056D02*
X161338685Y-55702306D01*
X161338685Y-55702306D02*
X161419497Y-55675369D01*
X161419497Y-55675369D02*
X161473372Y-55675369D01*
X161473372Y-55675369D02*
X161554184Y-55702306D01*
X161554184Y-55702306D02*
X161688871Y-55836993D01*
X161688871Y-55836993D02*
X161715808Y-55917806D01*
X161715808Y-55917806D02*
X161715808Y-55971680D01*
X161715808Y-55971680D02*
X161688871Y-56052493D01*
X161688871Y-56052493D02*
X161581121Y-56160242D01*
X161581121Y-56160242D02*
X161500309Y-56187180D01*
X161500309Y-56187180D02*
X161446434Y-56187180D01*
X161446434Y-56187180D02*
X161365622Y-56160242D01*
X184874200Y-72204761D02*
X184912295Y-72319047D01*
X184912295Y-72319047D02*
X184912295Y-72509523D01*
X184912295Y-72509523D02*
X184874200Y-72585714D01*
X184874200Y-72585714D02*
X184836104Y-72623809D01*
X184836104Y-72623809D02*
X184759914Y-72661904D01*
X184759914Y-72661904D02*
X184683723Y-72661904D01*
X184683723Y-72661904D02*
X184607533Y-72623809D01*
X184607533Y-72623809D02*
X184569438Y-72585714D01*
X184569438Y-72585714D02*
X184531342Y-72509523D01*
X184531342Y-72509523D02*
X184493247Y-72357142D01*
X184493247Y-72357142D02*
X184455152Y-72280952D01*
X184455152Y-72280952D02*
X184417057Y-72242857D01*
X184417057Y-72242857D02*
X184340866Y-72204761D01*
X184340866Y-72204761D02*
X184264676Y-72204761D01*
X184264676Y-72204761D02*
X184188485Y-72242857D01*
X184188485Y-72242857D02*
X184150390Y-72280952D01*
X184150390Y-72280952D02*
X184112295Y-72357142D01*
X184112295Y-72357142D02*
X184112295Y-72547619D01*
X184112295Y-72547619D02*
X184150390Y-72661904D01*
X184112295Y-72928571D02*
X184912295Y-73119047D01*
X184912295Y-73119047D02*
X184340866Y-73271428D01*
X184340866Y-73271428D02*
X184912295Y-73423809D01*
X184912295Y-73423809D02*
X184112295Y-73614286D01*
X184912295Y-73919048D02*
X184112295Y-73919048D01*
X184112295Y-73919048D02*
X184112295Y-74109524D01*
X184112295Y-74109524D02*
X184150390Y-74223810D01*
X184150390Y-74223810D02*
X184226580Y-74300000D01*
X184226580Y-74300000D02*
X184302771Y-74338095D01*
X184302771Y-74338095D02*
X184455152Y-74376191D01*
X184455152Y-74376191D02*
X184569438Y-74376191D01*
X184569438Y-74376191D02*
X184721819Y-74338095D01*
X184721819Y-74338095D02*
X184798009Y-74300000D01*
X184798009Y-74300000D02*
X184874200Y-74223810D01*
X184874200Y-74223810D02*
X184912295Y-74109524D01*
X184912295Y-74109524D02*
X184912295Y-73919048D01*
X184912295Y-74719048D02*
X184112295Y-74719048D01*
X184112295Y-75252381D02*
X184112295Y-75404762D01*
X184112295Y-75404762D02*
X184150390Y-75480952D01*
X184150390Y-75480952D02*
X184226580Y-75557143D01*
X184226580Y-75557143D02*
X184378961Y-75595238D01*
X184378961Y-75595238D02*
X184645628Y-75595238D01*
X184645628Y-75595238D02*
X184798009Y-75557143D01*
X184798009Y-75557143D02*
X184874200Y-75480952D01*
X184874200Y-75480952D02*
X184912295Y-75404762D01*
X184912295Y-75404762D02*
X184912295Y-75252381D01*
X184912295Y-75252381D02*
X184874200Y-75176190D01*
X184874200Y-75176190D02*
X184798009Y-75100000D01*
X184798009Y-75100000D02*
X184645628Y-75061904D01*
X184645628Y-75061904D02*
X184378961Y-75061904D01*
X184378961Y-75061904D02*
X184226580Y-75100000D01*
X184226580Y-75100000D02*
X184150390Y-75176190D01*
X184150390Y-75176190D02*
X184112295Y-75252381D01*
X149581494Y-54813372D02*
X149608431Y-54732560D01*
X149608431Y-54732560D02*
X149689243Y-54651748D01*
X149689243Y-54651748D02*
X149796993Y-54597873D01*
X149796993Y-54597873D02*
X149904742Y-54597873D01*
X149904742Y-54597873D02*
X149985555Y-54624810D01*
X149985555Y-54624810D02*
X150120242Y-54705623D01*
X150120242Y-54705623D02*
X150201054Y-54786435D01*
X150201054Y-54786435D02*
X150281866Y-54921122D01*
X150281866Y-54921122D02*
X150308803Y-55001934D01*
X150308803Y-55001934D02*
X150308803Y-55109684D01*
X150308803Y-55109684D02*
X150254929Y-55217433D01*
X150254929Y-55217433D02*
X150201054Y-55271308D01*
X150201054Y-55271308D02*
X150093304Y-55325183D01*
X150093304Y-55325183D02*
X150039429Y-55325183D01*
X150039429Y-55325183D02*
X149850868Y-55136621D01*
X149850868Y-55136621D02*
X149958617Y-55028871D01*
X149850868Y-55621494D02*
X149285182Y-55055809D01*
X149285182Y-55055809D02*
X149069683Y-55271308D01*
X149069683Y-55271308D02*
X149042746Y-55352120D01*
X149042746Y-55352120D02*
X149042746Y-55405995D01*
X149042746Y-55405995D02*
X149069683Y-55486807D01*
X149069683Y-55486807D02*
X149150495Y-55567619D01*
X149150495Y-55567619D02*
X149231307Y-55594557D01*
X149231307Y-55594557D02*
X149285182Y-55594557D01*
X149285182Y-55594557D02*
X149365994Y-55567619D01*
X149365994Y-55567619D02*
X149581494Y-55352120D01*
X148450123Y-55890868D02*
X148719497Y-55621494D01*
X148719497Y-55621494D02*
X149015808Y-55863931D01*
X149015808Y-55863931D02*
X148961933Y-55863931D01*
X148961933Y-55863931D02*
X148881121Y-55890868D01*
X148881121Y-55890868D02*
X148746434Y-56025555D01*
X148746434Y-56025555D02*
X148719497Y-56106367D01*
X148719497Y-56106367D02*
X148719497Y-56160242D01*
X148719497Y-56160242D02*
X148746434Y-56241054D01*
X148746434Y-56241054D02*
X148881121Y-56375741D01*
X148881121Y-56375741D02*
X148961933Y-56402679D01*
X148961933Y-56402679D02*
X149015808Y-56402679D01*
X149015808Y-56402679D02*
X149096620Y-56375741D01*
X149096620Y-56375741D02*
X149231307Y-56241054D01*
X149231307Y-56241054D02*
X149258245Y-56160242D01*
X149258245Y-56160242D02*
X149258245Y-56106367D01*
X134341494Y-54813372D02*
X134368431Y-54732560D01*
X134368431Y-54732560D02*
X134449243Y-54651748D01*
X134449243Y-54651748D02*
X134556993Y-54597873D01*
X134556993Y-54597873D02*
X134664742Y-54597873D01*
X134664742Y-54597873D02*
X134745555Y-54624810D01*
X134745555Y-54624810D02*
X134880242Y-54705623D01*
X134880242Y-54705623D02*
X134961054Y-54786435D01*
X134961054Y-54786435D02*
X135041866Y-54921122D01*
X135041866Y-54921122D02*
X135068803Y-55001934D01*
X135068803Y-55001934D02*
X135068803Y-55109684D01*
X135068803Y-55109684D02*
X135014929Y-55217433D01*
X135014929Y-55217433D02*
X134961054Y-55271308D01*
X134961054Y-55271308D02*
X134853304Y-55325183D01*
X134853304Y-55325183D02*
X134799429Y-55325183D01*
X134799429Y-55325183D02*
X134610868Y-55136621D01*
X134610868Y-55136621D02*
X134718617Y-55028871D01*
X134610868Y-55621494D02*
X134045182Y-55055809D01*
X134045182Y-55055809D02*
X133829683Y-55271308D01*
X133829683Y-55271308D02*
X133802746Y-55352120D01*
X133802746Y-55352120D02*
X133802746Y-55405995D01*
X133802746Y-55405995D02*
X133829683Y-55486807D01*
X133829683Y-55486807D02*
X133910495Y-55567619D01*
X133910495Y-55567619D02*
X133991307Y-55594557D01*
X133991307Y-55594557D02*
X134045182Y-55594557D01*
X134045182Y-55594557D02*
X134125994Y-55567619D01*
X134125994Y-55567619D02*
X134341494Y-55352120D01*
X133371747Y-55729244D02*
X133317872Y-55783119D01*
X133317872Y-55783119D02*
X133290935Y-55863931D01*
X133290935Y-55863931D02*
X133290935Y-55917806D01*
X133290935Y-55917806D02*
X133317872Y-55998618D01*
X133317872Y-55998618D02*
X133398685Y-56133305D01*
X133398685Y-56133305D02*
X133533372Y-56267992D01*
X133533372Y-56267992D02*
X133668059Y-56348804D01*
X133668059Y-56348804D02*
X133748871Y-56375741D01*
X133748871Y-56375741D02*
X133802746Y-56375741D01*
X133802746Y-56375741D02*
X133883558Y-56348804D01*
X133883558Y-56348804D02*
X133937433Y-56294929D01*
X133937433Y-56294929D02*
X133964370Y-56214117D01*
X133964370Y-56214117D02*
X133964370Y-56160242D01*
X133964370Y-56160242D02*
X133937433Y-56079430D01*
X133937433Y-56079430D02*
X133856620Y-55944743D01*
X133856620Y-55944743D02*
X133721933Y-55810056D01*
X133721933Y-55810056D02*
X133587246Y-55729244D01*
X133587246Y-55729244D02*
X133506434Y-55702306D01*
X133506434Y-55702306D02*
X133452559Y-55702306D01*
X133452559Y-55702306D02*
X133371747Y-55729244D01*
X144501494Y-54813372D02*
X144528431Y-54732560D01*
X144528431Y-54732560D02*
X144609243Y-54651748D01*
X144609243Y-54651748D02*
X144716993Y-54597873D01*
X144716993Y-54597873D02*
X144824742Y-54597873D01*
X144824742Y-54597873D02*
X144905555Y-54624810D01*
X144905555Y-54624810D02*
X145040242Y-54705623D01*
X145040242Y-54705623D02*
X145121054Y-54786435D01*
X145121054Y-54786435D02*
X145201866Y-54921122D01*
X145201866Y-54921122D02*
X145228803Y-55001934D01*
X145228803Y-55001934D02*
X145228803Y-55109684D01*
X145228803Y-55109684D02*
X145174929Y-55217433D01*
X145174929Y-55217433D02*
X145121054Y-55271308D01*
X145121054Y-55271308D02*
X145013304Y-55325183D01*
X145013304Y-55325183D02*
X144959429Y-55325183D01*
X144959429Y-55325183D02*
X144770868Y-55136621D01*
X144770868Y-55136621D02*
X144878617Y-55028871D01*
X144770868Y-55621494D02*
X144205182Y-55055809D01*
X144205182Y-55055809D02*
X143989683Y-55271308D01*
X143989683Y-55271308D02*
X143962746Y-55352120D01*
X143962746Y-55352120D02*
X143962746Y-55405995D01*
X143962746Y-55405995D02*
X143989683Y-55486807D01*
X143989683Y-55486807D02*
X144070495Y-55567619D01*
X144070495Y-55567619D02*
X144151307Y-55594557D01*
X144151307Y-55594557D02*
X144205182Y-55594557D01*
X144205182Y-55594557D02*
X144285994Y-55567619D01*
X144285994Y-55567619D02*
X144501494Y-55352120D01*
X143693372Y-55567619D02*
X143343185Y-55917806D01*
X143343185Y-55917806D02*
X143747246Y-55944743D01*
X143747246Y-55944743D02*
X143666434Y-56025555D01*
X143666434Y-56025555D02*
X143639497Y-56106367D01*
X143639497Y-56106367D02*
X143639497Y-56160242D01*
X143639497Y-56160242D02*
X143666434Y-56241054D01*
X143666434Y-56241054D02*
X143801121Y-56375741D01*
X143801121Y-56375741D02*
X143881933Y-56402679D01*
X143881933Y-56402679D02*
X143935808Y-56402679D01*
X143935808Y-56402679D02*
X144016620Y-56375741D01*
X144016620Y-56375741D02*
X144178245Y-56214117D01*
X144178245Y-56214117D02*
X144205182Y-56133305D01*
X144205182Y-56133305D02*
X144205182Y-56079430D01*
X177548431Y-54786435D02*
X177575368Y-54705623D01*
X177575368Y-54705623D02*
X177656180Y-54624811D01*
X177656180Y-54624811D02*
X177763930Y-54570936D01*
X177763930Y-54570936D02*
X177871680Y-54570936D01*
X177871680Y-54570936D02*
X177952492Y-54597873D01*
X177952492Y-54597873D02*
X178087179Y-54678685D01*
X178087179Y-54678685D02*
X178167991Y-54759498D01*
X178167991Y-54759498D02*
X178248803Y-54894185D01*
X178248803Y-54894185D02*
X178275741Y-54974997D01*
X178275741Y-54974997D02*
X178275741Y-55082746D01*
X178275741Y-55082746D02*
X178221866Y-55190496D01*
X178221866Y-55190496D02*
X178167991Y-55244371D01*
X178167991Y-55244371D02*
X178060241Y-55298246D01*
X178060241Y-55298246D02*
X178006367Y-55298246D01*
X178006367Y-55298246D02*
X177817805Y-55109684D01*
X177817805Y-55109684D02*
X177925554Y-55001934D01*
X177817805Y-55594557D02*
X177252119Y-55028872D01*
X177252119Y-55028872D02*
X177494556Y-55917806D01*
X177494556Y-55917806D02*
X176928871Y-55352120D01*
X177225182Y-56187180D02*
X176659497Y-55621494D01*
X176659497Y-55621494D02*
X176524810Y-55756181D01*
X176524810Y-55756181D02*
X176470935Y-55863931D01*
X176470935Y-55863931D02*
X176470935Y-55971680D01*
X176470935Y-55971680D02*
X176497872Y-56052493D01*
X176497872Y-56052493D02*
X176578685Y-56187180D01*
X176578685Y-56187180D02*
X176659497Y-56267992D01*
X176659497Y-56267992D02*
X176794184Y-56348804D01*
X176794184Y-56348804D02*
X176874996Y-56375741D01*
X176874996Y-56375741D02*
X176982746Y-56375741D01*
X176982746Y-56375741D02*
X177090495Y-56321867D01*
X177090495Y-56321867D02*
X177225182Y-56187180D01*
X139448431Y-54786435D02*
X139475368Y-54705623D01*
X139475368Y-54705623D02*
X139556180Y-54624811D01*
X139556180Y-54624811D02*
X139663930Y-54570936D01*
X139663930Y-54570936D02*
X139771680Y-54570936D01*
X139771680Y-54570936D02*
X139852492Y-54597873D01*
X139852492Y-54597873D02*
X139987179Y-54678685D01*
X139987179Y-54678685D02*
X140067991Y-54759498D01*
X140067991Y-54759498D02*
X140148803Y-54894185D01*
X140148803Y-54894185D02*
X140175741Y-54974997D01*
X140175741Y-54974997D02*
X140175741Y-55082746D01*
X140175741Y-55082746D02*
X140121866Y-55190496D01*
X140121866Y-55190496D02*
X140067991Y-55244371D01*
X140067991Y-55244371D02*
X139960241Y-55298246D01*
X139960241Y-55298246D02*
X139906367Y-55298246D01*
X139906367Y-55298246D02*
X139717805Y-55109684D01*
X139717805Y-55109684D02*
X139825554Y-55001934D01*
X139717805Y-55594557D02*
X139152119Y-55028872D01*
X139152119Y-55028872D02*
X139394556Y-55917806D01*
X139394556Y-55917806D02*
X138828871Y-55352120D01*
X139125182Y-56187180D02*
X138559497Y-55621494D01*
X138559497Y-55621494D02*
X138424810Y-55756181D01*
X138424810Y-55756181D02*
X138370935Y-55863931D01*
X138370935Y-55863931D02*
X138370935Y-55971680D01*
X138370935Y-55971680D02*
X138397872Y-56052493D01*
X138397872Y-56052493D02*
X138478685Y-56187180D01*
X138478685Y-56187180D02*
X138559497Y-56267992D01*
X138559497Y-56267992D02*
X138694184Y-56348804D01*
X138694184Y-56348804D02*
X138774996Y-56375741D01*
X138774996Y-56375741D02*
X138882746Y-56375741D01*
X138882746Y-56375741D02*
X138990495Y-56321867D01*
X138990495Y-56321867D02*
X139125182Y-56187180D01*
X170170868Y-80397998D02*
X170197805Y-80317185D01*
X170197805Y-80317185D02*
X170278618Y-80236373D01*
X170278618Y-80236373D02*
X170386367Y-80182498D01*
X170386367Y-80182498D02*
X170494117Y-80182498D01*
X170494117Y-80182498D02*
X170574929Y-80209436D01*
X170574929Y-80209436D02*
X170709616Y-80290248D01*
X170709616Y-80290248D02*
X170790428Y-80371060D01*
X170790428Y-80371060D02*
X170871241Y-80505747D01*
X170871241Y-80505747D02*
X170898178Y-80586560D01*
X170898178Y-80586560D02*
X170898178Y-80694309D01*
X170898178Y-80694309D02*
X170844303Y-80802059D01*
X170844303Y-80802059D02*
X170790428Y-80855934D01*
X170790428Y-80855934D02*
X170682679Y-80909808D01*
X170682679Y-80909808D02*
X170628804Y-80909808D01*
X170628804Y-80909808D02*
X170440242Y-80721247D01*
X170440242Y-80721247D02*
X170547992Y-80613497D01*
X170440242Y-81206120D02*
X169874557Y-80640434D01*
X169874557Y-80640434D02*
X169659057Y-80855934D01*
X169659057Y-80855934D02*
X169632120Y-80936746D01*
X169632120Y-80936746D02*
X169632120Y-80990621D01*
X169632120Y-80990621D02*
X169659057Y-81071433D01*
X169659057Y-81071433D02*
X169739870Y-81152245D01*
X169739870Y-81152245D02*
X169820682Y-81179182D01*
X169820682Y-81179182D02*
X169874557Y-81179182D01*
X169874557Y-81179182D02*
X169955369Y-81152245D01*
X169955369Y-81152245D02*
X170170868Y-80936746D01*
X169389683Y-81233057D02*
X169335809Y-81233057D01*
X169335809Y-81233057D02*
X169254996Y-81259995D01*
X169254996Y-81259995D02*
X169120309Y-81394682D01*
X169120309Y-81394682D02*
X169093372Y-81475494D01*
X169093372Y-81475494D02*
X169093372Y-81529369D01*
X169093372Y-81529369D02*
X169120309Y-81610181D01*
X169120309Y-81610181D02*
X169174184Y-81664056D01*
X169174184Y-81664056D02*
X169281934Y-81717930D01*
X169281934Y-81717930D02*
X169928431Y-81717930D01*
X169928431Y-81717930D02*
X169578245Y-82068117D01*
X168662373Y-81852618D02*
X168608499Y-81906492D01*
X168608499Y-81906492D02*
X168581561Y-81987305D01*
X168581561Y-81987305D02*
X168581561Y-82041179D01*
X168581561Y-82041179D02*
X168608499Y-82121992D01*
X168608499Y-82121992D02*
X168689311Y-82256679D01*
X168689311Y-82256679D02*
X168823998Y-82391366D01*
X168823998Y-82391366D02*
X168958685Y-82472178D01*
X168958685Y-82472178D02*
X169039497Y-82499115D01*
X169039497Y-82499115D02*
X169093372Y-82499115D01*
X169093372Y-82499115D02*
X169174184Y-82472178D01*
X169174184Y-82472178D02*
X169228059Y-82418303D01*
X169228059Y-82418303D02*
X169254996Y-82337491D01*
X169254996Y-82337491D02*
X169254996Y-82283616D01*
X169254996Y-82283616D02*
X169228059Y-82202804D01*
X169228059Y-82202804D02*
X169147247Y-82068117D01*
X169147247Y-82068117D02*
X169012560Y-81933430D01*
X169012560Y-81933430D02*
X168877873Y-81852618D01*
X168877873Y-81852618D02*
X168797060Y-81825680D01*
X168797060Y-81825680D02*
X168743186Y-81825680D01*
X168743186Y-81825680D02*
X168662373Y-81852618D01*
X172710868Y-80397998D02*
X172737805Y-80317185D01*
X172737805Y-80317185D02*
X172818618Y-80236373D01*
X172818618Y-80236373D02*
X172926367Y-80182498D01*
X172926367Y-80182498D02*
X173034117Y-80182498D01*
X173034117Y-80182498D02*
X173114929Y-80209436D01*
X173114929Y-80209436D02*
X173249616Y-80290248D01*
X173249616Y-80290248D02*
X173330428Y-80371060D01*
X173330428Y-80371060D02*
X173411241Y-80505747D01*
X173411241Y-80505747D02*
X173438178Y-80586560D01*
X173438178Y-80586560D02*
X173438178Y-80694309D01*
X173438178Y-80694309D02*
X173384303Y-80802059D01*
X173384303Y-80802059D02*
X173330428Y-80855934D01*
X173330428Y-80855934D02*
X173222679Y-80909808D01*
X173222679Y-80909808D02*
X173168804Y-80909808D01*
X173168804Y-80909808D02*
X172980242Y-80721247D01*
X172980242Y-80721247D02*
X173087992Y-80613497D01*
X172980242Y-81206120D02*
X172414557Y-80640434D01*
X172414557Y-80640434D02*
X172199057Y-80855934D01*
X172199057Y-80855934D02*
X172172120Y-80936746D01*
X172172120Y-80936746D02*
X172172120Y-80990621D01*
X172172120Y-80990621D02*
X172199057Y-81071433D01*
X172199057Y-81071433D02*
X172279870Y-81152245D01*
X172279870Y-81152245D02*
X172360682Y-81179182D01*
X172360682Y-81179182D02*
X172414557Y-81179182D01*
X172414557Y-81179182D02*
X172495369Y-81152245D01*
X172495369Y-81152245D02*
X172710868Y-80936746D01*
X172118245Y-82068117D02*
X172441494Y-81744868D01*
X172279870Y-81906492D02*
X171714184Y-81340807D01*
X171714184Y-81340807D02*
X171848871Y-81367744D01*
X171848871Y-81367744D02*
X171956621Y-81367744D01*
X171956621Y-81367744D02*
X172037433Y-81340807D01*
X171848871Y-82337491D02*
X171741121Y-82445240D01*
X171741121Y-82445240D02*
X171660309Y-82472178D01*
X171660309Y-82472178D02*
X171606434Y-82472178D01*
X171606434Y-82472178D02*
X171471747Y-82445240D01*
X171471747Y-82445240D02*
X171337060Y-82364428D01*
X171337060Y-82364428D02*
X171121561Y-82148929D01*
X171121561Y-82148929D02*
X171094624Y-82068117D01*
X171094624Y-82068117D02*
X171094624Y-82014242D01*
X171094624Y-82014242D02*
X171121561Y-81933430D01*
X171121561Y-81933430D02*
X171229311Y-81825680D01*
X171229311Y-81825680D02*
X171310123Y-81798743D01*
X171310123Y-81798743D02*
X171363998Y-81798743D01*
X171363998Y-81798743D02*
X171444810Y-81825680D01*
X171444810Y-81825680D02*
X171579497Y-81960367D01*
X171579497Y-81960367D02*
X171606434Y-82041179D01*
X171606434Y-82041179D02*
X171606434Y-82095054D01*
X171606434Y-82095054D02*
X171579497Y-82175866D01*
X171579497Y-82175866D02*
X171471747Y-82283616D01*
X171471747Y-82283616D02*
X171390935Y-82310553D01*
X171390935Y-82310553D02*
X171337060Y-82310553D01*
X171337060Y-82310553D02*
X171256248Y-82283616D01*
X141961494Y-54713372D02*
X141988431Y-54632560D01*
X141988431Y-54632560D02*
X142069243Y-54551748D01*
X142069243Y-54551748D02*
X142176993Y-54497873D01*
X142176993Y-54497873D02*
X142284742Y-54497873D01*
X142284742Y-54497873D02*
X142365555Y-54524810D01*
X142365555Y-54524810D02*
X142500242Y-54605623D01*
X142500242Y-54605623D02*
X142581054Y-54686435D01*
X142581054Y-54686435D02*
X142661866Y-54821122D01*
X142661866Y-54821122D02*
X142688803Y-54901934D01*
X142688803Y-54901934D02*
X142688803Y-55009684D01*
X142688803Y-55009684D02*
X142634929Y-55117433D01*
X142634929Y-55117433D02*
X142581054Y-55171308D01*
X142581054Y-55171308D02*
X142473304Y-55225183D01*
X142473304Y-55225183D02*
X142419429Y-55225183D01*
X142419429Y-55225183D02*
X142230868Y-55036621D01*
X142230868Y-55036621D02*
X142338617Y-54928871D01*
X142230868Y-55521494D02*
X141665182Y-54955809D01*
X141665182Y-54955809D02*
X141449683Y-55171308D01*
X141449683Y-55171308D02*
X141422746Y-55252120D01*
X141422746Y-55252120D02*
X141422746Y-55305995D01*
X141422746Y-55305995D02*
X141449683Y-55386807D01*
X141449683Y-55386807D02*
X141530495Y-55467619D01*
X141530495Y-55467619D02*
X141611307Y-55494557D01*
X141611307Y-55494557D02*
X141665182Y-55494557D01*
X141665182Y-55494557D02*
X141745994Y-55467619D01*
X141745994Y-55467619D02*
X141961494Y-55252120D01*
X141180309Y-55548432D02*
X141126434Y-55548432D01*
X141126434Y-55548432D02*
X141045622Y-55575369D01*
X141045622Y-55575369D02*
X140910935Y-55710056D01*
X140910935Y-55710056D02*
X140883998Y-55790868D01*
X140883998Y-55790868D02*
X140883998Y-55844743D01*
X140883998Y-55844743D02*
X140910935Y-55925555D01*
X140910935Y-55925555D02*
X140964810Y-55979430D01*
X140964810Y-55979430D02*
X141072559Y-56033305D01*
X141072559Y-56033305D02*
X141719057Y-56033305D01*
X141719057Y-56033305D02*
X141368871Y-56383491D01*
X175250868Y-80397998D02*
X175277805Y-80317185D01*
X175277805Y-80317185D02*
X175358618Y-80236373D01*
X175358618Y-80236373D02*
X175466367Y-80182498D01*
X175466367Y-80182498D02*
X175574117Y-80182498D01*
X175574117Y-80182498D02*
X175654929Y-80209436D01*
X175654929Y-80209436D02*
X175789616Y-80290248D01*
X175789616Y-80290248D02*
X175870428Y-80371060D01*
X175870428Y-80371060D02*
X175951241Y-80505747D01*
X175951241Y-80505747D02*
X175978178Y-80586560D01*
X175978178Y-80586560D02*
X175978178Y-80694309D01*
X175978178Y-80694309D02*
X175924303Y-80802059D01*
X175924303Y-80802059D02*
X175870428Y-80855934D01*
X175870428Y-80855934D02*
X175762679Y-80909808D01*
X175762679Y-80909808D02*
X175708804Y-80909808D01*
X175708804Y-80909808D02*
X175520242Y-80721247D01*
X175520242Y-80721247D02*
X175627992Y-80613497D01*
X175520242Y-81206120D02*
X174954557Y-80640434D01*
X174954557Y-80640434D02*
X174739057Y-80855934D01*
X174739057Y-80855934D02*
X174712120Y-80936746D01*
X174712120Y-80936746D02*
X174712120Y-80990621D01*
X174712120Y-80990621D02*
X174739057Y-81071433D01*
X174739057Y-81071433D02*
X174819870Y-81152245D01*
X174819870Y-81152245D02*
X174900682Y-81179182D01*
X174900682Y-81179182D02*
X174954557Y-81179182D01*
X174954557Y-81179182D02*
X175035369Y-81152245D01*
X175035369Y-81152245D02*
X175250868Y-80936746D01*
X174658245Y-82068117D02*
X174981494Y-81744868D01*
X174819870Y-81906492D02*
X174254184Y-81340807D01*
X174254184Y-81340807D02*
X174388871Y-81367744D01*
X174388871Y-81367744D02*
X174496621Y-81367744D01*
X174496621Y-81367744D02*
X174577433Y-81340807D01*
X174011747Y-82068117D02*
X174038685Y-81987305D01*
X174038685Y-81987305D02*
X174038685Y-81933430D01*
X174038685Y-81933430D02*
X174011747Y-81852618D01*
X174011747Y-81852618D02*
X173984810Y-81825680D01*
X173984810Y-81825680D02*
X173903998Y-81798743D01*
X173903998Y-81798743D02*
X173850123Y-81798743D01*
X173850123Y-81798743D02*
X173769311Y-81825680D01*
X173769311Y-81825680D02*
X173661561Y-81933430D01*
X173661561Y-81933430D02*
X173634624Y-82014242D01*
X173634624Y-82014242D02*
X173634624Y-82068117D01*
X173634624Y-82068117D02*
X173661561Y-82148929D01*
X173661561Y-82148929D02*
X173688499Y-82175866D01*
X173688499Y-82175866D02*
X173769311Y-82202804D01*
X173769311Y-82202804D02*
X173823186Y-82202804D01*
X173823186Y-82202804D02*
X173903998Y-82175866D01*
X173903998Y-82175866D02*
X174011747Y-82068117D01*
X174011747Y-82068117D02*
X174092560Y-82041179D01*
X174092560Y-82041179D02*
X174146434Y-82041179D01*
X174146434Y-82041179D02*
X174227247Y-82068117D01*
X174227247Y-82068117D02*
X174334996Y-82175866D01*
X174334996Y-82175866D02*
X174361934Y-82256679D01*
X174361934Y-82256679D02*
X174361934Y-82310553D01*
X174361934Y-82310553D02*
X174334996Y-82391366D01*
X174334996Y-82391366D02*
X174227247Y-82499115D01*
X174227247Y-82499115D02*
X174146434Y-82526053D01*
X174146434Y-82526053D02*
X174092560Y-82526053D01*
X174092560Y-82526053D02*
X174011747Y-82499115D01*
X174011747Y-82499115D02*
X173903998Y-82391366D01*
X173903998Y-82391366D02*
X173877060Y-82310553D01*
X173877060Y-82310553D02*
X173877060Y-82256679D01*
X173877060Y-82256679D02*
X173903998Y-82175866D01*
X154661494Y-54813372D02*
X154688431Y-54732560D01*
X154688431Y-54732560D02*
X154769243Y-54651748D01*
X154769243Y-54651748D02*
X154876993Y-54597873D01*
X154876993Y-54597873D02*
X154984742Y-54597873D01*
X154984742Y-54597873D02*
X155065555Y-54624810D01*
X155065555Y-54624810D02*
X155200242Y-54705623D01*
X155200242Y-54705623D02*
X155281054Y-54786435D01*
X155281054Y-54786435D02*
X155361866Y-54921122D01*
X155361866Y-54921122D02*
X155388803Y-55001934D01*
X155388803Y-55001934D02*
X155388803Y-55109684D01*
X155388803Y-55109684D02*
X155334929Y-55217433D01*
X155334929Y-55217433D02*
X155281054Y-55271308D01*
X155281054Y-55271308D02*
X155173304Y-55325183D01*
X155173304Y-55325183D02*
X155119429Y-55325183D01*
X155119429Y-55325183D02*
X154930868Y-55136621D01*
X154930868Y-55136621D02*
X155038617Y-55028871D01*
X154930868Y-55621494D02*
X154365182Y-55055809D01*
X154365182Y-55055809D02*
X154149683Y-55271308D01*
X154149683Y-55271308D02*
X154122746Y-55352120D01*
X154122746Y-55352120D02*
X154122746Y-55405995D01*
X154122746Y-55405995D02*
X154149683Y-55486807D01*
X154149683Y-55486807D02*
X154230495Y-55567619D01*
X154230495Y-55567619D02*
X154311307Y-55594557D01*
X154311307Y-55594557D02*
X154365182Y-55594557D01*
X154365182Y-55594557D02*
X154445994Y-55567619D01*
X154445994Y-55567619D02*
X154661494Y-55352120D01*
X153557060Y-55863931D02*
X153664810Y-55756181D01*
X153664810Y-55756181D02*
X153745622Y-55729244D01*
X153745622Y-55729244D02*
X153799497Y-55729244D01*
X153799497Y-55729244D02*
X153934184Y-55756181D01*
X153934184Y-55756181D02*
X154068871Y-55836993D01*
X154068871Y-55836993D02*
X154284370Y-56052493D01*
X154284370Y-56052493D02*
X154311307Y-56133305D01*
X154311307Y-56133305D02*
X154311307Y-56187180D01*
X154311307Y-56187180D02*
X154284370Y-56267992D01*
X154284370Y-56267992D02*
X154176620Y-56375741D01*
X154176620Y-56375741D02*
X154095808Y-56402679D01*
X154095808Y-56402679D02*
X154041933Y-56402679D01*
X154041933Y-56402679D02*
X153961121Y-56375741D01*
X153961121Y-56375741D02*
X153826434Y-56241054D01*
X153826434Y-56241054D02*
X153799497Y-56160242D01*
X153799497Y-56160242D02*
X153799497Y-56106367D01*
X153799497Y-56106367D02*
X153826434Y-56025555D01*
X153826434Y-56025555D02*
X153934184Y-55917806D01*
X153934184Y-55917806D02*
X154014996Y-55890868D01*
X154014996Y-55890868D02*
X154068871Y-55890868D01*
X154068871Y-55890868D02*
X154149683Y-55917806D01*
X167640868Y-80397998D02*
X167667805Y-80317185D01*
X167667805Y-80317185D02*
X167748618Y-80236373D01*
X167748618Y-80236373D02*
X167856367Y-80182498D01*
X167856367Y-80182498D02*
X167964117Y-80182498D01*
X167964117Y-80182498D02*
X168044929Y-80209436D01*
X168044929Y-80209436D02*
X168179616Y-80290248D01*
X168179616Y-80290248D02*
X168260428Y-80371060D01*
X168260428Y-80371060D02*
X168341241Y-80505747D01*
X168341241Y-80505747D02*
X168368178Y-80586560D01*
X168368178Y-80586560D02*
X168368178Y-80694309D01*
X168368178Y-80694309D02*
X168314303Y-80802059D01*
X168314303Y-80802059D02*
X168260428Y-80855934D01*
X168260428Y-80855934D02*
X168152679Y-80909808D01*
X168152679Y-80909808D02*
X168098804Y-80909808D01*
X168098804Y-80909808D02*
X167910242Y-80721247D01*
X167910242Y-80721247D02*
X168017992Y-80613497D01*
X167910242Y-81206120D02*
X167344557Y-80640434D01*
X167344557Y-80640434D02*
X167129057Y-80855934D01*
X167129057Y-80855934D02*
X167102120Y-80936746D01*
X167102120Y-80936746D02*
X167102120Y-80990621D01*
X167102120Y-80990621D02*
X167129057Y-81071433D01*
X167129057Y-81071433D02*
X167209870Y-81152245D01*
X167209870Y-81152245D02*
X167290682Y-81179182D01*
X167290682Y-81179182D02*
X167344557Y-81179182D01*
X167344557Y-81179182D02*
X167425369Y-81152245D01*
X167425369Y-81152245D02*
X167640868Y-80936746D01*
X166859683Y-81233057D02*
X166805809Y-81233057D01*
X166805809Y-81233057D02*
X166724996Y-81259995D01*
X166724996Y-81259995D02*
X166590309Y-81394682D01*
X166590309Y-81394682D02*
X166563372Y-81475494D01*
X166563372Y-81475494D02*
X166563372Y-81529369D01*
X166563372Y-81529369D02*
X166590309Y-81610181D01*
X166590309Y-81610181D02*
X166644184Y-81664056D01*
X166644184Y-81664056D02*
X166751934Y-81717930D01*
X166751934Y-81717930D02*
X167398431Y-81717930D01*
X167398431Y-81717930D02*
X167048245Y-82068117D01*
X166509497Y-82606865D02*
X166832746Y-82283616D01*
X166671121Y-82445240D02*
X166105436Y-81879555D01*
X166105436Y-81879555D02*
X166240123Y-81906492D01*
X166240123Y-81906492D02*
X166347873Y-81906492D01*
X166347873Y-81906492D02*
X166428685Y-81879555D01*
X162550868Y-80397998D02*
X162577805Y-80317185D01*
X162577805Y-80317185D02*
X162658618Y-80236373D01*
X162658618Y-80236373D02*
X162766367Y-80182498D01*
X162766367Y-80182498D02*
X162874117Y-80182498D01*
X162874117Y-80182498D02*
X162954929Y-80209436D01*
X162954929Y-80209436D02*
X163089616Y-80290248D01*
X163089616Y-80290248D02*
X163170428Y-80371060D01*
X163170428Y-80371060D02*
X163251241Y-80505747D01*
X163251241Y-80505747D02*
X163278178Y-80586560D01*
X163278178Y-80586560D02*
X163278178Y-80694309D01*
X163278178Y-80694309D02*
X163224303Y-80802059D01*
X163224303Y-80802059D02*
X163170428Y-80855934D01*
X163170428Y-80855934D02*
X163062679Y-80909808D01*
X163062679Y-80909808D02*
X163008804Y-80909808D01*
X163008804Y-80909808D02*
X162820242Y-80721247D01*
X162820242Y-80721247D02*
X162927992Y-80613497D01*
X162820242Y-81206120D02*
X162254557Y-80640434D01*
X162254557Y-80640434D02*
X162039057Y-80855934D01*
X162039057Y-80855934D02*
X162012120Y-80936746D01*
X162012120Y-80936746D02*
X162012120Y-80990621D01*
X162012120Y-80990621D02*
X162039057Y-81071433D01*
X162039057Y-81071433D02*
X162119870Y-81152245D01*
X162119870Y-81152245D02*
X162200682Y-81179182D01*
X162200682Y-81179182D02*
X162254557Y-81179182D01*
X162254557Y-81179182D02*
X162335369Y-81152245D01*
X162335369Y-81152245D02*
X162550868Y-80936746D01*
X161769683Y-81233057D02*
X161715809Y-81233057D01*
X161715809Y-81233057D02*
X161634996Y-81259995D01*
X161634996Y-81259995D02*
X161500309Y-81394682D01*
X161500309Y-81394682D02*
X161473372Y-81475494D01*
X161473372Y-81475494D02*
X161473372Y-81529369D01*
X161473372Y-81529369D02*
X161500309Y-81610181D01*
X161500309Y-81610181D02*
X161554184Y-81664056D01*
X161554184Y-81664056D02*
X161661934Y-81717930D01*
X161661934Y-81717930D02*
X162308431Y-81717930D01*
X162308431Y-81717930D02*
X161958245Y-82068117D01*
X161230935Y-81771805D02*
X161177060Y-81771805D01*
X161177060Y-81771805D02*
X161096248Y-81798743D01*
X161096248Y-81798743D02*
X160961561Y-81933430D01*
X160961561Y-81933430D02*
X160934624Y-82014242D01*
X160934624Y-82014242D02*
X160934624Y-82068117D01*
X160934624Y-82068117D02*
X160961561Y-82148929D01*
X160961561Y-82148929D02*
X161015436Y-82202804D01*
X161015436Y-82202804D02*
X161123186Y-82256679D01*
X161123186Y-82256679D02*
X161769683Y-82256679D01*
X161769683Y-82256679D02*
X161419497Y-82606865D01*
X164848431Y-54786435D02*
X164875368Y-54705623D01*
X164875368Y-54705623D02*
X164956180Y-54624811D01*
X164956180Y-54624811D02*
X165063930Y-54570936D01*
X165063930Y-54570936D02*
X165171680Y-54570936D01*
X165171680Y-54570936D02*
X165252492Y-54597873D01*
X165252492Y-54597873D02*
X165387179Y-54678685D01*
X165387179Y-54678685D02*
X165467991Y-54759498D01*
X165467991Y-54759498D02*
X165548803Y-54894185D01*
X165548803Y-54894185D02*
X165575741Y-54974997D01*
X165575741Y-54974997D02*
X165575741Y-55082746D01*
X165575741Y-55082746D02*
X165521866Y-55190496D01*
X165521866Y-55190496D02*
X165467991Y-55244371D01*
X165467991Y-55244371D02*
X165360241Y-55298246D01*
X165360241Y-55298246D02*
X165306367Y-55298246D01*
X165306367Y-55298246D02*
X165117805Y-55109684D01*
X165117805Y-55109684D02*
X165225554Y-55001934D01*
X165117805Y-55594557D02*
X164552119Y-55028872D01*
X164552119Y-55028872D02*
X164794556Y-55917806D01*
X164794556Y-55917806D02*
X164228871Y-55352120D01*
X164525182Y-56187180D02*
X163959497Y-55621494D01*
X163959497Y-55621494D02*
X163824810Y-55756181D01*
X163824810Y-55756181D02*
X163770935Y-55863931D01*
X163770935Y-55863931D02*
X163770935Y-55971680D01*
X163770935Y-55971680D02*
X163797872Y-56052493D01*
X163797872Y-56052493D02*
X163878685Y-56187180D01*
X163878685Y-56187180D02*
X163959497Y-56267992D01*
X163959497Y-56267992D02*
X164094184Y-56348804D01*
X164094184Y-56348804D02*
X164174996Y-56375741D01*
X164174996Y-56375741D02*
X164282746Y-56375741D01*
X164282746Y-56375741D02*
X164390495Y-56321867D01*
X164390495Y-56321867D02*
X164525182Y-56187180D01*
X180330868Y-54243998D02*
X180357805Y-54163185D01*
X180357805Y-54163185D02*
X180438618Y-54082373D01*
X180438618Y-54082373D02*
X180546367Y-54028498D01*
X180546367Y-54028498D02*
X180654117Y-54028498D01*
X180654117Y-54028498D02*
X180734929Y-54055436D01*
X180734929Y-54055436D02*
X180869616Y-54136248D01*
X180869616Y-54136248D02*
X180950428Y-54217060D01*
X180950428Y-54217060D02*
X181031241Y-54351747D01*
X181031241Y-54351747D02*
X181058178Y-54432560D01*
X181058178Y-54432560D02*
X181058178Y-54540309D01*
X181058178Y-54540309D02*
X181004303Y-54648059D01*
X181004303Y-54648059D02*
X180950428Y-54701934D01*
X180950428Y-54701934D02*
X180842679Y-54755808D01*
X180842679Y-54755808D02*
X180788804Y-54755808D01*
X180788804Y-54755808D02*
X180600242Y-54567247D01*
X180600242Y-54567247D02*
X180707992Y-54459497D01*
X180600242Y-55052120D02*
X180034557Y-54486434D01*
X180034557Y-54486434D02*
X179819057Y-54701934D01*
X179819057Y-54701934D02*
X179792120Y-54782746D01*
X179792120Y-54782746D02*
X179792120Y-54836621D01*
X179792120Y-54836621D02*
X179819057Y-54917433D01*
X179819057Y-54917433D02*
X179899870Y-54998245D01*
X179899870Y-54998245D02*
X179980682Y-55025182D01*
X179980682Y-55025182D02*
X180034557Y-55025182D01*
X180034557Y-55025182D02*
X180115369Y-54998245D01*
X180115369Y-54998245D02*
X180330868Y-54782746D01*
X179738245Y-55914117D02*
X180061494Y-55590868D01*
X179899870Y-55752492D02*
X179334184Y-55186807D01*
X179334184Y-55186807D02*
X179468871Y-55213744D01*
X179468871Y-55213744D02*
X179576621Y-55213744D01*
X179576621Y-55213744D02*
X179657433Y-55186807D01*
X178876248Y-56021866D02*
X179253372Y-56398990D01*
X178795436Y-55671680D02*
X179334184Y-55941054D01*
X179334184Y-55941054D02*
X178983998Y-56291240D01*
X137420242Y-80220749D02*
X137797366Y-80974996D01*
X137797366Y-80974996D02*
X137043118Y-80597873D01*
X137420242Y-81298245D02*
X137366367Y-81405995D01*
X137366367Y-81405995D02*
X137231680Y-81540682D01*
X137231680Y-81540682D02*
X137150868Y-81567619D01*
X137150868Y-81567619D02*
X137096993Y-81567619D01*
X137096993Y-81567619D02*
X137016181Y-81540682D01*
X137016181Y-81540682D02*
X136962306Y-81486807D01*
X136962306Y-81486807D02*
X136935369Y-81405995D01*
X136935369Y-81405995D02*
X136935369Y-81352120D01*
X136935369Y-81352120D02*
X136962306Y-81271308D01*
X136962306Y-81271308D02*
X137043118Y-81136621D01*
X137043118Y-81136621D02*
X137070056Y-81055808D01*
X137070056Y-81055808D02*
X137070056Y-81001934D01*
X137070056Y-81001934D02*
X137043118Y-80921121D01*
X137043118Y-80921121D02*
X136989244Y-80867247D01*
X136989244Y-80867247D02*
X136908431Y-80840309D01*
X136908431Y-80840309D02*
X136854557Y-80840309D01*
X136854557Y-80840309D02*
X136773744Y-80867247D01*
X136773744Y-80867247D02*
X136639057Y-81001934D01*
X136639057Y-81001934D02*
X136585183Y-81109683D01*
X136504370Y-81729244D02*
X136773744Y-81998618D01*
X136396621Y-81244370D02*
X136504370Y-81729244D01*
X136504370Y-81729244D02*
X136019497Y-81621494D01*
X136396621Y-82321866D02*
X136342746Y-82429616D01*
X136342746Y-82429616D02*
X136208059Y-82564303D01*
X136208059Y-82564303D02*
X136127247Y-82591240D01*
X136127247Y-82591240D02*
X136073372Y-82591240D01*
X136073372Y-82591240D02*
X135992560Y-82564303D01*
X135992560Y-82564303D02*
X135938685Y-82510428D01*
X135938685Y-82510428D02*
X135911748Y-82429616D01*
X135911748Y-82429616D02*
X135911748Y-82375741D01*
X135911748Y-82375741D02*
X135938685Y-82294929D01*
X135938685Y-82294929D02*
X136019497Y-82160242D01*
X136019497Y-82160242D02*
X136046435Y-82079430D01*
X136046435Y-82079430D02*
X136046435Y-82025555D01*
X136046435Y-82025555D02*
X136019497Y-81944743D01*
X136019497Y-81944743D02*
X135965622Y-81890868D01*
X135965622Y-81890868D02*
X135884810Y-81863930D01*
X135884810Y-81863930D02*
X135830935Y-81863930D01*
X135830935Y-81863930D02*
X135750123Y-81890868D01*
X135750123Y-81890868D02*
X135615436Y-82025555D01*
X135615436Y-82025555D02*
X135561561Y-82133304D01*
X172710868Y-54143998D02*
X172737805Y-54063185D01*
X172737805Y-54063185D02*
X172818618Y-53982373D01*
X172818618Y-53982373D02*
X172926367Y-53928498D01*
X172926367Y-53928498D02*
X173034117Y-53928498D01*
X173034117Y-53928498D02*
X173114929Y-53955436D01*
X173114929Y-53955436D02*
X173249616Y-54036248D01*
X173249616Y-54036248D02*
X173330428Y-54117060D01*
X173330428Y-54117060D02*
X173411241Y-54251747D01*
X173411241Y-54251747D02*
X173438178Y-54332560D01*
X173438178Y-54332560D02*
X173438178Y-54440309D01*
X173438178Y-54440309D02*
X173384303Y-54548059D01*
X173384303Y-54548059D02*
X173330428Y-54601934D01*
X173330428Y-54601934D02*
X173222679Y-54655808D01*
X173222679Y-54655808D02*
X173168804Y-54655808D01*
X173168804Y-54655808D02*
X172980242Y-54467247D01*
X172980242Y-54467247D02*
X173087992Y-54359497D01*
X172980242Y-54952120D02*
X172414557Y-54386434D01*
X172414557Y-54386434D02*
X172199057Y-54601934D01*
X172199057Y-54601934D02*
X172172120Y-54682746D01*
X172172120Y-54682746D02*
X172172120Y-54736621D01*
X172172120Y-54736621D02*
X172199057Y-54817433D01*
X172199057Y-54817433D02*
X172279870Y-54898245D01*
X172279870Y-54898245D02*
X172360682Y-54925182D01*
X172360682Y-54925182D02*
X172414557Y-54925182D01*
X172414557Y-54925182D02*
X172495369Y-54898245D01*
X172495369Y-54898245D02*
X172710868Y-54682746D01*
X172118245Y-55814117D02*
X172441494Y-55490868D01*
X172279870Y-55652492D02*
X171714184Y-55086807D01*
X171714184Y-55086807D02*
X171848871Y-55113744D01*
X171848871Y-55113744D02*
X171956621Y-55113744D01*
X171956621Y-55113744D02*
X172037433Y-55086807D01*
X171390935Y-55517805D02*
X171337060Y-55517805D01*
X171337060Y-55517805D02*
X171256248Y-55544743D01*
X171256248Y-55544743D02*
X171121561Y-55679430D01*
X171121561Y-55679430D02*
X171094624Y-55760242D01*
X171094624Y-55760242D02*
X171094624Y-55814117D01*
X171094624Y-55814117D02*
X171121561Y-55894929D01*
X171121561Y-55894929D02*
X171175436Y-55948804D01*
X171175436Y-55948804D02*
X171283186Y-56002679D01*
X171283186Y-56002679D02*
X171929683Y-56002679D01*
X171929683Y-56002679D02*
X171579497Y-56352865D01*
X136871494Y-54713372D02*
X136898431Y-54632560D01*
X136898431Y-54632560D02*
X136979243Y-54551748D01*
X136979243Y-54551748D02*
X137086993Y-54497873D01*
X137086993Y-54497873D02*
X137194742Y-54497873D01*
X137194742Y-54497873D02*
X137275555Y-54524810D01*
X137275555Y-54524810D02*
X137410242Y-54605623D01*
X137410242Y-54605623D02*
X137491054Y-54686435D01*
X137491054Y-54686435D02*
X137571866Y-54821122D01*
X137571866Y-54821122D02*
X137598803Y-54901934D01*
X137598803Y-54901934D02*
X137598803Y-55009684D01*
X137598803Y-55009684D02*
X137544929Y-55117433D01*
X137544929Y-55117433D02*
X137491054Y-55171308D01*
X137491054Y-55171308D02*
X137383304Y-55225183D01*
X137383304Y-55225183D02*
X137329429Y-55225183D01*
X137329429Y-55225183D02*
X137140868Y-55036621D01*
X137140868Y-55036621D02*
X137248617Y-54928871D01*
X137140868Y-55521494D02*
X136575182Y-54955809D01*
X136575182Y-54955809D02*
X136359683Y-55171308D01*
X136359683Y-55171308D02*
X136332746Y-55252120D01*
X136332746Y-55252120D02*
X136332746Y-55305995D01*
X136332746Y-55305995D02*
X136359683Y-55386807D01*
X136359683Y-55386807D02*
X136440495Y-55467619D01*
X136440495Y-55467619D02*
X136521307Y-55494557D01*
X136521307Y-55494557D02*
X136575182Y-55494557D01*
X136575182Y-55494557D02*
X136655994Y-55467619D01*
X136655994Y-55467619D02*
X136871494Y-55252120D01*
X136278871Y-56383491D02*
X136602120Y-56060242D01*
X136440495Y-56221867D02*
X135874810Y-55656181D01*
X135874810Y-55656181D02*
X136009497Y-55683119D01*
X136009497Y-55683119D02*
X136117246Y-55683119D01*
X136117246Y-55683119D02*
X136198059Y-55656181D01*
X167630868Y-54289998D02*
X167657805Y-54209185D01*
X167657805Y-54209185D02*
X167738618Y-54128373D01*
X167738618Y-54128373D02*
X167846367Y-54074498D01*
X167846367Y-54074498D02*
X167954117Y-54074498D01*
X167954117Y-54074498D02*
X168034929Y-54101436D01*
X168034929Y-54101436D02*
X168169616Y-54182248D01*
X168169616Y-54182248D02*
X168250428Y-54263060D01*
X168250428Y-54263060D02*
X168331241Y-54397747D01*
X168331241Y-54397747D02*
X168358178Y-54478560D01*
X168358178Y-54478560D02*
X168358178Y-54586309D01*
X168358178Y-54586309D02*
X168304303Y-54694059D01*
X168304303Y-54694059D02*
X168250428Y-54747934D01*
X168250428Y-54747934D02*
X168142679Y-54801808D01*
X168142679Y-54801808D02*
X168088804Y-54801808D01*
X168088804Y-54801808D02*
X167900242Y-54613247D01*
X167900242Y-54613247D02*
X168007992Y-54505497D01*
X167900242Y-55098120D02*
X167334557Y-54532434D01*
X167334557Y-54532434D02*
X167119057Y-54747934D01*
X167119057Y-54747934D02*
X167092120Y-54828746D01*
X167092120Y-54828746D02*
X167092120Y-54882621D01*
X167092120Y-54882621D02*
X167119057Y-54963433D01*
X167119057Y-54963433D02*
X167199870Y-55044245D01*
X167199870Y-55044245D02*
X167280682Y-55071182D01*
X167280682Y-55071182D02*
X167334557Y-55071182D01*
X167334557Y-55071182D02*
X167415369Y-55044245D01*
X167415369Y-55044245D02*
X167630868Y-54828746D01*
X167038245Y-55960117D02*
X167361494Y-55636868D01*
X167199870Y-55798492D02*
X166634184Y-55232807D01*
X166634184Y-55232807D02*
X166768871Y-55259744D01*
X166768871Y-55259744D02*
X166876621Y-55259744D01*
X166876621Y-55259744D02*
X166957433Y-55232807D01*
X166122373Y-55744618D02*
X166068499Y-55798492D01*
X166068499Y-55798492D02*
X166041561Y-55879305D01*
X166041561Y-55879305D02*
X166041561Y-55933179D01*
X166041561Y-55933179D02*
X166068499Y-56013992D01*
X166068499Y-56013992D02*
X166149311Y-56148679D01*
X166149311Y-56148679D02*
X166283998Y-56283366D01*
X166283998Y-56283366D02*
X166418685Y-56364178D01*
X166418685Y-56364178D02*
X166499497Y-56391115D01*
X166499497Y-56391115D02*
X166553372Y-56391115D01*
X166553372Y-56391115D02*
X166634184Y-56364178D01*
X166634184Y-56364178D02*
X166688059Y-56310303D01*
X166688059Y-56310303D02*
X166714996Y-56229491D01*
X166714996Y-56229491D02*
X166714996Y-56175616D01*
X166714996Y-56175616D02*
X166688059Y-56094804D01*
X166688059Y-56094804D02*
X166607247Y-55960117D01*
X166607247Y-55960117D02*
X166472560Y-55825430D01*
X166472560Y-55825430D02*
X166337873Y-55744618D01*
X166337873Y-55744618D02*
X166257060Y-55717680D01*
X166257060Y-55717680D02*
X166203186Y-55717680D01*
X166203186Y-55717680D02*
X166122373Y-55744618D01*
X160293710Y-81138651D02*
X160212898Y-80680716D01*
X160616959Y-80815403D02*
X160051274Y-80249717D01*
X160051274Y-80249717D02*
X159835775Y-80465216D01*
X159835775Y-80465216D02*
X159808837Y-80546029D01*
X159808837Y-80546029D02*
X159808837Y-80599903D01*
X159808837Y-80599903D02*
X159835775Y-80680716D01*
X159835775Y-80680716D02*
X159916587Y-80761528D01*
X159916587Y-80761528D02*
X159997399Y-80788465D01*
X159997399Y-80788465D02*
X160051274Y-80788465D01*
X160051274Y-80788465D02*
X160132086Y-80761528D01*
X160132086Y-80761528D02*
X160347585Y-80546029D01*
X159485588Y-80815403D02*
X159943524Y-81273338D01*
X159943524Y-81273338D02*
X159970462Y-81354151D01*
X159970462Y-81354151D02*
X159970462Y-81408025D01*
X159970462Y-81408025D02*
X159943524Y-81488838D01*
X159943524Y-81488838D02*
X159835775Y-81596587D01*
X159835775Y-81596587D02*
X159754962Y-81623525D01*
X159754962Y-81623525D02*
X159701088Y-81623525D01*
X159701088Y-81623525D02*
X159620275Y-81596587D01*
X159620275Y-81596587D02*
X159162340Y-81138651D01*
X159458651Y-81973711D02*
X158892966Y-81408025D01*
X158892966Y-81408025D02*
X159135402Y-82296959D01*
X159135402Y-82296959D02*
X158569717Y-81731274D01*
X154940868Y-80397998D02*
X154967805Y-80317185D01*
X154967805Y-80317185D02*
X155048618Y-80236373D01*
X155048618Y-80236373D02*
X155156367Y-80182498D01*
X155156367Y-80182498D02*
X155264117Y-80182498D01*
X155264117Y-80182498D02*
X155344929Y-80209436D01*
X155344929Y-80209436D02*
X155479616Y-80290248D01*
X155479616Y-80290248D02*
X155560428Y-80371060D01*
X155560428Y-80371060D02*
X155641241Y-80505747D01*
X155641241Y-80505747D02*
X155668178Y-80586560D01*
X155668178Y-80586560D02*
X155668178Y-80694309D01*
X155668178Y-80694309D02*
X155614303Y-80802059D01*
X155614303Y-80802059D02*
X155560428Y-80855934D01*
X155560428Y-80855934D02*
X155452679Y-80909808D01*
X155452679Y-80909808D02*
X155398804Y-80909808D01*
X155398804Y-80909808D02*
X155210242Y-80721247D01*
X155210242Y-80721247D02*
X155317992Y-80613497D01*
X155210242Y-81206120D02*
X154644557Y-80640434D01*
X154644557Y-80640434D02*
X154429057Y-80855934D01*
X154429057Y-80855934D02*
X154402120Y-80936746D01*
X154402120Y-80936746D02*
X154402120Y-80990621D01*
X154402120Y-80990621D02*
X154429057Y-81071433D01*
X154429057Y-81071433D02*
X154509870Y-81152245D01*
X154509870Y-81152245D02*
X154590682Y-81179182D01*
X154590682Y-81179182D02*
X154644557Y-81179182D01*
X154644557Y-81179182D02*
X154725369Y-81152245D01*
X154725369Y-81152245D02*
X154940868Y-80936746D01*
X154159683Y-81233057D02*
X154105809Y-81233057D01*
X154105809Y-81233057D02*
X154024996Y-81259995D01*
X154024996Y-81259995D02*
X153890309Y-81394682D01*
X153890309Y-81394682D02*
X153863372Y-81475494D01*
X153863372Y-81475494D02*
X153863372Y-81529369D01*
X153863372Y-81529369D02*
X153890309Y-81610181D01*
X153890309Y-81610181D02*
X153944184Y-81664056D01*
X153944184Y-81664056D02*
X154051934Y-81717930D01*
X154051934Y-81717930D02*
X154698431Y-81717930D01*
X154698431Y-81717930D02*
X154348245Y-82068117D01*
X153593998Y-81690993D02*
X153216874Y-82068117D01*
X153216874Y-82068117D02*
X154024996Y-82391366D01*
D12*
%TO.C,J1*%
X191115000Y-100740997D02*
X191115000Y-101310997D01*
X193775000Y-101310997D02*
X191115000Y-101310997D01*
X189595000Y-100740997D02*
X191115000Y-100740997D01*
X191115000Y-95660997D02*
X191115000Y-99220997D01*
X191115000Y-90580997D02*
X191115000Y-94140997D01*
X191115000Y-85500997D02*
X191115000Y-89060997D01*
X191115000Y-80870997D02*
X191115000Y-83980997D01*
X193775000Y-80870997D02*
X191115000Y-80870997D01*
X193775000Y-98200997D02*
X193775000Y-101310997D01*
X193775000Y-93120997D02*
X193775000Y-96680997D01*
X193775000Y-88040997D02*
X193775000Y-91600997D01*
X193775000Y-82960997D02*
X193775000Y-86520997D01*
X193775000Y-80870997D02*
X193775000Y-81440997D01*
%TO.C,U1*%
X133150000Y-57800000D02*
X132850000Y-57800000D01*
X132850000Y-78800000D02*
X132850000Y-57800000D01*
X135650000Y-57800000D02*
X135250000Y-57800000D01*
X135517000Y-60807000D02*
X135517000Y-57800000D01*
X138250000Y-57800000D02*
X137850000Y-57800000D01*
X140750000Y-57800000D02*
X140350000Y-57800000D01*
X143350000Y-57800000D02*
X142950000Y-57800000D01*
X145850000Y-57800000D02*
X145450000Y-57800000D01*
X148350000Y-57800000D02*
X147950000Y-57800000D01*
X150950000Y-57800000D02*
X150550000Y-57800000D01*
X153450000Y-57800000D02*
X153050000Y-57800000D01*
X156050000Y-57800000D02*
X155650000Y-57800000D01*
X158550000Y-57800000D02*
X158150000Y-57800000D01*
X161050000Y-57800000D02*
X160650000Y-57800000D01*
X163650000Y-57800000D02*
X163250000Y-57800000D01*
X166150000Y-57800000D02*
X165750000Y-57800000D01*
X168750000Y-57800000D02*
X168350000Y-57800000D01*
X171250000Y-57800000D02*
X170850000Y-57800000D01*
X173850000Y-57800000D02*
X173450000Y-57800000D01*
X176350000Y-57800000D02*
X175950000Y-57800000D01*
X178850000Y-57800000D02*
X178450000Y-57800000D01*
X181450000Y-57800000D02*
X181050000Y-57800000D01*
X132850000Y-60807000D02*
X135517000Y-60807000D01*
X183850000Y-57800000D02*
X183850000Y-64600000D01*
X183850000Y-67200000D02*
X183850000Y-66800000D01*
X183850000Y-69800000D02*
X183850000Y-69400000D01*
X133150000Y-78800000D02*
X132850000Y-78800000D01*
X135650000Y-78800000D02*
X135250000Y-78800000D01*
X138250000Y-78800000D02*
X137850000Y-78800000D01*
X140750000Y-78800000D02*
X140350000Y-78800000D01*
X143350000Y-78800000D02*
X142950000Y-78800000D01*
X145850000Y-78800000D02*
X145450000Y-78800000D01*
X148350000Y-78800000D02*
X147950000Y-78800000D01*
X150950000Y-78800000D02*
X150550000Y-78800000D01*
X153450000Y-78800000D02*
X153050000Y-78800000D01*
X156050000Y-78800000D02*
X155650000Y-78800000D01*
X158550000Y-78800000D02*
X158150000Y-78800000D01*
X161050000Y-78800000D02*
X160650000Y-78800000D01*
X163650000Y-78800000D02*
X163250000Y-78800000D01*
X166150000Y-78800000D02*
X165750000Y-78800000D01*
X168750000Y-78800000D02*
X168350000Y-78800000D01*
X171250000Y-78800000D02*
X170850000Y-78800000D01*
X173850000Y-78800000D02*
X173450000Y-78800000D01*
X176350000Y-78800000D02*
X175950000Y-78800000D01*
X178850000Y-78800000D02*
X178450000Y-78800000D01*
X181450000Y-78800000D02*
X181050000Y-78800000D01*
X183850000Y-72000000D02*
X183850000Y-78800000D01*
%TD*%
%LPC*%
D13*
%TO.C,J1*%
X190790000Y-99980997D03*
X194100000Y-97440997D03*
X190790000Y-94900997D03*
X194100000Y-92360997D03*
X190790000Y-89820997D03*
X194100000Y-87280997D03*
X190790000Y-84740997D03*
X194100000Y-82200997D03*
%TD*%
D14*
%TO.C,U1*%
X134350000Y-65575000D03*
D15*
X137380000Y-65875000D03*
X137380000Y-70725000D03*
D14*
X134350000Y-71025000D03*
D16*
X134220000Y-58510000D03*
X136760000Y-58510000D03*
X139300000Y-58510000D03*
X141840000Y-58510000D03*
X144380000Y-58510000D03*
X146920000Y-58510000D03*
X149460000Y-58510000D03*
X152000000Y-58510000D03*
X154540000Y-58510000D03*
X157080000Y-58510000D03*
X159620000Y-58510000D03*
X162160000Y-58510000D03*
X164700000Y-58510000D03*
X167240000Y-58510000D03*
X169780000Y-58510000D03*
X172320000Y-58510000D03*
X174860000Y-58510000D03*
X177400000Y-58510000D03*
X179940000Y-58510000D03*
X182480000Y-58510000D03*
X182480000Y-78090000D03*
X179940000Y-78090000D03*
X177400000Y-78090000D03*
X174860000Y-78090000D03*
X172320000Y-78090000D03*
X169780000Y-78090000D03*
X167240000Y-78090000D03*
X164700000Y-78090000D03*
X162160000Y-78090000D03*
X159620000Y-78090000D03*
X157080000Y-78090000D03*
X154540000Y-78090000D03*
X152000000Y-78090000D03*
X149460000Y-78090000D03*
X146920000Y-78090000D03*
X144380000Y-78090000D03*
X141840000Y-78090000D03*
X139300000Y-78090000D03*
X136760000Y-78090000D03*
X134220000Y-78090000D03*
D17*
X183150000Y-65760000D03*
X183150000Y-68300000D03*
X183150000Y-70840000D03*
%TD*%
D18*
%TO.C,H5*%
X182090991Y-91090997D03*
%TD*%
%TO.C,H4*%
X227590991Y-45590997D03*
%TD*%
%TO.C,H3*%
X227590991Y-136590997D03*
%TD*%
%TO.C,H2*%
X136590991Y-136590997D03*
%TD*%
%TO.C,H1*%
X136590991Y-45590997D03*
%TD*%
%LPD*%
M02*
