M48
; DRILL file {KiCad 8.0.7} date 2025-01-12T22:15:46+0100
; FORMAT={-:-/ absolute / inch / decimal}
; #@! TF.CreationDate,2025-01-12T22:15:46+01:00
; #@! TF.GenerationSoftware,Kicad,Pcbnew,8.0.7
; #@! TF.FileFunction,Plated,1,2,PTH
FMAT,2
INCH
; #@! TA.AperFunction,Plated,PTH,ViaDrill
T1C0.0118
%
G90
G05
T1
X5.321Y-2.1858
X5.34Y-2.1
X5.38Y-2.92
X5.4843Y-2.339
X5.4843Y-3.039
X5.4965Y-1.97
X5.4965Y-2.42
X5.4965Y-2.87
X5.4965Y-3.32
X5.4965Y-3.77
X5.4965Y-4.22
X5.4965Y-4.67
X5.4965Y-5.11
X5.58Y-2.3964
X5.6115Y-2.3964
X5.62Y-2.17
X5.64Y-2.21
X5.64Y-2.45
X5.6678Y-2.09
X5.6914Y-2.01
X5.6914Y-2.45
X5.6914Y-2.9
X5.6914Y-3.36
X5.6914Y-3.81
X5.6914Y-4.25
X5.6914Y-4.7
X5.6914Y-5.14
X5.71Y-3.68
X5.72Y-2.08
X5.72Y-2.17
X5.7343Y-2.4862
X5.7343Y-2.935
X5.7343Y-3.3839
X5.7343Y-3.8327
X5.7343Y-4.2815
X5.7343Y-4.7303
X5.7343Y-5.1791
X5.76Y-2.66
X5.77Y-2.53
X5.78Y-3.48
X5.78Y-3.67
X5.7982Y-1.9291
X5.7982Y-2.8268
X5.7982Y-3.2756
X5.7982Y-3.7244
X5.7982Y-4.1732
X5.7982Y-4.622
X5.7982Y-5.0709
X5.83Y-2.47
X5.83Y-2.79
X5.85Y-2.3964
X5.85Y-4.1496
X5.85Y-4.58
X5.86Y-5.04
X5.87Y-3.5636
X5.9465Y-1.97
X5.9465Y-2.42
X5.9465Y-2.87
X5.9465Y-3.32
X5.9465Y-3.77
X5.9465Y-4.22
X5.9465Y-4.67
X5.9465Y-5.11
X6.0Y-2.3964
X6.01Y-2.21
X6.08Y-2.3964
X6.1178Y-2.08
X6.1414Y-2.47
X6.1414Y-3.36
X6.1414Y-3.82
X6.1414Y-4.7
X6.1414Y-5.15
X6.15Y-2.21
X6.15Y-2.52
X6.15Y-2.9
X6.15Y-4.26
X6.157Y-1.9936
X6.17Y-2.08
X6.17Y-2.71
X6.1843Y-2.935
X6.1843Y-3.3839
X6.1843Y-3.8327
X6.1843Y-4.2815
X6.1843Y-4.7303
X6.1843Y-5.1791
X6.23Y-2.1
X6.23Y-2.53
X6.23Y-2.98
X6.23Y-3.44
X6.23Y-3.89
X6.23Y-4.33
X6.23Y-4.78
X6.23Y-5.22
X6.2482Y-1.9291
X6.2482Y-2.8268
X6.2482Y-3.2756
X6.2482Y-3.7244
X6.2482Y-4.1732
X6.2482Y-4.622
X6.2482Y-5.0709
X6.28Y-2.47
X6.3Y-2.3964
X6.35Y-2.2
X6.39Y-5.11
X6.3965Y-1.97
X6.3965Y-2.42
X6.3965Y-2.87
X6.3965Y-3.32
X6.3965Y-3.77
X6.3965Y-4.22
X6.3965Y-4.67
X6.4843Y-2.339
X6.4843Y-3.039
X6.5678Y-2.19
X6.5914Y-2.0
X6.5914Y-2.47
X6.5914Y-2.9
X6.5914Y-3.36
X6.5914Y-3.81
X6.5914Y-4.26
X6.5914Y-4.7
X6.5914Y-5.15
X6.6Y-2.18
X6.6343Y-2.0374
X6.6343Y-2.4862
X6.6343Y-2.935
X6.6343Y-3.3839
X6.6343Y-3.8327
X6.6343Y-4.2815
X6.6343Y-4.7303
X6.6343Y-5.1791
X6.68Y-2.09
X6.68Y-2.53
X6.68Y-2.98
X6.68Y-3.43
X6.68Y-3.88
X6.68Y-4.32
X6.68Y-4.78
X6.68Y-5.22
X6.6982Y-1.9291
X6.6982Y-2.8268
X6.6982Y-3.2756
X6.6982Y-3.7244
X6.6982Y-4.1732
X6.6982Y-4.622
X6.6982Y-5.0709
X6.73Y-2.4436
X6.8465Y-1.97
X6.8465Y-2.42
X6.8465Y-2.87
X6.8465Y-3.32
X6.8465Y-3.77
X6.8465Y-4.22
X6.8465Y-4.67
X6.8465Y-5.11
X6.96Y-2.17
X6.99Y-2.21
X7.0122Y-2.0556
X7.0414Y-1.9936
X7.0414Y-2.21
X7.0414Y-2.39
X7.0414Y-2.48
X7.0414Y-2.91
X7.0414Y-3.36
X7.0414Y-3.54
X7.0414Y-3.82
X7.0414Y-4.71
X7.0414Y-5.15
X7.0417Y-4.2583
X7.05Y-2.73
X7.0843Y-2.0374
X7.0843Y-2.4862
X7.0843Y-2.935
X7.0843Y-3.3839
X7.0843Y-3.8327
X7.0843Y-4.2815
X7.0843Y-4.7303
X7.0843Y-5.1791
X7.09Y-2.76
X7.12Y-2.55
X7.13Y-2.09
X7.13Y-2.97
X7.13Y-3.43
X7.13Y-3.88
X7.13Y-4.32
X7.13Y-4.77
X7.13Y-5.22
X7.1482Y-1.9291
X7.1482Y-3.2756
X7.1482Y-3.7244
X7.1482Y-4.1732
X7.1482Y-4.622
X7.1482Y-5.0709
X7.1752Y-2.689
X7.19Y-2.45
X7.2Y-2.3964
X7.27Y-2.31
X7.2965Y-1.97
X7.2965Y-2.42
X7.2965Y-2.87
X7.2965Y-3.32
X7.2965Y-3.77
X7.2965Y-4.22
X7.2965Y-4.67
X7.2965Y-5.11
X7.32Y-3.17
X7.35Y-3.28
X7.38Y-3.2336
X7.4Y-2.12
X7.4Y-3.74
X7.4Y-3.93
X7.41Y-3.21
X7.42Y-3.61
X7.4914Y-1.9936
X7.4914Y-2.48
X7.4914Y-2.91
X7.4914Y-3.38
X7.4914Y-4.25
X7.4914Y-4.7
X7.4914Y-5.15
X7.4952Y-3.7936
X7.51Y-3.14
X7.52Y-4.0
X7.53Y-2.12
X7.53Y-3.59
X7.5343Y-2.0374
X7.5343Y-2.4862
X7.5343Y-2.935
X7.5343Y-3.3839
X7.5343Y-3.8327
X7.5343Y-4.2815
X7.5343Y-4.7303
X7.5343Y-5.1791
X7.54Y-4.12
X7.55Y-3.22
X7.55Y-3.47
X7.57Y-3.88
X7.58Y-2.08
X7.58Y-2.54
X7.58Y-2.99
X7.58Y-4.32
X7.58Y-4.77
X7.58Y-5.22
X7.5982Y-1.9291
X7.5982Y-2.378
X7.5982Y-2.8268
X7.5982Y-3.7244
X7.5982Y-4.1732
X7.5982Y-4.622
X7.5982Y-5.0709
X7.74Y-2.42
X7.7465Y-1.97
X7.7465Y-2.87
X7.7465Y-3.31
X7.7465Y-3.77
X7.7465Y-4.22
X7.7465Y-4.67
X7.7465Y-5.11
X7.9178Y-2.17
X7.9414Y-2.0
X7.9414Y-2.48
X7.9414Y-3.36
X7.9414Y-4.25
X7.9414Y-5.1583
X7.947Y-3.7936
X7.95Y-4.7
X7.9517Y-2.9083
X7.9843Y-2.0374
X7.9843Y-2.4862
X7.9843Y-2.935
X7.9843Y-3.3839
X7.9843Y-3.8327
X7.9843Y-4.2815
X7.9843Y-4.7303
X7.9843Y-5.1791
X8.02Y-3.88
X8.03Y-2.09
X8.03Y-2.54
X8.03Y-2.99
X8.03Y-3.44
X8.03Y-4.32
X8.03Y-4.77
X8.03Y-5.22
X8.0482Y-1.9291
X8.0482Y-2.378
X8.0482Y-2.8268
X8.0482Y-3.2756
X8.0482Y-3.7244
X8.0482Y-4.1732
X8.0482Y-4.622
X8.0482Y-5.0709
X8.19Y-2.42
X8.1965Y-1.97
X8.1965Y-2.87
X8.1965Y-3.31
X8.1965Y-3.77
X8.1965Y-4.22
X8.1965Y-4.67
X8.1965Y-5.11
X8.3678Y-2.16
X8.3914Y-2.0
X8.3914Y-2.91
X8.3914Y-3.34
X8.3914Y-3.82
X8.3914Y-4.26
X8.3914Y-4.71
X8.3914Y-5.15
X8.4Y-2.47
X8.4343Y-2.0374
X8.4343Y-2.4862
X8.4343Y-2.935
X8.4343Y-3.3839
X8.4343Y-3.8327
X8.4343Y-4.2815
X8.4343Y-4.7303
X8.4343Y-5.1791
X8.48Y-2.1
X8.48Y-2.53
X8.48Y-2.98
X8.48Y-3.43
X8.48Y-3.88
X8.48Y-4.32
X8.48Y-4.77
X8.48Y-5.23
X8.4982Y-1.9291
X8.4982Y-2.378
X8.4982Y-2.8268
X8.4982Y-3.2756
X8.4982Y-3.7244
X8.4982Y-4.1732
X8.4982Y-4.622
X8.4982Y-5.0709
X8.6465Y-1.97
X8.6465Y-2.42
X8.6465Y-2.87
X8.6465Y-3.31
X8.6465Y-3.77
X8.6465Y-4.21
X8.6465Y-4.67
X8.6465Y-5.11
X8.8178Y-2.21
X8.85Y-2.3
X8.85Y-2.63
X8.85Y-3.08
X8.85Y-3.99
X8.85Y-4.42
X8.85Y-4.88
X8.86Y-3.54
X8.8843Y-2.0374
X8.8843Y-2.4862
X8.8843Y-2.935
X8.8843Y-3.3839
X8.8843Y-3.8327
X8.8843Y-4.2815
X8.8843Y-4.7303
X8.8843Y-5.1791
X8.93Y-2.1
X8.93Y-2.53
X8.93Y-2.97
X8.93Y-3.43
X8.93Y-3.87
X8.93Y-4.32
X8.93Y-4.78
X8.93Y-5.22
X8.9482Y-1.9291
X8.9482Y-2.378
X8.9482Y-2.8268
X8.9482Y-3.2756
X8.9482Y-3.7244
X8.9482Y-4.1732
X8.9482Y-4.622
X8.9482Y-5.0709
M30
