%TF.GenerationSoftware,KiCad,Pcbnew,8.0.7*%
%TF.CreationDate,2025-01-12T22:15:46+01:00*%
%TF.ProjectId,butns,6275746e-732e-46b6-9963-61645f706362,rev?*%
%TF.SameCoordinates,Original*%
%TF.FileFunction,Other,Comment*%
%FSLAX46Y46*%
G04 Gerber Fmt 4.6, Leading zero omitted, Abs format (unit mm)*
G04 Created by KiCad (PCBNEW 8.0.7) date 2025-01-12 22:15:46*
%MOMM*%
%LPD*%
G01*
G04 APERTURE LIST*
%ADD10C,0.150000*%
G04 APERTURE END LIST*
D10*
X128509580Y-82400002D02*
X128557200Y-82447621D01*
X128557200Y-82447621D02*
X128604819Y-82590478D01*
X128604819Y-82590478D02*
X128604819Y-82685716D01*
X128604819Y-82685716D02*
X128557200Y-82828573D01*
X128557200Y-82828573D02*
X128461961Y-82923811D01*
X128461961Y-82923811D02*
X128366723Y-82971430D01*
X128366723Y-82971430D02*
X128176247Y-83019049D01*
X128176247Y-83019049D02*
X128033390Y-83019049D01*
X128033390Y-83019049D02*
X127842914Y-82971430D01*
X127842914Y-82971430D02*
X127747676Y-82923811D01*
X127747676Y-82923811D02*
X127652438Y-82828573D01*
X127652438Y-82828573D02*
X127604819Y-82685716D01*
X127604819Y-82685716D02*
X127604819Y-82590478D01*
X127604819Y-82590478D02*
X127652438Y-82447621D01*
X127652438Y-82447621D02*
X127700057Y-82400002D01*
X128604819Y-81828573D02*
X128557200Y-81923811D01*
X128557200Y-81923811D02*
X128509580Y-81971430D01*
X128509580Y-81971430D02*
X128414342Y-82019049D01*
X128414342Y-82019049D02*
X128128628Y-82019049D01*
X128128628Y-82019049D02*
X128033390Y-81971430D01*
X128033390Y-81971430D02*
X127985771Y-81923811D01*
X127985771Y-81923811D02*
X127938152Y-81828573D01*
X127938152Y-81828573D02*
X127938152Y-81685716D01*
X127938152Y-81685716D02*
X127985771Y-81590478D01*
X127985771Y-81590478D02*
X128033390Y-81542859D01*
X128033390Y-81542859D02*
X128128628Y-81495240D01*
X128128628Y-81495240D02*
X128414342Y-81495240D01*
X128414342Y-81495240D02*
X128509580Y-81542859D01*
X128509580Y-81542859D02*
X128557200Y-81590478D01*
X128557200Y-81590478D02*
X128604819Y-81685716D01*
X128604819Y-81685716D02*
X128604819Y-81828573D01*
X127938152Y-81066668D02*
X128938152Y-81066668D01*
X127985771Y-81066668D02*
X127938152Y-80971430D01*
X127938152Y-80971430D02*
X127938152Y-80780954D01*
X127938152Y-80780954D02*
X127985771Y-80685716D01*
X127985771Y-80685716D02*
X128033390Y-80638097D01*
X128033390Y-80638097D02*
X128128628Y-80590478D01*
X128128628Y-80590478D02*
X128414342Y-80590478D01*
X128414342Y-80590478D02*
X128509580Y-80638097D01*
X128509580Y-80638097D02*
X128557200Y-80685716D01*
X128557200Y-80685716D02*
X128604819Y-80780954D01*
X128604819Y-80780954D02*
X128604819Y-80971430D01*
X128604819Y-80971430D02*
X128557200Y-81066668D01*
X127938152Y-80161906D02*
X128938152Y-80161906D01*
X127985771Y-80161906D02*
X127938152Y-80066668D01*
X127938152Y-80066668D02*
X127938152Y-79876192D01*
X127938152Y-79876192D02*
X127985771Y-79780954D01*
X127985771Y-79780954D02*
X128033390Y-79733335D01*
X128033390Y-79733335D02*
X128128628Y-79685716D01*
X128128628Y-79685716D02*
X128414342Y-79685716D01*
X128414342Y-79685716D02*
X128509580Y-79733335D01*
X128509580Y-79733335D02*
X128557200Y-79780954D01*
X128557200Y-79780954D02*
X128604819Y-79876192D01*
X128604819Y-79876192D02*
X128604819Y-80066668D01*
X128604819Y-80066668D02*
X128557200Y-80161906D01*
X128557200Y-78876192D02*
X128604819Y-78971430D01*
X128604819Y-78971430D02*
X128604819Y-79161906D01*
X128604819Y-79161906D02*
X128557200Y-79257144D01*
X128557200Y-79257144D02*
X128461961Y-79304763D01*
X128461961Y-79304763D02*
X128081009Y-79304763D01*
X128081009Y-79304763D02*
X127985771Y-79257144D01*
X127985771Y-79257144D02*
X127938152Y-79161906D01*
X127938152Y-79161906D02*
X127938152Y-78971430D01*
X127938152Y-78971430D02*
X127985771Y-78876192D01*
X127985771Y-78876192D02*
X128081009Y-78828573D01*
X128081009Y-78828573D02*
X128176247Y-78828573D01*
X128176247Y-78828573D02*
X128271485Y-79304763D01*
X128604819Y-78400001D02*
X127938152Y-78400001D01*
X128128628Y-78400001D02*
X128033390Y-78352382D01*
X128033390Y-78352382D02*
X127985771Y-78304763D01*
X127985771Y-78304763D02*
X127938152Y-78209525D01*
X127938152Y-78209525D02*
X127938152Y-78114287D01*
X128604819Y-77019048D02*
X127604819Y-77019048D01*
X128604819Y-76447620D02*
X128033390Y-76876191D01*
X127604819Y-76447620D02*
X128176247Y-77019048D01*
X128557200Y-75638096D02*
X128604819Y-75733334D01*
X128604819Y-75733334D02*
X128604819Y-75923810D01*
X128604819Y-75923810D02*
X128557200Y-76019048D01*
X128557200Y-76019048D02*
X128461961Y-76066667D01*
X128461961Y-76066667D02*
X128081009Y-76066667D01*
X128081009Y-76066667D02*
X127985771Y-76019048D01*
X127985771Y-76019048D02*
X127938152Y-75923810D01*
X127938152Y-75923810D02*
X127938152Y-75733334D01*
X127938152Y-75733334D02*
X127985771Y-75638096D01*
X127985771Y-75638096D02*
X128081009Y-75590477D01*
X128081009Y-75590477D02*
X128176247Y-75590477D01*
X128176247Y-75590477D02*
X128271485Y-76066667D01*
X128557200Y-74780953D02*
X128604819Y-74876191D01*
X128604819Y-74876191D02*
X128604819Y-75066667D01*
X128604819Y-75066667D02*
X128557200Y-75161905D01*
X128557200Y-75161905D02*
X128461961Y-75209524D01*
X128461961Y-75209524D02*
X128081009Y-75209524D01*
X128081009Y-75209524D02*
X127985771Y-75161905D01*
X127985771Y-75161905D02*
X127938152Y-75066667D01*
X127938152Y-75066667D02*
X127938152Y-74876191D01*
X127938152Y-74876191D02*
X127985771Y-74780953D01*
X127985771Y-74780953D02*
X128081009Y-74733334D01*
X128081009Y-74733334D02*
X128176247Y-74733334D01*
X128176247Y-74733334D02*
X128271485Y-75209524D01*
X127938152Y-74304762D02*
X128938152Y-74304762D01*
X127985771Y-74304762D02*
X127938152Y-74209524D01*
X127938152Y-74209524D02*
X127938152Y-74019048D01*
X127938152Y-74019048D02*
X127985771Y-73923810D01*
X127985771Y-73923810D02*
X128033390Y-73876191D01*
X128033390Y-73876191D02*
X128128628Y-73828572D01*
X128128628Y-73828572D02*
X128414342Y-73828572D01*
X128414342Y-73828572D02*
X128509580Y-73876191D01*
X128509580Y-73876191D02*
X128557200Y-73923810D01*
X128557200Y-73923810D02*
X128604819Y-74019048D01*
X128604819Y-74019048D02*
X128604819Y-74209524D01*
X128604819Y-74209524D02*
X128557200Y-74304762D01*
X128604819Y-73257143D02*
X128557200Y-73352381D01*
X128557200Y-73352381D02*
X128509580Y-73400000D01*
X128509580Y-73400000D02*
X128414342Y-73447619D01*
X128414342Y-73447619D02*
X128128628Y-73447619D01*
X128128628Y-73447619D02*
X128033390Y-73400000D01*
X128033390Y-73400000D02*
X127985771Y-73352381D01*
X127985771Y-73352381D02*
X127938152Y-73257143D01*
X127938152Y-73257143D02*
X127938152Y-73114286D01*
X127938152Y-73114286D02*
X127985771Y-73019048D01*
X127985771Y-73019048D02*
X128033390Y-72971429D01*
X128033390Y-72971429D02*
X128128628Y-72923810D01*
X128128628Y-72923810D02*
X128414342Y-72923810D01*
X128414342Y-72923810D02*
X128509580Y-72971429D01*
X128509580Y-72971429D02*
X128557200Y-73019048D01*
X128557200Y-73019048D02*
X128604819Y-73114286D01*
X128604819Y-73114286D02*
X128604819Y-73257143D01*
X127938152Y-72066667D02*
X128604819Y-72066667D01*
X127938152Y-72495238D02*
X128461961Y-72495238D01*
X128461961Y-72495238D02*
X128557200Y-72447619D01*
X128557200Y-72447619D02*
X128604819Y-72352381D01*
X128604819Y-72352381D02*
X128604819Y-72209524D01*
X128604819Y-72209524D02*
X128557200Y-72114286D01*
X128557200Y-72114286D02*
X128509580Y-72066667D01*
X127938152Y-71733333D02*
X127938152Y-71352381D01*
X127604819Y-71590476D02*
X128461961Y-71590476D01*
X128461961Y-71590476D02*
X128557200Y-71542857D01*
X128557200Y-71542857D02*
X128604819Y-71447619D01*
X128604819Y-71447619D02*
X128604819Y-71352381D01*
X128557200Y-71066666D02*
X128604819Y-70971428D01*
X128604819Y-70971428D02*
X128604819Y-70780952D01*
X128604819Y-70780952D02*
X128557200Y-70685714D01*
X128557200Y-70685714D02*
X128461961Y-70638095D01*
X128461961Y-70638095D02*
X128414342Y-70638095D01*
X128414342Y-70638095D02*
X128319104Y-70685714D01*
X128319104Y-70685714D02*
X128271485Y-70780952D01*
X128271485Y-70780952D02*
X128271485Y-70923809D01*
X128271485Y-70923809D02*
X128223866Y-71019047D01*
X128223866Y-71019047D02*
X128128628Y-71066666D01*
X128128628Y-71066666D02*
X128081009Y-71066666D01*
X128081009Y-71066666D02*
X127985771Y-71019047D01*
X127985771Y-71019047D02*
X127938152Y-70923809D01*
X127938152Y-70923809D02*
X127938152Y-70780952D01*
X127938152Y-70780952D02*
X127985771Y-70685714D01*
X128557200Y-69495237D02*
X128604819Y-69399999D01*
X128604819Y-69399999D02*
X128604819Y-69209523D01*
X128604819Y-69209523D02*
X128557200Y-69114285D01*
X128557200Y-69114285D02*
X128461961Y-69066666D01*
X128461961Y-69066666D02*
X128414342Y-69066666D01*
X128414342Y-69066666D02*
X128319104Y-69114285D01*
X128319104Y-69114285D02*
X128271485Y-69209523D01*
X128271485Y-69209523D02*
X128271485Y-69352380D01*
X128271485Y-69352380D02*
X128223866Y-69447618D01*
X128223866Y-69447618D02*
X128128628Y-69495237D01*
X128128628Y-69495237D02*
X128081009Y-69495237D01*
X128081009Y-69495237D02*
X127985771Y-69447618D01*
X127985771Y-69447618D02*
X127938152Y-69352380D01*
X127938152Y-69352380D02*
X127938152Y-69209523D01*
X127938152Y-69209523D02*
X127985771Y-69114285D01*
X128604819Y-68638094D02*
X127604819Y-68638094D01*
X128604819Y-68209523D02*
X128081009Y-68209523D01*
X128081009Y-68209523D02*
X127985771Y-68257142D01*
X127985771Y-68257142D02*
X127938152Y-68352380D01*
X127938152Y-68352380D02*
X127938152Y-68495237D01*
X127938152Y-68495237D02*
X127985771Y-68590475D01*
X127985771Y-68590475D02*
X128033390Y-68638094D01*
X128604819Y-67590475D02*
X128557200Y-67685713D01*
X128557200Y-67685713D02*
X128509580Y-67733332D01*
X128509580Y-67733332D02*
X128414342Y-67780951D01*
X128414342Y-67780951D02*
X128128628Y-67780951D01*
X128128628Y-67780951D02*
X128033390Y-67733332D01*
X128033390Y-67733332D02*
X127985771Y-67685713D01*
X127985771Y-67685713D02*
X127938152Y-67590475D01*
X127938152Y-67590475D02*
X127938152Y-67447618D01*
X127938152Y-67447618D02*
X127985771Y-67352380D01*
X127985771Y-67352380D02*
X128033390Y-67304761D01*
X128033390Y-67304761D02*
X128128628Y-67257142D01*
X128128628Y-67257142D02*
X128414342Y-67257142D01*
X128414342Y-67257142D02*
X128509580Y-67304761D01*
X128509580Y-67304761D02*
X128557200Y-67352380D01*
X128557200Y-67352380D02*
X128604819Y-67447618D01*
X128604819Y-67447618D02*
X128604819Y-67590475D01*
X127938152Y-66923808D02*
X128604819Y-66733332D01*
X128604819Y-66733332D02*
X128128628Y-66542856D01*
X128128628Y-66542856D02*
X128604819Y-66352380D01*
X128604819Y-66352380D02*
X127938152Y-66161904D01*
X127938152Y-65780951D02*
X128604819Y-65780951D01*
X128033390Y-65780951D02*
X127985771Y-65733332D01*
X127985771Y-65733332D02*
X127938152Y-65638094D01*
X127938152Y-65638094D02*
X127938152Y-65495237D01*
X127938152Y-65495237D02*
X127985771Y-65399999D01*
X127985771Y-65399999D02*
X128081009Y-65352380D01*
X128081009Y-65352380D02*
X128604819Y-65352380D01*
X128604819Y-63971427D02*
X128557200Y-64066665D01*
X128557200Y-64066665D02*
X128509580Y-64114284D01*
X128509580Y-64114284D02*
X128414342Y-64161903D01*
X128414342Y-64161903D02*
X128128628Y-64161903D01*
X128128628Y-64161903D02*
X128033390Y-64114284D01*
X128033390Y-64114284D02*
X127985771Y-64066665D01*
X127985771Y-64066665D02*
X127938152Y-63971427D01*
X127938152Y-63971427D02*
X127938152Y-63828570D01*
X127938152Y-63828570D02*
X127985771Y-63733332D01*
X127985771Y-63733332D02*
X128033390Y-63685713D01*
X128033390Y-63685713D02*
X128128628Y-63638094D01*
X128128628Y-63638094D02*
X128414342Y-63638094D01*
X128414342Y-63638094D02*
X128509580Y-63685713D01*
X128509580Y-63685713D02*
X128557200Y-63733332D01*
X128557200Y-63733332D02*
X128604819Y-63828570D01*
X128604819Y-63828570D02*
X128604819Y-63971427D01*
X127938152Y-63209522D02*
X128604819Y-63209522D01*
X128033390Y-63209522D02*
X127985771Y-63161903D01*
X127985771Y-63161903D02*
X127938152Y-63066665D01*
X127938152Y-63066665D02*
X127938152Y-62923808D01*
X127938152Y-62923808D02*
X127985771Y-62828570D01*
X127985771Y-62828570D02*
X128081009Y-62780951D01*
X128081009Y-62780951D02*
X128604819Y-62780951D01*
X128604819Y-61542855D02*
X127604819Y-61542855D01*
X127604819Y-61542855D02*
X127604819Y-61304760D01*
X127604819Y-61304760D02*
X127652438Y-61161903D01*
X127652438Y-61161903D02*
X127747676Y-61066665D01*
X127747676Y-61066665D02*
X127842914Y-61019046D01*
X127842914Y-61019046D02*
X128033390Y-60971427D01*
X128033390Y-60971427D02*
X128176247Y-60971427D01*
X128176247Y-60971427D02*
X128366723Y-61019046D01*
X128366723Y-61019046D02*
X128461961Y-61066665D01*
X128461961Y-61066665D02*
X128557200Y-61161903D01*
X128557200Y-61161903D02*
X128604819Y-61304760D01*
X128604819Y-61304760D02*
X128604819Y-61542855D01*
X127938152Y-60638093D02*
X128604819Y-60447617D01*
X128604819Y-60447617D02*
X128128628Y-60257141D01*
X128128628Y-60257141D02*
X128604819Y-60066665D01*
X128604819Y-60066665D02*
X127938152Y-59876189D01*
X127938152Y-59066665D02*
X128747676Y-59066665D01*
X128747676Y-59066665D02*
X128842914Y-59114284D01*
X128842914Y-59114284D02*
X128890533Y-59161903D01*
X128890533Y-59161903D02*
X128938152Y-59257141D01*
X128938152Y-59257141D02*
X128938152Y-59399998D01*
X128938152Y-59399998D02*
X128890533Y-59495236D01*
X128557200Y-59066665D02*
X128604819Y-59161903D01*
X128604819Y-59161903D02*
X128604819Y-59352379D01*
X128604819Y-59352379D02*
X128557200Y-59447617D01*
X128557200Y-59447617D02*
X128509580Y-59495236D01*
X128509580Y-59495236D02*
X128414342Y-59542855D01*
X128414342Y-59542855D02*
X128128628Y-59542855D01*
X128128628Y-59542855D02*
X128033390Y-59495236D01*
X128033390Y-59495236D02*
X127985771Y-59447617D01*
X127985771Y-59447617D02*
X127938152Y-59352379D01*
X127938152Y-59352379D02*
X127938152Y-59161903D01*
X127938152Y-59161903D02*
X127985771Y-59066665D01*
X128557200Y-58638093D02*
X128604819Y-58542855D01*
X128604819Y-58542855D02*
X128604819Y-58352379D01*
X128604819Y-58352379D02*
X128557200Y-58257141D01*
X128557200Y-58257141D02*
X128461961Y-58209522D01*
X128461961Y-58209522D02*
X128414342Y-58209522D01*
X128414342Y-58209522D02*
X128319104Y-58257141D01*
X128319104Y-58257141D02*
X128271485Y-58352379D01*
X128271485Y-58352379D02*
X128271485Y-58495236D01*
X128271485Y-58495236D02*
X128223866Y-58590474D01*
X128223866Y-58590474D02*
X128128628Y-58638093D01*
X128128628Y-58638093D02*
X128081009Y-58638093D01*
X128081009Y-58638093D02*
X127985771Y-58590474D01*
X127985771Y-58590474D02*
X127938152Y-58495236D01*
X127938152Y-58495236D02*
X127938152Y-58352379D01*
X127938152Y-58352379D02*
X127985771Y-58257141D01*
X128604819Y-56876188D02*
X128557200Y-56971426D01*
X128557200Y-56971426D02*
X128461961Y-57019045D01*
X128461961Y-57019045D02*
X127604819Y-57019045D01*
X128604819Y-56066664D02*
X128081009Y-56066664D01*
X128081009Y-56066664D02*
X127985771Y-56114283D01*
X127985771Y-56114283D02*
X127938152Y-56209521D01*
X127938152Y-56209521D02*
X127938152Y-56399997D01*
X127938152Y-56399997D02*
X127985771Y-56495235D01*
X128557200Y-56066664D02*
X128604819Y-56161902D01*
X128604819Y-56161902D02*
X128604819Y-56399997D01*
X128604819Y-56399997D02*
X128557200Y-56495235D01*
X128557200Y-56495235D02*
X128461961Y-56542854D01*
X128461961Y-56542854D02*
X128366723Y-56542854D01*
X128366723Y-56542854D02*
X128271485Y-56495235D01*
X128271485Y-56495235D02*
X128223866Y-56399997D01*
X128223866Y-56399997D02*
X128223866Y-56161902D01*
X128223866Y-56161902D02*
X128176247Y-56066664D01*
X127938152Y-55685711D02*
X128604819Y-55447616D01*
X127938152Y-55209521D02*
X128604819Y-55447616D01*
X128604819Y-55447616D02*
X128842914Y-55542854D01*
X128842914Y-55542854D02*
X128890533Y-55590473D01*
X128890533Y-55590473D02*
X128938152Y-55685711D01*
X128557200Y-54447616D02*
X128604819Y-54542854D01*
X128604819Y-54542854D02*
X128604819Y-54733330D01*
X128604819Y-54733330D02*
X128557200Y-54828568D01*
X128557200Y-54828568D02*
X128461961Y-54876187D01*
X128461961Y-54876187D02*
X128081009Y-54876187D01*
X128081009Y-54876187D02*
X127985771Y-54828568D01*
X127985771Y-54828568D02*
X127938152Y-54733330D01*
X127938152Y-54733330D02*
X127938152Y-54542854D01*
X127938152Y-54542854D02*
X127985771Y-54447616D01*
X127985771Y-54447616D02*
X128081009Y-54399997D01*
X128081009Y-54399997D02*
X128176247Y-54399997D01*
X128176247Y-54399997D02*
X128271485Y-54876187D01*
X128604819Y-53971425D02*
X127938152Y-53971425D01*
X128128628Y-53971425D02*
X128033390Y-53923806D01*
X128033390Y-53923806D02*
X127985771Y-53876187D01*
X127985771Y-53876187D02*
X127938152Y-53780949D01*
X127938152Y-53780949D02*
X127938152Y-53685711D01*
%TO.C,H5*%
X184790991Y-91090997D02*
G75*
G02*
X179390991Y-91090997I-2700000J0D01*
G01*
X179390991Y-91090997D02*
G75*
G02*
X184790991Y-91090997I2700000J0D01*
G01*
%TO.C,H4*%
X230290991Y-45590997D02*
G75*
G02*
X224890991Y-45590997I-2700000J0D01*
G01*
X224890991Y-45590997D02*
G75*
G02*
X230290991Y-45590997I2700000J0D01*
G01*
%TO.C,H3*%
X230290991Y-136590997D02*
G75*
G02*
X224890991Y-136590997I-2700000J0D01*
G01*
X224890991Y-136590997D02*
G75*
G02*
X230290991Y-136590997I2700000J0D01*
G01*
%TO.C,H2*%
X139290991Y-136590997D02*
G75*
G02*
X133890991Y-136590997I-2700000J0D01*
G01*
X133890991Y-136590997D02*
G75*
G02*
X139290991Y-136590997I2700000J0D01*
G01*
%TO.C,H1*%
X139290991Y-45590997D02*
G75*
G02*
X133890991Y-45590997I-2700000J0D01*
G01*
X133890991Y-45590997D02*
G75*
G02*
X139290991Y-45590997I2700000J0D01*
G01*
%TD*%
M02*
